<?xml version="1.0" encoding="UTF-8"?>
<svg xmlns="http://www.w3.org/2000/svg" xmlns:xlink="http://www.w3.org/1999/xlink" width="px" height="px" viewBox="0 0 1250 1250" version="1.1">
<g id="surface1">
<path style=" stroke:none;fill-rule:nonzero;fill:rgb(33.72549%,23.921569%,48.627451%);fill-opacity:1;" d="M 0 1088.824219 C 0 1177.847656 72.164062 1250 161.175781 1250 L 1088.820312 1250 C 1177.847656 1250 1250 1177.835938 1250 1088.824219 L 1250 161.179688 C 1250 72.152344 1177.835938 0 1088.824219 0 L 161.179688 0 C 72.152344 0 0 72.164062 0 161.175781 Z M 0 1088.824219 "/>
<path style=" stroke:none;fill-rule:nonzero;fill:rgb(100%,100%,100%);fill-opacity:1;" d="M 518.347656 552.921875 L 518.347656 375.902344 L 674.164062 375.902344 C 689.007812 375.902344 703.316406 377.140625 717.09375 379.613281 C 730.875 382.085938 743.066406 386.5 753.667969 392.859375 C 764.261719 399.222656 772.742188 408.054688 779.105469 419.359375 C 785.464844 430.667969 788.648438 445.15625 788.648438 462.816406 C 788.648438 494.617188 779.105469 517.585938 760.023438 531.71875 C 740.945312 545.855469 716.566406 552.921875 686.882812 552.921875 Z M 351.929688 246.582031 L 351.929688 1003.417969 L 718.6875 1003.417969 C 752.605469 1003.417969 785.644531 999.179688 817.796875 990.699219 C 849.953125 982.21875 878.570312 969.144531 903.65625 951.480469 C 928.742188 933.8125 948.707031 911.019531 963.546875 883.109375 C 978.390625 855.195312 985.804688 822.15625 985.804688 784 C 985.804688 736.648438 974.320312 696.195312 951.359375 662.632812 C 928.386719 629.0625 893.585938 605.566406 846.945312 592.140625 C 880.863281 575.890625 906.484375 555.039062 923.800781 529.601562 C 941.109375 504.160156 949.765625 472.363281 949.765625 434.199219 C 949.765625 398.867188 943.9375 369.1875 932.277344 345.160156 C 920.617188 321.136719 904.183594 301.878906 882.984375 287.390625 C 861.789062 272.90625 836.347656 262.480469 806.664062 256.121094 C 776.988281 249.761719 744.125 246.582031 708.085938 246.582031 Z M 518.347656 874.097656 L 518.347656 666.335938 L 699.605469 666.335938 C 735.644531 666.335938 764.617188 674.636719 786.527344 691.25 C 808.433594 707.855469 819.390625 735.589844 819.390625 774.457031 C 819.390625 794.246094 816.03125 810.496094 809.316406 823.21875 C 802.601562 835.9375 793.59375 846.011719 782.285156 853.425781 C 770.980469 860.851562 757.90625 866.148438 743.066406 869.332031 C 728.222656 872.503906 712.679688 874.097656 696.425781 874.097656 Z M 518.347656 874.097656 "/>
</g>
</svg>
