<?xml version="1.0" encoding="UTF-8"?>
<svg xmlns="http://www.w3.org/2000/svg" xmlns:xlink="http://www.w3.org/1999/xlink" width="px" height="px" viewBox="0 0 1250 1250" version="1.1">
<g id="surface1">
<path style=" stroke:none;fill-rule:nonzero;fill:rgb(87.058824%,29.803922%,21.176471%);fill-opacity:1;" d="M 1226.425781 569.304688 L 680.664062 23.574219 C 649.253906 -7.855469 598.277344 -7.855469 566.828125 23.574219 L 453.496094 136.90625 L 597.261719 280.667969 C 630.667969 269.378906 668.980469 276.953125 695.609375 303.582031 C 722.367188 330.386719 729.886719 369.023438 718.324219 402.539062 L 856.875 541.09375 C 890.394531 529.546875 929.070312 537.015625 955.84375 563.832031 C 993.261719 601.234375 993.261719 661.855469 955.84375 699.28125 C 918.417969 736.714844 857.796875 736.714844 820.351562 699.28125 C 792.207031 671.109375 785.253906 629.773438 799.5 595.101562 L 670.292969 465.894531 L 670.277344 805.917969 C 679.644531 810.550781 688.199219 816.667969 695.609375 824.03125 C 733.027344 861.4375 733.027344 922.0625 695.609375 959.515625 C 658.183594 996.929688 597.535156 996.929688 560.160156 959.515625 C 522.746094 922.0625 522.746094 861.441406 560.160156 824.039062 C 569.128906 815.066406 579.785156 807.960938 591.515625 803.136719 L 591.515625 459.941406 C 579.765625 455.144531 569.105469 448.039062 560.160156 439.039062 C 531.8125 410.726562 524.996094 369.128906 539.523438 334.320312 L 397.804688 192.585938 L 23.582031 566.78125 C -7.863281 598.242188 -7.863281 649.222656 23.582031 680.660156 L 569.355469 1226.402344 C 600.777344 1257.835938 651.742188 1257.835938 683.203125 1226.402344 L 1226.421875 683.195312 C 1257.855469 651.75 1257.855469 600.738281 1226.421875 569.304688 "/>
</g>
</svg>
