<?xml version="1.0" encoding="UTF-8"?>
<svg xmlns="http://www.w3.org/2000/svg" xmlns:xlink="http://www.w3.org/1999/xlink" width="px" height="px" viewBox="0 0 12 12" version="1.1">
<g id="surface1">
<path style=" stroke:none;fill-rule:nonzero;fill:rgb(14.509804%,50.196078%,97.254902%);fill-opacity:1;" d="M 0.386719 6.335938 C 3.464844 9.4375 1.820312 7.777344 6.011719 12 C 10.917969 7.058594 10.464844 7.507812 10.011719 7.957031 C 9.652344 8.3125 9.296875 8.667969 11.609375 6.335938 C 11.796875 6.148438 11.796875 5.851562 11.609375 5.664062 C 9.921875 3.960938 7.683594 1.683594 6.011719 0 C 2.171875 3.863281 0.386719 5.664062 0.386719 5.664062 C 0.203125 5.851562 0.203125 6.148438 0.386719 6.335938 Z M 6.011719 4.226562 L 7.773438 6 L 6.011719 7.773438 L 4.246094 6 Z M 6.011719 4.226562 "/>
<path style=" stroke:none;fill-rule:nonzero;fill:rgb(87.058824%,87.058824%,87.058824%);fill-opacity:1;" d="M 6 4.238281 L 4.246094 6 L 6 7.761719 Z M 6 4.238281 "/>
<path style=" stroke:none;fill-rule:nonzero;fill:rgb(12.54902%,43.529412%,84.705882%);fill-opacity:1;" d="M 6 0.0117188 C 2.167969 3.867188 0.386719 5.664062 0.386719 5.664062 C 0.203125 5.851562 0.203125 6.148438 0.386719 6.335938 C 3.464844 9.4375 1.824219 7.78125 6 11.988281 L 6 7.761719 L 4.246094 6 L 6 4.238281 Z M 6 0.0117188 "/>
</g>
</svg>
