<?xml version="1.0" encoding="UTF-8"?>
<svg xmlns="http://www.w3.org/2000/svg" xmlns:xlink="http://www.w3.org/1999/xlink" width="px" height="px" viewBox="0 0 400 400" version="1.1">
<g id="surface1">
<path style=" stroke:none;fill-rule:evenodd;fill:rgb(10.196078%,9.803922%,9.411765%);fill-opacity:1;" d="M 382.59375 161.441406 L 399.328125 161.535156 C 399.328125 161.535156 368.214844 203.695312 365.671875 207.128906 C 364.847656 208.242188 363.59375 209.441406 362.960938 210.929688 C 361.351562 214.667969 359.703125 222.871094 359.703125 222.871094 L 344.390625 222.949219 C 344.390625 222.949219 346.773438 214.398438 346.675781 209.84375 C 346.589844 205.867188 344.558594 201.890625 343.417969 197.902344 C 342.265625 193.863281 340.703125 185.960938 340.703125 185.960938 L 356.445312 185.960938 L 358.617188 194.644531 L 382.59375 161.441406 "/>
<path style=" stroke:none;fill-rule:evenodd;fill:rgb(10.196078%,9.803922%,9.411765%);fill-opacity:1;" d="M 350.902344 170.332031 C 353.992188 172.195312 355.886719 182.464844 355.886719 182.464844 C 355.886719 182.464844 339.726562 182.703125 330.933594 182.703125 L 323.335938 182.703125 L 314.105469 222.871094 L 299.996094 222.871094 C 299.996094 222.871094 308.777344 179.21875 310.851562 171.304688 C 311.523438 168.742188 315.453125 169.183594 322.09375 169.183594 L 332.691406 169.183594 C 339.539062 169.183594 347.539062 168.308594 350.902344 170.332031 "/>
<path style=" stroke:none;fill-rule:evenodd;fill:rgb(10.196078%,9.803922%,9.411765%);fill-opacity:1;" d="M 285.203125 189.894531 C 285.203125 189.894531 285.644531 187.316406 283.710938 184.332031 C 282.058594 181.785156 280.535156 181.195312 276.191406 181.058594 C 263.929688 180.671875 264.167969 189.761719 264.167969 189.761719 Z M 298.5 179.492188 C 300.300781 185.972656 296.875 201.203125 296.875 201.203125 C 296.875 201.203125 278.988281 200.902344 269.191406 201.203125 C 266.144531 201.296875 262.5 200.871094 261.589844 202.289062 C 260.316406 204.273438 262.058594 207.332031 263.535156 208.621094 C 265.234375 210.109375 268.542969 210.277344 269.734375 210.429688 C 277.683594 211.441406 294.328125 210.691406 294.328125 210.691406 L 291.445312 223.457031 C 291.445312 223.457031 267.925781 224.636719 256.164062 221.828125 C 253.839844 221.273438 251.664062 220.15625 250.191406 218.570312 C 249.789062 218.136719 249.441406 217.546875 249.0625 217.035156 C 248.757812 216.628906 247.875 215.289062 247.476562 214.230469 C 244.792969 207.070312 247.792969 193.351562 250.734375 186.003906 C 251.078125 185.152344 251.503906 184.070312 251.957031 183.152344 C 252.519531 182.007812 253 180.71875 253.449219 180.03125 C 253.753906 179.5625 254.128906 179.257812 254.441406 178.8125 C 254.804688 178.285156 255.230469 177.773438 255.621094 177.320312 C 256.707031 176.058594 257.9375 175.167969 259.421875 174.0625 C 264.320312 170.394531 273.191406 167.542969 283.847656 168.632812 C 287.859375 169.046875 293.914062 170.480469 296.875 174.605469 C 297.664062 175.707031 298.058594 177.894531 298.5 179.492188 Z M 298.5 179.492188 "/>
<path style=" stroke:none;fill-rule:evenodd;fill:rgb(10.196078%,9.803922%,9.411765%);fill-opacity:1;" d="M 233.773438 169.132812 L 247.457031 169.050781 C 247.457031 169.050781 239.832031 205.230469 235.945312 222.871094 L 220.203125 222.871094 C 209.199219 222.871094 199.402344 224.234375 195.234375 216.355469 C 191.191406 208.710938 195.050781 196.132812 196.863281 187.589844 C 198.144531 181.542969 200.839844 169.183594 200.839844 169.183594 L 215.019531 169.050781 C 215.019531 169.050781 211.011719 188.292969 209.347656 197.902344 C 208.75 201.34375 207.519531 204.585938 208.804688 207.128906 C 210.023438 209.550781 211.734375 209.722656 216.945312 209.84375 C 218.597656 209.882812 224.003906 209.84375 224.003906 209.84375 L 233.773438 169.132812 "/>
<path style=" stroke:none;fill-rule:evenodd;fill:rgb(10.196078%,9.803922%,9.411765%);fill-opacity:1;" d="M 169.722656 195.1875 C 171.15625 190.097656 173.246094 184.578125 172.980469 179.988281 C 172.691406 175.082031 168.578125 170.617188 165.921875 169.675781 C 157.925781 166.855469 150.441406 170.800781 147.46875 174.019531 C 143.617188 178.1875 142.316406 183.058594 140.953125 189.761719 C 139.9375 194.738281 139.109375 199.992188 140.953125 203.871094 C 144.21875 210.734375 154.410156 209.234375 165.378906 209.300781 C 167.007812 204.9375 168.355469 200.035156 169.722656 195.1875 Z M 188.71875 175.105469 C 190.285156 186.46875 184.285156 199.015625 180.15625 209.925781 C 184.367188 210.304688 188.058594 209.867188 188.324219 210.179688 C 188.601562 210.585938 185.5 223.203125 184.421875 223.234375 C 181.078125 223.320312 170 223.414062 165.378906 223.414062 C 150.304688 223.414062 136.203125 224.394531 129.011719 216.902344 C 126.09375 213.855469 124.074219 208.632812 123.582031 204.957031 C 122.769531 198.824219 123.789062 192.070312 125.210938 186.503906 C 126.5 181.476562 128.148438 176.734375 130.640625 172.390625 C 136.976562 161.332031 147.992188 153.125 166.464844 155.019531 C 170.046875 155.390625 175.191406 156.957031 178.40625 158.820312 C 178.628906 158.949219 179.40625 159.570312 179.585938 159.679688 C 183.925781 162.441406 187.882812 169.035156 188.71875 175.105469 Z M 188.71875 175.105469 "/>
<path style=" stroke:none;fill-rule:evenodd;fill:rgb(10.196078%,9.803922%,9.411765%);fill-opacity:1;" d="M 122.027344 169.199219 C 121.113281 173.351562 120.203125 178.058594 119.242188 182.160156 L 104.042969 182.160156 C 105.21875 177.613281 106.121094 173.089844 107.300781 169.132812 C 112.164062 169.132812 116.683594 169.199219 122.027344 169.199219 "/>
<path style=" stroke:none;fill-rule:evenodd;fill:rgb(10.196078%,9.803922%,9.411765%);fill-opacity:1;" d="M 103.5 185.960938 L 118.15625 185.960938 C 116.238281 196.566406 112.445312 213.675781 109.472656 225.585938 C 107.609375 233.039062 106.367188 238.476562 101.328125 242.410156 C 100.878906 242.765625 100.617188 242.597656 100.242188 242.953125 C 99.316406 243.839844 95.019531 244.867188 92.644531 245.125 C 88.78125 245.542969 84.410156 245.179688 79.660156 245.082031 C 80.902344 240.539062 82.308594 235.085938 83.417969 231.011719 C 94.996094 232.414062 95.289062 221.46875 97.53125 210.929688 C 98.828125 204.839844 102.757812 188.402344 103.5 185.960938 "/>
<path style=" stroke:none;fill-rule:evenodd;fill:rgb(12.941176%,37.647059%,60.784314%);fill-opacity:1;" d="M 69.304688 213.644531 L 68.988281 214.457031 C 63.636719 224.878906 54.152344 231.273438 40.628906 231.554688 C 34.304688 231.6875 28.277344 230.0625 24.34375 228.300781 C 15.847656 224.484375 8.703125 217.40625 4.804688 209.84375 C -0.792969 199.003906 -1.804688 183.925781 9.835938 172.664062 C 10.015625 172.664062 8.421875 175.105469 8.601562 175.105469 L 8.28125 176.148438 C -0.105469 202.402344 25.734375 224.902344 50.847656 222.328125 C 56.882812 221.710938 64.582031 218.402344 69.304688 213.644531 "/>
<path style=" stroke:none;fill-rule:evenodd;fill:rgb(12.941176%,37.647059%,60.784314%);fill-opacity:1;" d="M 54.105469 202.789062 C 60.421875 202.832031 67.023438 199.878906 70.933594 195.730469 C 67.511719 204.410156 57.613281 209.988281 44.335938 208.214844 C 33.21875 206.726562 22.628906 195.542969 21.539062 184.332031 C 20.738281 176.175781 23.582031 171.304688 28.269531 165.398438 C 26.640625 168.488281 26.03125 170.871094 25.878906 172.390625 C 24.101562 190.035156 39.976562 202.695312 54.105469 202.789062 "/>
<path style=" stroke:none;fill-rule:evenodd;fill:rgb(12.941176%,37.647059%,60.784314%);fill-opacity:1;" d="M 70.296875 180.867188 C 69.316406 183.121094 63.660156 187.378906 61.160156 187.910156 C 51.273438 190.015625 44.9375 185.324219 41.621094 179.988281 C 41.128906 179.191406 40.214844 177.015625 40.050781 176.460938 C 38.765625 172.085938 39.355469 165.46875 43.195312 162.042969 C 42.039062 165.300781 41.871094 169.085938 42.480469 171.542969 C 42.847656 173.03125 43.972656 175.625 45.09375 177.257812 C 47.140625 180.234375 48.4375 180.957031 51.066406 182.535156 C 52.25 183.246094 53.519531 183.816406 54.066406 183.972656 C 56.558594 184.707031 61.820312 186.640625 70.296875 180.867188 "/>
</g>
</svg>
