<?xml version="1.0" encoding="UTF-8"?>
<svg xmlns="http://www.w3.org/2000/svg" xmlns:xlink="http://www.w3.org/1999/xlink" width="px" height="px" viewBox="0 0 1250 1250" version="1.1">
<g id="surface1">
<path style=" stroke:none;fill-rule:nonzero;fill:rgb(95.294118%,31.372549%,27.058824%);fill-opacity:1;" d="M 783.421875 1015.625 C 793.1875 1029.730469 799.15625 1028.648438 806.746094 1025.390625 C 814.339844 1022.132812 1204.96875 890.296875 1216.90625 885.960938 C 1228.835938 881.621094 1225.042969 877.820312 1221.25 871.851562 C 1217.449219 865.882812 1087.242188 689.019531 1080.726562 678.710938 C 1074.21875 668.402344 1070.960938 670.570312 1060.65625 673.828125 L 646.566406 781.578125 C 646.566406 781.578125 773.65625 1001.511719 783.421875 1015.625 Z M 1250 835.523438 L 1250 628.5 C 1203.414062 640.914062 1144.488281 656.605469 1121.226562 662.792969 C 1156.320312 709.746094 1211.179688 783.226562 1250 835.523438 Z M 1120.824219 407.816406 C 1114.445312 409.265625 973.132812 434.804688 964.429688 435.960938 C 955.726562 437.125 958.628906 442.054688 962.109375 446.988281 L 1086.460938 617.609375 C 1086.460938 617.609375 1238.507812 579.886719 1247.792969 577.855469 C 1248.546875 577.691406 1249.28125 577.515625 1250 577.335938 L 1250 554.742188 C 1222.363281 519.695312 1147.070312 424.28125 1140.5625 415.367188 C 1132.730469 404.628906 1127.210938 406.371094 1120.824219 407.816406 Z M 1120.824219 407.816406 "/>
<path style=" stroke:none;fill-rule:nonzero;fill:rgb(95.294118%,31.372549%,27.058824%);fill-opacity:1;" d="M 231.71875 139.816406 C 262.320312 138.421875 265.113281 145.386719 278.554688 165.324219 L 616.296875 729.980469 L 1040.976562 628.246094 C 1017.445312 594.890625 910.628906 443.453125 900.304688 429 C 888.703125 412.75 900.59375 405.203125 919.457031 402.015625 C 938.316406 398.824219 1100.804688 371.546875 1114.730469 369.515625 C 1128.664062 367.484375 1139.691406 362.554688 1162.320312 389.828125 C 1173.902344 403.785156 1213.160156 452.671875 1250 498.496094 L 1250 234.375 C 1250 169.8125 1227.074219 114.609375 1181.234375 68.765625 C 1135.390625 22.925781 1080.1875 0 1015.625 0 L 234.375 0 C 169.816406 0 114.609375 22.925781 68.765625 68.765625 C 42.46875 95.070312 23.753906 124.449219 12.546875 156.90625 C 89.101562 150.617188 210.308594 140.789062 231.722656 139.8125 Z M 231.71875 139.816406 "/>
<path style=" stroke:none;fill-rule:nonzero;fill:rgb(95.294118%,31.372549%,27.058824%);fill-opacity:1;" d="M 821.722656 1091.621094 C 785.914062 1102.46875 769.851562 1107.855469 746.527344 1075.304688 C 729.058594 1050.921875 634.578125 880.757812 588.257812 796.871094 C 500.585938 819.828125 340.140625 861.703125 293.871094 872.820312 C 248.714844 883.671875 229.429688 856.597656 222.011719 839.910156 C 216.8125 828.203125 84.417969 542.761719 0 359.617188 L 0 1015.625 C 0 1080.191406 22.925781 1135.386719 68.765625 1181.234375 C 114.609375 1227.074219 169.816406 1250 234.375 1250 L 1015.625 1250 C 1080.1875 1250 1135.390625 1227.074219 1181.234375 1181.234375 C 1227.074219 1135.386719 1250 1080.191406 1250 1015.625 L 1250 938.570312 C 1154.101562 973.648438 845.851562 1084.3125 821.722656 1091.621094 Z M 821.722656 1091.621094 "/>
<path style=" stroke:none;fill-rule:nonzero;fill:rgb(95.294118%,31.372549%,27.058824%);fill-opacity:1;" d="M 294.980469 807.070312 C 307.675781 804.164062 545.53125 747.242188 550.609375 746.152344 C 555.6875 745.0625 558.949219 742.164062 553.511719 732.738281 C 548.070312 723.316406 236.449219 185.425781 236.449219 185.425781 C 233.574219 180.488281 234.394531 178.84375 226.578125 179.253906 C 219.609375 179.625 43.285156 195.355469 2.464844 198.765625 C 1.261719 207.394531 0.507812 216.085938 0.214844 224.792969 C 41.65625 309.632812 279.507812 800.171875 280.839844 804.164062 C 282.289062 808.519531 282.289062 809.96875 294.980469 807.070312 Z M 294.980469 807.070312 "/>
</g>
</svg>
