<?xml version="1.0" encoding="UTF-8"?>
<svg xmlns="http://www.w3.org/2000/svg" xmlns:xlink="http://www.w3.org/1999/xlink" width="px" height="px" viewBox="0 0 256 256" version="1.1">
<g id="surface1">
<path style=" stroke:none;fill-rule:nonzero;fill:rgb(29.019608%,52.54902%,77.254902%);fill-opacity:1;" d="M 3.949219 128 C 3.949219 59.5 59.5 3.949219 128 3.949219 C 196.5 3.949219 252.050781 59.5 252.050781 128 C 252.050781 196.5 196.5 252.050781 128 252.050781 C 59.5 252.050781 3.949219 196.5 3.949219 128 Z M 3.949219 128 "/>
<path style=" stroke:none;fill-rule:nonzero;fill:rgb(23.921569%,50.196078%,69.803922%);fill-opacity:1;" d="M 215.699219 40.300781 C 264.148438 88.75 264.148438 167.300781 215.699219 215.699219 C 167.25 264.148438 88.699219 264.148438 40.300781 215.699219 Z M 215.699219 40.300781 "/>
<path style=" stroke:none;fill-rule:nonzero;fill:rgb(29.019608%,52.54902%,77.254902%);fill-opacity:1;" d="M 246.148438 165.851562 C 246.601562 164.449219 247 163 247.398438 161.550781 C 247 163 246.601562 164.449219 246.148438 165.851562 Z M 246.148438 165.851562 "/>
<path style=" stroke:none;fill-rule:nonzero;fill:rgb(21.568627%,48.627451%,64.705882%);fill-opacity:1;" d="M 247.398438 161.550781 Z M 247.398438 161.550781 L 180.199219 94.351562 L 164.898438 109.648438 L 154.300781 99 L 145.449219 107.851562 L 93.5 55.898438 L 90.300781 54.648438 L 70.351562 74.601562 L 94.398438 98.648438 L 70.851562 122.199219 L 93.851562 145.199219 L 68.699219 170.351562 L 148.699219 250.25 C 194.75 242.5 232.199219 209.449219 246.148438 165.800781 C 246.601562 164.449219 247 163 247.398438 161.550781 Z M 247.398438 161.550781 "/>
<path style=" stroke:none;fill-rule:nonzero;fill:rgb(100%,100%,100%);fill-opacity:1;" d="M 191.648438 124.601562 L 191.648438 170.601562 L 165 170.601562 L 165 127.699219 C 165 116.898438 161.148438 109.550781 151.5 109.550781 C 144.148438 109.550781 139.75 114.5 137.800781 119.300781 C 137.101562 121 136.898438 123.398438 136.898438 125.800781 L 136.898438 170.601562 L 110.25 170.601562 C 110.25 170.601562 110.601562 97.898438 110.25 90.398438 L 136.898438 90.398438 L 136.898438 101.75 C 136.851562 101.851562 136.800781 101.949219 136.75 102 L 136.898438 102 L 136.898438 101.75 C 140.449219 96.300781 146.75 88.5 160.949219 88.5 C 178.5 88.5 191.648438 99.949219 191.648438 124.601562 Z M 82.351562 51.699219 C 73.25 51.699219 67.25 57.699219 67.25 65.550781 C 67.25 73.25 73.050781 79.398438 82 79.398438 L 82.199219 79.398438 C 91.5 79.398438 97.300781 73.25 97.300781 65.550781 C 97.050781 57.699219 91.449219 51.699219 82.351562 51.699219 Z M 68.800781 170.601562 L 95.5 170.601562 L 95.5 90.398438 L 68.851562 90.398438 L 68.851562 170.601562 Z M 68.800781 170.601562 "/>
</g>
</svg>
