<?xml version="1.0" encoding="UTF-8"?>
<svg xmlns="http://www.w3.org/2000/svg" xmlns:xlink="http://www.w3.org/1999/xlink" width="px" height="px" viewBox="0 0 400 400" version="1.1">
<g id="surface1">
<path style=" stroke:none;fill-rule:evenodd;fill:rgb(55.686275%,44.313725%,30.588235%);fill-opacity:1;" d="M 372.433594 190.207031 C 372.074219 190.277344 371.710938 191.070312 371.710938 191.503906 C 371.640625 194.386719 371.566406 202.027344 371.566406 207.21875 C 371.566406 207.363281 371.785156 207.652344 372 207.652344 C 373.082031 207.722656 375.675781 207.796875 377.910156 207.796875 C 381.011719 207.796875 382.8125 207.363281 383.824219 206.933594 C 386.417969 205.632812 387.644531 202.820312 387.644531 199.722656 C 387.644531 192.730469 382.742188 190.0625 375.460938 190.0625 C 374.957031 189.988281 373.515625 189.988281 372.433594 190.207031 Z M 391.035156 222.433594 C 391.035156 215.292969 385.769531 211.328125 376.253906 211.328125 C 375.820312 211.328125 372.792969 211.257812 372.070312 211.402344 C 371.855469 211.472656 371.566406 211.617188 371.566406 211.835938 C 371.566406 216.953125 371.496094 225.101562 371.710938 228.273438 C 371.855469 229.640625 372.867188 231.589844 374.089844 232.164062 C 375.386719 232.886719 378.34375 233.03125 380.363281 233.03125 C 386.058594 233.03125 391.035156 229.859375 391.035156 222.433594 Z M 357.726562 186.242188 C 358.445312 186.242188 360.609375 186.457031 366.160156 186.457031 C 371.421875 186.457031 375.605469 186.3125 380.722656 186.3125 C 386.996094 186.3125 395.648438 188.546875 395.648438 197.917969 C 395.648438 202.535156 392.402344 206.210938 388.148438 208.011719 C 387.933594 208.085938 387.933594 208.230469 388.148438 208.300781 C 394.203125 209.816406 399.539062 213.5625 399.539062 220.628906 C 399.539062 227.550781 395.214844 231.949219 388.941406 234.6875 C 385.121094 236.347656 380.363281 236.921875 375.53125 236.921875 C 371.855469 236.921875 361.980469 236.492188 356.5 236.636719 C 355.921875 236.417969 357.003906 233.824219 357.507812 233.390625 C 358.808594 233.316406 359.816406 233.246094 361.1875 232.8125 C 363.132812 232.308594 363.347656 231.730469 363.636719 228.777344 C 363.78125 226.253906 363.78125 217.3125 363.78125 210.96875 C 363.78125 202.246094 363.855469 196.332031 363.78125 193.449219 C 363.710938 191.214844 362.917969 190.492188 361.332031 190.0625 C 360.105469 189.84375 358.085938 189.554688 356.425781 189.339844 C 356.066406 188.980469 357.292969 186.527344 357.726562 186.242188 Z M 316.125 231.082031 C 317.855469 232.453125 321.246094 233.027344 324.273438 233.027344 C 328.167969 233.027344 332.058594 232.308594 335.808594 228.917969 C 339.628906 225.460938 342.296875 220.125 342.296875 211.617188 C 342.296875 203.46875 339.195312 196.835938 332.851562 192.945312 C 329.246094 190.710938 324.632812 189.773438 319.296875 189.773438 C 317.710938 189.773438 316.199219 189.84375 315.261719 190.277344 C 315.042969 190.421875 314.539062 191.070312 314.539062 191.429688 C 314.394531 192.871094 314.394531 203.976562 314.394531 210.464844 C 314.394531 217.167969 314.394531 226.542969 314.539062 227.621094 C 314.539062 228.703125 315.042969 230.363281 316.125 231.082031 Z M 299.761719 186.238281 C 301.128906 186.238281 306.394531 186.457031 308.917969 186.457031 C 313.460938 186.457031 316.703125 186.242188 325.28125 186.242188 C 332.492188 186.242188 338.546875 188.1875 342.875 191.863281 C 348.136719 196.40625 350.875 202.679688 350.875 210.320312 C 350.875 221.207031 345.902344 227.480469 340.925781 231.082031 C 335.953125 234.761719 329.464844 236.921875 320.234375 236.921875 C 315.332031 236.921875 306.898438 236.777344 299.90625 236.707031 L 299.832031 236.707031 C 299.472656 236.058594 300.410156 233.535156 300.984375 233.460938 C 302.859375 233.246094 303.367188 233.171875 304.304688 232.8125 C 305.816406 232.238281 306.105469 231.445312 306.320312 228.777344 C 306.539062 223.800781 306.464844 217.816406 306.464844 211.039062 C 306.464844 206.210938 306.539062 196.765625 306.394531 193.738281 C 306.175781 191.214844 305.097656 190.566406 302.933594 190.132812 C 301.851562 189.917969 300.410156 189.628906 298.390625 189.414062 C 298.101562 188.90625 299.398438 186.671875 299.761719 186.242188 Z M 299.761719 186.238281 "/>
<path style=" stroke:none;fill-rule:evenodd;fill:rgb(26.666667%,17.647059%,13.333333%);fill-opacity:1;" d="M 212.527344 233.894531 C 210.722656 233.679688 209.425781 233.390625 207.839844 232.667969 C 207.625 232.523438 207.261719 231.804688 207.261719 231.515625 C 207.117188 228.992188 207.117188 221.78125 207.117188 216.953125 C 207.117188 213.058594 206.46875 209.671875 204.8125 207.292969 C 202.863281 204.550781 200.054688 202.964844 196.449219 202.964844 C 193.277344 202.964844 189.023438 205.128906 185.488281 208.15625 C 185.417969 208.230469 184.839844 208.734375 184.914062 207.941406 C 184.914062 207.148438 185.058594 205.5625 185.128906 204.480469 C 185.203125 203.46875 184.625 202.964844 184.625 202.964844 C 182.316406 204.121094 175.828125 205.632812 173.449219 205.847656 C 171.71875 206.210938 171.289062 207.867188 173.089844 208.445312 L 173.164062 208.445312 C 175.109375 209.023438 176.40625 209.671875 177.414062 210.320312 C 178.136719 210.898438 178.0625 211.691406 178.0625 212.339844 C 178.136719 217.746094 178.136719 226.035156 177.921875 230.578125 C 177.847656 232.382812 177.34375 233.03125 176.046875 233.316406 L 176.191406 233.246094 C 175.179688 233.460938 174.386719 233.679688 173.160156 233.824219 C 172.730469 234.253906 172.730469 236.5625 173.160156 237.066406 C 173.953125 237.066406 178.136719 236.851562 181.597656 236.851562 C 186.355469 236.851562 188.808594 237.066406 190.03125 237.066406 C 190.535156 236.492188 190.679688 234.328125 190.394531 233.824219 C 189.023438 233.75 188.011719 233.605469 187.078125 233.316406 C 185.777344 233.027344 185.417969 232.382812 185.34375 230.867188 C 185.203125 227.046875 185.203125 218.972656 185.203125 213.492188 C 185.203125 211.976562 185.632812 211.257812 186.066406 210.824219 C 187.726562 209.382812 190.394531 208.375 192.773438 208.375 C 195.078125 208.375 196.59375 209.09375 197.746094 210.03125 C 199.332031 211.328125 199.835938 213.203125 200.054688 214.574219 C 200.414062 217.671875 200.269531 223.800781 200.269531 229.136719 C 200.269531 232.019531 200.054688 232.742188 198.972656 233.101562 C 198.46875 233.316406 197.167969 233.605469 195.65625 233.75 C 195.152344 234.253906 195.296875 236.492188 195.65625 236.996094 C 197.746094 236.996094 200.199219 236.777344 203.800781 236.777344 C 208.273438 236.777344 211.15625 236.996094 212.308594 236.996094 C 212.667969 236.5625 212.8125 234.472656 212.527344 233.894531 Z M 232.496094 206.355469 C 228.675781 206.355469 226.296875 209.3125 226.296875 213.925781 C 226.296875 218.609375 228.386719 224.019531 234.296875 224.019531 C 235.308594 224.019531 237.183594 223.585938 238.046875 222.574219 C 239.417969 221.277344 240.355469 218.683594 240.355469 215.941406 C 240.355469 209.960938 237.398438 206.355469 232.496094 206.355469 Z M 231.992188 238.21875 C 230.550781 238.21875 229.539062 238.652344 228.890625 239.015625 C 225.863281 240.960938 224.492188 242.835938 224.492188 245.070312 C 224.492188 247.160156 225.285156 248.816406 227.015625 250.261719 C 229.109375 252.0625 231.992188 252.929688 235.667969 252.929688 C 243.023438 252.929688 246.265625 248.960938 246.265625 245.070312 C 246.265625 242.328125 244.894531 240.527344 242.085938 239.519531 C 240.066406 238.652344 236.390625 238.21875 231.992188 238.21875 Z M 232.496094 256.964844 C 228.097656 256.964844 224.925781 256.027344 222.1875 253.9375 C 219.519531 251.917969 218.367188 248.890625 218.367188 246.800781 C 218.367188 246.222656 218.511719 244.636719 219.808594 243.195312 C 220.601562 242.328125 222.332031 240.671875 226.441406 237.859375 C 226.585938 237.789062 226.65625 237.714844 226.65625 237.570312 C 226.65625 237.425781 226.511719 237.28125 226.367188 237.210938 C 222.980469 235.914062 221.96875 233.824219 221.679688 232.667969 L 221.679688 232.523438 C 221.609375 232.09375 221.464844 231.660156 222.113281 231.226562 C 222.621094 230.867188 223.339844 230.433594 224.132812 229.929688 C 225.359375 229.207031 226.65625 228.414062 227.449219 227.765625 C 227.59375 227.621094 227.59375 227.480469 227.59375 227.335938 C 227.59375 227.191406 227.449219 227.046875 227.304688 226.972656 C 222.257812 225.316406 219.734375 221.566406 219.734375 215.941406 C 219.734375 212.265625 221.394531 208.949219 224.347656 206.859375 C 226.367188 205.273438 231.414062 203.328125 234.730469 203.328125 L 234.949219 203.328125 C 238.335938 203.398438 240.210938 204.121094 242.878906 205.058594 C 244.320312 205.5625 245.691406 205.777344 247.566406 205.777344 C 250.375 205.777344 251.601562 204.914062 252.609375 203.902344 C 252.683594 204.046875 252.828125 204.410156 252.898438 205.34375 C 252.972656 206.28125 252.683594 207.652344 251.960938 208.660156 C 251.386719 209.453125 250.085938 210.03125 248.789062 210.03125 L 248.429688 210.03125 C 247.132812 209.886719 246.554688 209.742188 246.554688 209.742188 L 246.265625 209.886719 C 246.195312 210.03125 246.265625 210.175781 246.339844 210.390625 L 246.410156 210.535156 C 246.554688 211.183594 246.84375 213.132812 246.84375 213.636719 C 246.84375 219.546875 244.464844 222.144531 241.941406 224.089844 C 239.488281 225.890625 236.679688 227.046875 233.503906 227.335938 C 233.433594 227.335938 233.144531 227.335938 232.496094 227.40625 C 232.136719 227.40625 231.632812 227.480469 231.558594 227.480469 L 231.488281 227.480469 C 230.910156 227.621094 229.46875 228.34375 229.46875 229.570312 C 229.46875 230.648438 230.117188 231.949219 233.21875 232.164062 C 233.867188 232.238281 234.515625 232.238281 235.234375 232.308594 C 239.34375 232.597656 244.464844 232.957031 246.84375 233.75 C 250.160156 234.976562 252.25 237.933594 252.25 241.464844 C 252.25 246.800781 248.429688 251.773438 242.085938 254.875 C 238.984375 256.246094 235.882812 256.964844 232.496094 256.964844 Z M 273.589844 206.714844 C 272.078125 206.714844 270.707031 207.074219 269.695312 207.796875 C 266.886719 209.527344 265.445312 212.988281 265.445312 218.035156 C 265.445312 227.480469 270.203125 234.113281 276.980469 234.113281 C 278.996094 234.113281 280.582031 233.535156 281.953125 232.382812 C 284.042969 230.648438 285.125 227.191406 285.125 222.359375 C 285.125 212.988281 280.4375 206.714844 273.589844 206.714844 Z M 274.886719 237.570312 C 262.632812 237.570312 258.234375 228.558594 258.234375 220.125 C 258.234375 214.214844 260.613281 209.671875 265.371094 206.425781 C 268.761719 204.335938 272.796875 203.183594 276.402344 203.183594 C 285.773438 203.183594 292.335938 209.886719 292.335938 219.546875 C 292.335938 226.109375 289.738281 231.300781 284.765625 234.472656 C 282.386719 236.058594 278.277344 237.570312 274.886719 237.570312 Z M 146.414062 206.714844 C 144.902344 206.714844 143.53125 207.074219 142.519531 207.796875 C 139.710938 209.527344 138.269531 212.988281 138.269531 218.035156 C 138.269531 227.480469 143.027344 234.113281 149.804688 234.113281 C 151.820312 234.113281 153.40625 233.535156 154.777344 232.382812 C 156.867188 230.648438 157.949219 227.191406 157.949219 222.359375 C 157.949219 212.988281 153.335938 206.714844 146.414062 206.714844 Z M 147.710938 237.570312 C 135.457031 237.570312 131.058594 228.558594 131.058594 220.125 C 131.058594 214.214844 133.4375 209.671875 138.195312 206.425781 C 141.585938 204.335938 145.621094 203.183594 149.226562 203.183594 C 158.597656 203.183594 165.160156 209.886719 165.160156 219.546875 C 165.160156 226.109375 162.5625 231.300781 157.589844 234.472656 C 155.28125 236.058594 151.171875 237.570312 147.710938 237.570312 Z M 65.308594 236.851562 C 65.164062 236.636719 65.019531 235.984375 65.089844 235.191406 C 65.089844 234.617188 65.234375 234.253906 65.308594 234.113281 C 66.820312 233.894531 67.613281 233.679688 68.480469 233.460938 C 69.921875 233.101562 70.5 232.308594 70.570312 230.507812 C 70.789062 226.179688 70.789062 217.960938 70.714844 212.265625 L 70.714844 212.121094 C 70.714844 211.472656 70.714844 210.679688 69.921875 210.101562 C 68.769531 209.382812 67.398438 208.734375 65.597656 208.226562 C 64.949219 208.011719 64.515625 207.652344 64.585938 207.21875 C 64.585938 206.789062 65.019531 206.28125 65.957031 206.136719 C 68.335938 205.921875 74.535156 204.410156 76.988281 203.328125 C 77.132812 203.46875 77.347656 203.902344 77.347656 204.480469 L 77.277344 205.273438 C 77.203125 206.066406 77.132812 207.003906 77.132812 207.941406 C 77.132812 208.230469 77.421875 208.445312 77.707031 208.445312 C 77.851562 208.445312 77.996094 208.375 78.140625 208.300781 C 82.753906 204.695312 86.9375 203.398438 89.097656 203.398438 C 92.632812 203.398438 95.371094 205.058594 97.460938 208.515625 C 97.605469 208.734375 97.75 208.804688 97.96875 208.804688 C 98.109375 208.804688 98.328125 208.734375 98.398438 208.589844 C 102.652344 205.34375 106.90625 203.398438 109.71875 203.398438 C 116.421875 203.398438 120.386719 208.375 120.386719 216.808594 C 120.386719 219.1875 120.386719 222.289062 120.316406 225.101562 C 120.316406 227.621094 120.246094 229.929688 120.246094 231.589844 C 120.246094 231.949219 120.75 233.101562 121.542969 233.316406 C 122.550781 233.824219 123.921875 234.039062 125.722656 234.328125 L 125.796875 234.328125 C 125.941406 234.832031 125.652344 236.707031 125.363281 237.066406 C 124.929688 237.066406 124.28125 237.066406 123.5625 236.996094 C 121.734375 236.898438 119.910156 236.851562 118.082031 236.851562 C 113.613281 236.851562 111.304688 236.921875 109.070312 237.066406 C 108.925781 236.492188 108.851562 234.761719 109.070312 234.328125 C 110.367188 234.113281 111.015625 233.894531 111.808594 233.679688 C 113.25 233.246094 113.613281 232.597656 113.683594 230.722656 C 113.683594 229.351562 113.972656 217.671875 113.539062 214.863281 C 113.105469 211.976562 110.945312 208.589844 106.183594 208.589844 C 104.382812 208.589844 101.570312 209.3125 98.832031 211.402344 C 98.6875 211.546875 98.542969 211.90625 98.542969 212.121094 L 98.542969 212.195312 C 98.832031 213.707031 98.832031 215.4375 98.832031 218.105469 L 98.832031 222.792969 C 98.832031 226.035156 98.757812 229.066406 98.832031 231.371094 C 98.832031 232.957031 99.769531 233.316406 100.5625 233.605469 C 100.996094 233.679688 101.28125 233.75 101.644531 233.824219 C 102.292969 233.96875 102.941406 234.113281 103.949219 234.328125 C 104.09375 234.617188 104.09375 235.554688 103.878906 236.347656 C 103.804688 236.777344 103.660156 236.996094 103.589844 237.066406 C 101.140625 236.996094 98.617188 236.921875 94.9375 236.921875 C 93.859375 236.921875 91.984375 236.996094 90.398438 236.996094 C 89.097656 236.996094 87.875 237.066406 87.152344 237.066406 C 87.082031 236.921875 86.9375 236.417969 86.9375 235.625 C 86.9375 234.976562 87.082031 234.472656 87.226562 234.328125 C 87.585938 234.253906 87.875 234.183594 88.234375 234.183594 C 89.097656 234.039062 89.820312 233.894531 90.539062 233.75 C 91.765625 233.390625 92.199219 232.742188 92.269531 231.15625 C 92.488281 227.550781 92.703125 217.242188 92.199219 214.644531 C 91.335938 210.464844 88.957031 208.375 85.132812 208.375 C 82.898438 208.375 80.085938 209.453125 77.78125 211.1875 C 77.417969 211.472656 77.132812 212.195312 77.132812 212.84375 L 77.132812 217.097656 C 77.132812 222.289062 77.132812 228.777344 77.203125 231.589844 C 77.277344 232.453125 77.5625 233.460938 79.222656 233.824219 C 79.582031 233.894531 80.160156 234.039062 80.878906 234.113281 L 82.175781 234.328125 C 82.324219 234.761719 82.25 236.492188 81.960938 237.066406 C 81.242188 237.066406 80.375 236.996094 79.367188 236.996094 C 77.851562 236.921875 75.90625 236.851562 73.742188 236.851562 C 71.21875 236.851562 69.417969 236.921875 67.976562 236.996094 C 66.964844 236.851562 66.171875 236.851562 65.308594 236.851562 Z M 65.308594 236.851562 "/>
<path style=" stroke:none;fill-rule:evenodd;fill:rgb(100%,100%,100%);fill-opacity:1;" d="M 27.386719 254.152344 L 24.429688 253.144531 C 24.429688 253.144531 24.789062 238.078125 19.382812 236.996094 C 15.777344 232.8125 19.960938 59.640625 32.9375 236.417969 C 32.9375 236.417969 28.46875 238.652344 27.675781 242.472656 C 26.808594 246.222656 27.386719 254.152344 27.386719 254.152344 Z M 27.386719 254.152344 "/>
<path style=" stroke:none;fill-rule:evenodd;fill:rgb(65.098039%,63.921569%,52.156863%);fill-opacity:1;" d="M 27.386719 254.152344 L 24.429688 253.144531 C 24.429688 253.144531 24.789062 238.078125 19.382812 236.996094 C 15.777344 232.8125 19.960938 59.640625 32.9375 236.417969 C 32.9375 236.417969 28.46875 238.652344 27.675781 242.472656 C 26.808594 246.222656 27.386719 254.152344 27.386719 254.152344 Z M 27.386719 254.152344 "/>
<path style=" stroke:none;fill-rule:evenodd;fill:rgb(100%,100%,100%);fill-opacity:1;" d="M 28.972656 239.589844 C 28.972656 239.589844 54.855469 222.574219 48.796875 187.175781 C 42.957031 161.441406 29.1875 153.003906 27.675781 149.761719 C 26.015625 147.453125 24.429688 143.417969 24.429688 143.417969 L 25.511719 215.003906 C 25.511719 215.078125 23.277344 236.921875 28.972656 239.589844 "/>
<path style=" stroke:none;fill-rule:evenodd;fill:rgb(28.627451%,61.568627%,29.019608%);fill-opacity:1;" d="M 28.972656 239.589844 C 28.972656 239.589844 54.855469 222.574219 48.796875 187.175781 C 42.957031 161.441406 29.1875 153.003906 27.675781 149.761719 C 26.015625 147.453125 24.429688 143.417969 24.429688 143.417969 L 25.511719 215.003906 C 25.511719 215.078125 23.277344 236.921875 28.972656 239.589844 "/>
<path style=" stroke:none;fill-rule:evenodd;fill:rgb(100%,100%,100%);fill-opacity:1;" d="M 22.917969 240.527344 C 22.917969 240.527344 -1.378906 223.945312 0.0625 194.746094 C 1.429688 165.550781 18.589844 151.203125 21.90625 148.605469 C 24.070312 146.300781 24.140625 145.433594 24.285156 143.128906 C 25.800781 146.371094 25.511719 191.648438 25.726562 196.980469 C 26.375 217.527344 24.574219 236.636719 22.917969 240.527344 Z M 22.917969 240.527344 "/>
<path style=" stroke:none;fill-rule:evenodd;fill:rgb(34.509804%,66.666667%,31.372549%);fill-opacity:1;" d="M 22.917969 240.527344 C 22.917969 240.527344 -1.378906 223.945312 0.0625 194.746094 C 1.429688 165.550781 18.589844 151.203125 21.90625 148.605469 C 24.070312 146.300781 24.140625 145.433594 24.285156 143.128906 C 25.800781 146.371094 25.511719 191.648438 25.726562 196.980469 C 26.375 217.527344 24.574219 236.636719 22.917969 240.527344 Z M 22.917969 240.527344 "/>
</g>
</svg>
