<?xml version="1.0" encoding="UTF-8"?>
<svg xmlns="http://www.w3.org/2000/svg" xmlns:xlink="http://www.w3.org/1999/xlink" width="px" height="px" viewBox="0 0 400 400" version="1.1">
<defs>
<linearGradient id="linear0" gradientUnits="userSpaceOnUse" x1="-134.514" y1="-206.113" x2="-134.455" y2="-206.235" gradientTransform="matrix(3095.45,0,0,-1922.0625,416486.85,-396083.8)">
<stop offset="0" style="stop-color:rgb(54.117647%,62.352941%,87.843137%);stop-opacity:1;"/>
<stop offset="0.588" style="stop-color:rgb(44.313725%,50.980392%,72.156863%);stop-opacity:1;"/>
<stop offset="1" style="stop-color:rgb(34.117647%,39.215686%,56.470588%);stop-opacity:1;"/>
</linearGradient>
</defs>
<g id="surface1">
<path style=" stroke:none;fill-rule:nonzero;fill:rgb(80%,80%,80%);fill-opacity:1;" d="M 181.074219 254.761719 C 182.066406 267.808594 181.871094 280.914062 180.5 293.925781 C 180.382812 297.644531 178.292969 301.023438 175.011719 302.789062 C 164.625 310.5 129.8125 312.351562 125.476562 295.960938 C 123.875 295.898438 125.148438 290.601562 123.625 290.800781 C 117.449219 290.292969 111.882812 286.882812 108.625 281.613281 C 108.6875 263.6875 110.664062 199.023438 78.625 216.4375 C 71.664062 220.316406 66.441406 226.707031 64.023438 234.300781 C 61.867188 240.925781 60.851562 247.871094 61.023438 254.835938 C 60.773438 263.761719 63 273.523438 63.324219 284.238281 C 63.449219 289.023438 64.210938 290.238281 60.648438 294.3125 C 54.914062 300.875 44.898438 295.335938 39.488281 288.125 C 37.199219 284.492188 35.941406 280.304688 35.851562 276.011719 C 31.546875 229.1875 35.78125 181.972656 48.351562 136.664062 C 52.9375 121.289062 54.539062 119.0625 69.136719 115.613281 C 85.75 111.957031 102.835938 110.945312 119.761719 112.613281 C 132.898438 108.335938 164.074219 85.1875 177.523438 103.5625 C 218.753906 94.410156 261.933594 102.296875 297.261719 125.4375 C 314.976562 126.777344 332.75 127.097656 350.5 126.398438 C 353 124.800781 355.925781 123.085938 358.476562 121.613281 C 360.347656 120.34375 362.449219 119.457031 364.664062 119 C 367.539062 118.550781 371.289062 118.425781 372.164062 122 C 372.921875 125.667969 373.179688 129.425781 372.925781 133.164062 C 372.746094 137.800781 369.429688 141.71875 364.886719 142.664062 C 359.898438 141.84375 355.058594 140.277344 350.539062 138.011719 C 334.289062 138.460938 324.289062 137.5625 308.039062 138.011719 C 310.648438 140.8125 310.539062 142.664062 312.4375 146.363281 C 321.921875 171.324219 318.285156 199.378906 302.75 221.101562 C 301.601562 239.726562 303 258.539062 303.136719 277.226562 C 303.199219 283.664062 303.648438 289.789062 297.585938 294.0625 C 286.75 300.558594 273.515625 301.667969 261.75 297.0625 C 258.585938 295.246094 255.761719 292.894531 253.398438 290.113281 C 251.324219 290.339844 249.234375 290.382812 247.148438 290.238281 C 243.609375 289.246094 240.546875 287.003906 238.539062 283.925781 C 237.386719 281.820312 236.402344 279.625 235.601562 277.363281 C 235.601562 268.613281 235.273438 265.1875 235.273438 256.449219 C 217.253906 259.675781 198.761719 259.15625 180.949219 254.925781 Z M 181.074219 254.761719 "/>
<path style=" stroke:none;fill-rule:nonzero;fill:rgb(80%,80%,80%);fill-opacity:1;" d="M 151.1875 310.488281 C 146.023438 310.5625 140.882812 309.789062 135.976562 308.1875 C 130.449219 306.703125 125.945312 302.703125 123.824219 297.386719 C 122.914062 296.253906 122.46875 294.8125 122.574219 293.363281 L 122.574219 292.800781 C 116.148438 291.835938 110.449219 288.140625 106.949219 282.664062 L 106.648438 282.175781 L 106.648438 278.925781 C 106.761719 264.148438 107.050781 224.886719 93.726562 216.898438 C 89.15625 214.679688 83.734375 215.160156 79.625 218.148438 C 73.058594 221.808594 68.136719 227.84375 65.875 235.011719 C 63.8125 241.421875 62.851562 248.132812 63.023438 254.863281 C 63.027344 259.882812 63.378906 264.894531 64.085938 269.863281 C 64.625 274.4375 65.175781 279.1875 65.335938 284.175781 C 65.335938 284.914062 65.335938 285.550781 65.425781 286.125 C 66.003906 289.636719 64.78125 293.203125 62.175781 295.625 C 60.117188 298.054688 57.042969 299.386719 53.863281 299.226562 C 47.382812 298.328125 41.589844 294.734375 37.914062 289.324219 C 35.347656 285.410156 33.953125 280.84375 33.886719 276.164062 C 29.527344 229.09375 33.796875 181.625 46.488281 136.085938 C 51.175781 120.398438 53.238281 117.335938 68.726562 113.675781 C 85.410156 110.003906 102.566406 108.960938 119.574219 110.585938 C 123.3125 109.132812 126.964844 107.460938 130.511719 105.585938 C 145.914062 97.886719 166.886719 87.425781 178.398438 101.414062 C 219.613281 92.519531 262.675781 100.476562 297.988281 123.511719 C 315.292969 124.8125 332.660156 125.113281 350 124.414062 C 352.5 122.875 355.148438 121.273438 357.574219 119.875 L 358.273438 119.476562 C 360.148438 118.246094 362.246094 117.394531 364.449219 116.976562 C 370 116.113281 373.199219 117.636719 374.164062 121.488281 C 374.964844 125.34375 375.238281 129.292969 374.976562 133.226562 C 374.714844 138.847656 370.621094 143.554688 365.085938 144.585938 L 364.761719 144.585938 L 364.449219 144.5 C 363.386719 144.226562 362.3125 143.976562 361.199219 143.726562 C 357.300781 143.058594 353.523438 141.800781 350 140 C 342.085938 140.199219 335.5625 140.085938 329.261719 140 C 323.851562 139.914062 318.289062 139.8125 311.835938 139.914062 C 312.238281 140.699219 312.523438 141.460938 312.835938 142.238281 C 313.242188 143.328125 313.710938 144.398438 314.238281 145.4375 C 324.085938 170.945312 320.515625 199.691406 304.726562 222.011719 C 304.023438 234.085938 304.386719 246.476562 304.726562 258.460938 C 304.914062 264.601562 305.101562 270.960938 305.136719 277.210938 L 305.136719 278.289062 C 306.363281 284.828125 303.902344 291.515625 298.726562 295.699219 C 287.339844 302.628906 273.367188 303.820312 260.976562 298.914062 C 258.285156 297.582031 255.886719 295.722656 253.925781 293.449219 C 253.488281 293 253.050781 292.550781 252.601562 292.125 C 251.988281 292.125 251.351562 292.199219 250.789062 292.261719 C 249.417969 292.476562 248.023438 292.453125 246.664062 292.1875 C 242.640625 291.074219 239.164062 288.539062 236.875 285.050781 C 235.996094 283.628906 235.277344 282.117188 234.738281 280.539062 C 234.449219 279.773438 234.148438 279 233.789062 278.1875 L 233.613281 277.800781 L 233.613281 277.375 C 233.613281 273.039062 233.539062 269.949219 233.449219 266.976562 C 233.386719 264.476562 233.324219 261.976562 233.300781 258.738281 C 216.707031 261.46875 199.75 261.078125 183.300781 257.585938 C 184.050781 269.800781 183.78125 282.054688 182.488281 294.226562 C 182.296875 298.464844 179.933594 302.304688 176.238281 304.386719 C 168.621094 308.722656 159.945312 310.835938 151.1875 310.488281 Z M 126.574219 294.011719 L 127.023438 294.011719 L 127.398438 295.4375 C 128.9375 299.929688 132.667969 303.316406 137.289062 304.414062 C 149.421875 308.113281 162.519531 306.949219 173.8125 301.175781 C 176.640625 299.734375 178.445312 296.847656 178.5 293.675781 C 179.804688 281.316406 180.035156 268.871094 179.1875 256.476562 L 178.125 256.175781 L 182.5 247.5 L 183.011719 253.289062 C 200.140625 257.074219 217.851562 257.449219 235.125 254.386719 L 237.386719 254.085938 L 237.386719 256.363281 C 237.386719 260.699219 237.460938 263.789062 237.550781 266.761719 C 237.636719 269.738281 237.699219 272.675781 237.710938 276.851562 C 238.023438 277.585938 238.300781 278.300781 238.574219 278.988281 C 239.015625 280.296875 239.597656 281.554688 240.3125 282.738281 C 242.0625 285.417969 244.730469 287.375 247.8125 288.238281 C 248.707031 288.371094 249.617188 288.371094 250.511719 288.238281 C 251.523438 288.117188 252.542969 288.0625 253.5625 288.074219 L 254.3125 288.074219 L 254.863281 288.585938 C 255.539062 289.210938 256.210938 289.898438 256.886719 290.585938 C 258.492188 292.46875 260.445312 294.023438 262.636719 295.164062 C 273.765625 299.503906 286.273438 298.46875 296.539062 292.363281 C 301.386719 288.9375 301.324219 284.238281 301.25 278.273438 L 301.25 277.1875 C 301.25 270.9375 301.023438 264.6875 300.835938 258.539062 C 300.476562 246.199219 300.101562 233.4375 300.835938 220.925781 L 300.835938 220.101562 L 301.460938 219.550781 C 316.429688 198.503906 319.894531 171.371094 310.699219 147.238281 C 310.105469 146.074219 309.582031 144.875 309.125 143.648438 C 308.621094 142.042969 307.769531 140.5625 306.625 139.324219 L 303.613281 136.085938 L 308.023438 135.960938 C 316.199219 135.738281 322.875 135.851562 329.351562 135.960938 C 335.824219 136.074219 342.414062 136.1875 350.488281 135.960938 L 351.074219 135.960938 L 351.574219 136.273438 C 354.832031 138.039062 358.359375 139.261719 362.011719 139.886719 C 363.039062 140.125 364.050781 140.351562 365.039062 140.601562 C 368.40625 139.550781 370.757812 136.511719 370.925781 132.988281 C 371.164062 129.441406 370.917969 125.878906 370.199219 122.398438 C 370.023438 121.636719 369.6875 120.199219 365 120.9375 C 363.285156 121.273438 361.65625 121.945312 360.199219 122.914062 L 359.5 123.3125 C 357 124.738281 354.136719 126.476562 351.613281 128.050781 L 351.148438 128.335938 L 350.613281 128.335938 C 332.785156 129.066406 314.929688 128.746094 297.136719 127.375 L 296.613281 127.375 L 296.175781 127.074219 C 261.289062 104.199219 218.628906 96.421875 177.914062 105.511719 L 176.664062 105.738281 L 175.925781 104.738281 C 166.585938 91.988281 146.75 101.898438 132.261719 109.136719 C 128.425781 111.1875 124.460938 112.984375 120.386719 114.511719 L 119.988281 114.636719 L 119.574219 114.636719 C 102.855469 112.988281 85.984375 113.984375 69.574219 117.585938 C 55.5625 120.886719 54.574219 122.585938 50.238281 137.261719 C 37.667969 182.324219 33.433594 229.304688 37.738281 275.886719 C 37.765625 279.800781 38.882812 283.625 40.960938 286.9375 C 43.9375 291.371094 48.609375 294.382812 53.875 295.261719 C 55.851562 295.378906 57.769531 294.546875 59.039062 293.023438 C 60.953125 291.390625 61.824219 288.839844 61.3125 286.375 C 61.3125 285.761719 61.238281 285.125 61.226562 284.324219 C 61.085938 279.5 60.539062 274.851562 59.976562 270.351562 C 59.242188 265.203125 58.878906 260.011719 58.886719 254.8125 C 58.703125 247.601562 59.765625 240.414062 62.023438 233.5625 C 64.625 225.542969 70.160156 218.804688 77.523438 214.699219 C 82.84375 210.964844 89.792969 210.484375 95.574219 213.449219 C 110.863281 222.613281 110.574219 262.074219 110.449219 278.925781 L 110.449219 281.011719 C 113.347656 285.402344 118.066406 288.257812 123.300781 288.789062 C 123.976562 288.710938 124.652344 288.914062 125.175781 289.351562 C 126.089844 290.375 126.542969 291.730469 126.425781 293.101562 C 126.539062 293.386719 126.550781 293.75 126.574219 294.011719 Z M 123.875 292.761719 Z M 123.875 292.761719 "/>
<path style=" stroke:none;fill-rule:nonzero;fill:rgb(21.568627%,20.392157%,20.784314%);fill-opacity:1;" d="M 173.636719 249.761719 C 174.628906 262.808594 174.433594 275.914062 173.0625 288.925781 C 172.945312 292.644531 170.855469 296.023438 167.574219 297.789062 C 157.1875 305.5 122.375 307.351562 118.039062 290.960938 C 116.4375 290.898438 117.710938 285.601562 116.1875 285.800781 C 110.011719 285.292969 104.445312 281.882812 101.1875 276.613281 C 101.25 258.6875 103.226562 194.023438 71.1875 211.4375 C 64.226562 215.316406 59.003906 221.707031 56.585938 229.300781 C 54.429688 235.925781 53.414062 242.871094 53.585938 249.835938 C 53.335938 258.761719 55.5625 268.523438 55.886719 279.238281 C 56.011719 284.023438 56.773438 285.238281 53.210938 289.3125 C 47.476562 295.875 37.460938 290.335938 32.050781 283.125 C 29.761719 279.492188 28.503906 275.304688 28.414062 271.011719 C 24.109375 224.1875 28.34375 176.972656 40.914062 131.664062 C 45.5 116.289062 47.101562 114.0625 61.699219 110.613281 C 78.3125 106.957031 95.398438 105.945312 112.324219 107.613281 C 125.460938 103.335938 156.636719 80.1875 170.085938 98.5625 C 211.316406 89.410156 254.496094 97.296875 289.824219 120.4375 C 307.539062 121.777344 325.3125 122.097656 343.0625 121.398438 C 345.5625 119.800781 348.488281 118.085938 351.039062 116.613281 C 352.910156 115.34375 355.011719 114.457031 357.226562 114 C 360.101562 113.550781 363.851562 113.425781 364.726562 117 C 365.484375 120.667969 365.742188 124.425781 365.488281 128.164062 C 365.308594 132.800781 361.992188 136.71875 357.449219 137.664062 C 352.460938 136.84375 347.621094 135.277344 343.101562 133.011719 C 326.851562 133.460938 316.851562 132.5625 300.601562 133.011719 C 303.210938 135.8125 303.101562 137.664062 305 141.363281 C 314.484375 166.324219 310.847656 194.378906 295.3125 216.101562 C 294.164062 234.726562 295.5625 253.539062 295.699219 272.226562 C 295.761719 278.664062 296.210938 284.789062 290.148438 289.0625 C 279.3125 295.558594 266.078125 296.667969 254.3125 292.0625 C 251.148438 290.246094 248.324219 287.894531 245.960938 285.113281 C 243.886719 285.339844 241.796875 285.382812 239.710938 285.238281 C 236.171875 284.246094 233.109375 282.003906 231.101562 278.925781 C 229.949219 276.820312 228.964844 274.625 228.164062 272.363281 C 228.164062 263.613281 227.835938 260.1875 227.835938 251.449219 C 209.816406 254.675781 191.324219 254.15625 173.511719 249.925781 Z M 173.636719 249.761719 "/>
<path style=" stroke:none;fill-rule:nonzero;fill:rgb(21.568627%,20.392157%,20.784314%);fill-opacity:1;" d="M 143.75 305.488281 C 138.585938 305.5625 133.445312 304.789062 128.539062 303.1875 C 123.011719 301.703125 118.507812 297.703125 116.386719 292.386719 C 115.476562 291.253906 115.03125 289.8125 115.136719 288.363281 L 115.136719 287.800781 C 108.710938 286.835938 103.011719 283.140625 99.511719 277.664062 L 99.210938 277.175781 L 99.210938 273.925781 C 99.324219 259.148438 99.613281 219.886719 86.289062 211.898438 C 81.71875 209.679688 76.296875 210.160156 72.1875 213.148438 C 65.621094 216.808594 60.699219 222.84375 58.4375 230.011719 C 56.375 236.421875 55.414062 243.132812 55.585938 249.863281 C 55.585938 254.882812 55.941406 259.894531 56.648438 264.863281 C 57.1875 269.449219 57.738281 274.1875 57.898438 279.1875 C 57.898438 279.925781 57.898438 280.5625 57.988281 281.136719 C 58.566406 284.648438 57.34375 288.214844 54.738281 290.636719 C 52.679688 293.070312 49.605469 294.402344 46.425781 294.238281 C 39.945312 293.34375 34.152344 289.746094 30.476562 284.335938 C 27.910156 280.421875 26.515625 275.855469 26.449219 271.175781 C 22.089844 224.101562 26.359375 176.628906 39.050781 131.085938 C 43.738281 115.398438 45.800781 112.335938 61.289062 108.675781 C 77.972656 105.003906 95.128906 103.960938 112.136719 105.585938 C 115.875 104.132812 119.527344 102.460938 123.074219 100.585938 C 138.476562 92.886719 159.449219 82.414062 170.960938 96.414062 C 212.179688 87.523438 255.238281 95.484375 290.550781 118.523438 C 307.835938 119.832031 325.179688 120.140625 342.5 119.449219 C 344.9375 117.9375 347.664062 116.300781 350.074219 114.914062 L 350.773438 114.511719 C 352.648438 113.28125 354.746094 112.433594 356.949219 112.011719 C 362.5 111.148438 365.699219 112.675781 366.664062 116.523438 C 367.464844 120.382812 367.738281 124.332031 367.476562 128.261719 C 367.214844 133.886719 363.121094 138.59375 357.585938 139.625 L 357.261719 139.625 L 356.949219 139.539062 C 355.886719 139.261719 354.8125 139.011719 353.699219 138.761719 C 349.828125 138.078125 346.082031 136.8125 342.585938 135.011719 C 334.675781 135.210938 328.148438 135.101562 321.851562 135.011719 C 316.4375 134.925781 310.875 134.824219 304.425781 134.925781 C 304.824219 135.710938 305.113281 136.476562 305.425781 137.25 C 305.832031 138.34375 306.296875 139.410156 306.824219 140.449219 C 316.671875 165.957031 313.101562 194.703125 297.3125 217.023438 C 296.613281 229.101562 296.976562 241.488281 297.3125 253.460938 C 297.488281 259.613281 297.675781 265.960938 297.726562 272.210938 L 297.726562 273.289062 C 298.953125 279.828125 296.496094 286.511719 291.324219 290.699219 C 279.941406 297.628906 265.964844 298.820312 253.574219 293.914062 C 250.882812 292.582031 248.488281 290.722656 246.523438 288.449219 C 246.085938 288 245.648438 287.550781 245.199219 287.125 C 244.585938 287.125 243.949219 287.199219 243.386719 287.261719 C 242.019531 287.476562 240.621094 287.453125 239.261719 287.1875 C 235.242188 286.074219 231.761719 283.539062 229.476562 280.050781 C 228.59375 278.632812 227.878906 277.117188 227.335938 275.539062 C 227.050781 274.773438 226.75 274 226.386719 273.1875 L 226.210938 272.800781 L 226.210938 272.375 C 226.210938 268.039062 226.136719 264.949219 226.050781 261.976562 C 225.988281 259.476562 225.914062 256.976562 225.898438 253.738281 C 209.308594 256.464844 192.351562 256.078125 175.898438 252.585938 C 176.621094 264.792969 176.320312 277.035156 175 289.1875 C 174.808594 293.425781 172.445312 297.265625 168.75 299.351562 C 161.152344 303.691406 152.492188 305.816406 143.75 305.488281 Z M 119.136719 289.011719 L 119.585938 289.011719 L 119.960938 290.4375 C 121.5 294.929688 125.230469 298.316406 129.851562 299.414062 C 141.984375 303.113281 155.082031 301.953125 166.375 296.175781 C 169.203125 294.734375 171.007812 291.847656 171.0625 288.675781 C 172.367188 276.316406 172.597656 263.871094 171.75 251.476562 L 170.6875 251.175781 L 175 242.5625 L 175.511719 248.351562 C 192.640625 252.136719 210.351562 252.511719 227.625 249.449219 L 229.886719 249.148438 L 229.886719 251.425781 C 229.886719 255.761719 229.960938 258.851562 230.050781 261.824219 C 230.136719 264.800781 230.199219 267.738281 230.210938 271.914062 C 230.523438 272.648438 230.800781 273.363281 231.074219 274.0625 C 231.515625 275.371094 232.097656 276.628906 232.8125 277.8125 C 234.5625 280.496094 237.230469 282.449219 240.3125 283.3125 C 241.207031 283.449219 242.117188 283.449219 243.011719 283.3125 C 244.023438 283.191406 245.042969 283.136719 246.0625 283.148438 L 246.8125 283.148438 L 247.363281 283.664062 C 248.039062 284.289062 248.710938 284.914062 249.386719 285.664062 C 250.992188 287.542969 252.945312 289.097656 255.136719 290.238281 C 266.265625 294.578125 278.773438 293.546875 289.039062 287.4375 C 293.886719 284.011719 293.824219 279.3125 293.75 273.351562 L 293.75 272.261719 C 293.75 266.011719 293.523438 259.761719 293.335938 253.601562 C 292.976562 241.261719 292.601562 228.511719 293.335938 216 L 293.335938 215.175781 L 293.960938 214.625 C 308.925781 193.578125 312.390625 166.445312 303.199219 142.3125 C 302.605469 141.148438 302.082031 139.949219 301.625 138.726562 C 301.121094 137.117188 300.269531 135.640625 299.125 134.398438 L 296.113281 131.164062 L 300.523438 131.039062 C 308.699219 130.8125 315.375 130.925781 321.851562 131.039062 C 328.324219 131.148438 334.914062 131.261719 342.988281 131.039062 L 343.574219 131.039062 L 344.074219 131.351562 C 347.332031 133.117188 350.859375 134.335938 354.511719 134.960938 C 355.539062 135.199219 356.550781 135.425781 357.539062 135.675781 C 360.90625 134.628906 363.257812 131.585938 363.425781 128.0625 C 363.664062 124.515625 363.417969 120.957031 362.699219 117.476562 C 362.523438 116.710938 362.1875 115.289062 357.5 116.011719 C 355.785156 116.347656 354.15625 117.019531 352.699219 117.988281 L 351.988281 118.386719 C 349.488281 119.824219 346.601562 121.5625 344.101562 123.125 L 343.75 123.375 L 343.210938 123.375 C 325.382812 124.105469 307.527344 123.78125 289.738281 122.414062 L 289.210938 122.414062 L 288.75 122.085938 C 253.863281 99.210938 211.203125 91.433594 170.488281 100.523438 L 169.238281 100.75 L 168.5 99.75 C 159.164062 87 139.324219 96.914062 124.835938 104.148438 C 121.003906 106.203125 117.035156 107.996094 112.960938 109.523438 L 112.5625 109.648438 L 112.148438 109.648438 C 95.433594 108 78.558594 108.996094 62.148438 112.601562 C 48.136719 115.898438 47.148438 117.601562 42.8125 132.273438 C 30.246094 177.335938 26.007812 224.316406 30.3125 270.898438 C 30.339844 274.8125 31.457031 278.636719 33.539062 281.949219 C 36.511719 286.386719 41.183594 289.398438 46.449219 290.273438 C 48.429688 290.402344 50.351562 289.570312 51.613281 288.039062 C 53.527344 286.402344 54.398438 283.851562 53.886719 281.386719 C 53.886719 280.773438 53.8125 280.136719 53.800781 279.335938 C 53.664062 274.511719 53.113281 269.863281 52.550781 265.363281 C 51.820312 260.214844 51.453125 255.023438 51.460938 249.824219 C 51.28125 242.613281 52.339844 235.425781 54.601562 228.574219 C 57.199219 220.554688 62.738281 213.816406 70.101562 209.710938 C 75.417969 205.976562 82.367188 205.496094 88.148438 208.460938 C 103.4375 217.625 103.148438 257.085938 103.023438 273.9375 L 103.023438 276.023438 C 105.960938 280.429688 110.730469 283.269531 116 283.75 C 116.675781 283.675781 117.351562 283.878906 117.875 284.3125 C 118.789062 285.335938 119.242188 286.695312 119.125 288.0625 C 119.101562 288.386719 119.113281 288.75 119.136719 289.011719 Z M 116.4375 287.761719 Z M 116.4375 287.761719 "/>
<path style=" stroke:none;fill-rule:nonzero;fill:rgb(41.176471%,47.058824%,67.058824%);fill-opacity:1;" d="M 232.148438 249.324219 C 236.160156 248.9375 240.121094 248.148438 243.976562 246.960938 C 245.910156 258.308594 246.484375 269.84375 245.6875 281.324219 C 239.71875 281.703125 234.113281 278.425781 231.511719 273.039062 C 230.867188 265.132812 231.082031 257.183594 232.148438 249.324219 Z M 232.148438 249.324219 "/>
<path style=" stroke:none;fill-rule:nonzero;fill:rgb(21.568627%,20.392157%,20.784314%);fill-opacity:1;" d="M 245.273438 283.324219 C 238.703125 283.546875 232.617188 279.878906 229.75 273.960938 L 229.5625 273.613281 L 229.5625 273.210938 C 228.910156 265.164062 229.128906 257.066406 230.210938 249.0625 L 230.414062 247.511719 L 231.960938 247.335938 C 235.839844 246.960938 239.671875 246.199219 243.398438 245.0625 L 245.449219 244.398438 L 245.949219 246.5 C 247.832031 256.734375 248.449219 267.164062 247.789062 277.550781 L 247.6875 283.289062 L 245.761719 283.289062 Z M 233.476562 272.449219 C 235.460938 276.367188 239.359375 278.953125 243.738281 279.261719 L 243.738281 277.460938 C 244.273438 268.121094 243.855469 258.746094 242.488281 249.488281 C 239.683594 250.226562 236.828125 250.769531 233.949219 251.113281 C 233.078125 258.207031 232.914062 265.371094 233.460938 272.5 Z M 233.476562 272.449219 "/>
<path style=" stroke:none;fill-rule:nonzero;fill:url(#linear0);" d="M 50.648438 283.539062 C 47.835938 265.113281 44.976562 232.601562 58.148438 217.101562 C 59.191406 215.695312 60.320312 214.355469 61.523438 213.085938 C 82.3125 193.511719 100.425781 210.351562 105.335938 232.023438 C 106.378906 245.730469 106.589844 259.484375 105.976562 273.210938 C 108.484375 278.09375 113.636719 281.03125 119.113281 280.710938 C 121.023438 284.664062 120.511719 287.601562 122.6875 290.210938 C 131.132812 299.691406 144.46875 303.117188 156.4375 298.886719 C 160.351562 297.226562 164.164062 295.332031 167.851562 293.210938 C 170.835938 276.445312 170.410156 259.25 166.601562 242.648438 C 166.601562 240.351562 165.835938 238.824219 165.835938 236.523438 C 167.269531 236.730469 168.613281 237.328125 169.726562 238.25 C 167.226562 247.425781 201.675781 253.738281 241.863281 242.648438 C 242.3125 241.050781 241.539062 239.074219 242.5 238.5 C 243.757812 237.710938 245.300781 237.523438 246.710938 237.988281 C 246.898438 240.925781 246.960938 243.789062 247.164062 246.738281 C 250.277344 247.03125 253.414062 247.074219 256.539062 246.863281 C 254.488281 248.707031 251.792969 249.667969 249.039062 249.539062 C 249.738281 249.539062 248.648438 250.875 249.289062 251 C 251.136719 251.449219 254.648438 250.75 256.113281 251.386719 C 253.375 252.988281 250.3125 252.085938 248.460938 253.886719 C 248.914062 263.636719 249.164062 274.101562 249.550781 283.886719 C 261.988281 293.328125 279.390625 292.550781 290.9375 282.039062 C 292.132812 262.453125 291.714844 242.804688 289.6875 223.289062 C 288.226562 223.101562 286.75 222.835938 285.289062 222.648438 C 308.125 191.925781 312.523438 160.488281 293.386719 132.113281 C 293.199219 130.863281 292.363281 129.613281 292.136719 128.363281 C 308.789062 127.726562 325.886719 129.449219 342.585938 128.8125 C 347.097656 130.519531 351.746094 131.820312 356.488281 132.699219 C 361.398438 130.976562 362.289062 117.335938 357.449219 118.863281 C 352.613281 120.386719 349.949219 123.449219 344.761719 125.363281 C 325.625 125.363281 304.386719 124.601562 285.261719 124.601562 C 253.53125 99.355469 211.113281 92.042969 172.761719 105.210938 C 184.5 130.488281 185.671875 159.40625 176.011719 185.550781 C 174.925781 189.125 158.414062 199.574219 171.925781 188.164062 C 185.574219 176.5625 177.023438 95.976562 160.25 95.835938 C 140.511719 96.042969 121.5625 103.621094 107.125 117.085938 C 104.511719 114.289062 104.699219 115.425781 105.875 111.476562 C 91.597656 110.246094 77.214844 111.515625 63.375 115.226562 C 56.035156 115.460938 49.585938 120.167969 47.125 127.085938 C 34.511719 172.167969 29.441406 219.027344 32.125 265.761719 C 32.78125 271.367188 34.265625 276.84375 36.523438 282.011719 C 44.023438 290.238281 48.074219 287.875 50.5625 283.539062 Z M 50.648438 283.539062 "/>
<path style=" stroke:none;fill-rule:nonzero;fill:rgb(21.568627%,20.392157%,20.784314%);fill-opacity:1;" d="M 80.574219 130.273438 C 76.371094 128.558594 71.800781 127.917969 67.289062 128.414062 C 66.433594 128.320312 65.632812 128.84375 65.375 129.664062 C 65.035156 130.246094 64.945312 130.9375 65.125 131.585938 C 65.511719 132.675781 65.574219 132.613281 66.523438 132.835938 C 67.78125 133.023438 69.066406 132.914062 70.273438 132.511719 C 73.164062 130.992188 76.578125 130.824219 79.601562 132.0625 C 81 132 81.136719 131.425781 80.6875 130.324219 Z M 80.574219 130.273438 "/>
<path style=" stroke:none;fill-rule:nonzero;fill:rgb(21.568627%,20.392157%,20.784314%);fill-opacity:1;" d="M 67.574219 134.886719 C 67.078125 134.890625 66.585938 134.839844 66.101562 134.738281 L 65.9375 134.738281 C 64.578125 134.597656 63.472656 133.582031 63.226562 132.238281 C 62.871094 131.050781 63.007812 129.769531 63.613281 128.6875 C 64.207031 127.273438 65.617188 126.375 67.148438 126.4375 C 71.816406 125.945312 76.53125 126.582031 80.898438 128.300781 L 81.925781 128.300781 L 82.4375 129.550781 C 83.023438 130.511719 83.011719 131.722656 82.410156 132.675781 C 81.808594 133.625 80.71875 134.15625 79.601562 134.039062 L 79.300781 134.039062 L 78.960938 133.9375 C 76.46875 132.859375 73.621094 132.960938 71.210938 134.210938 L 70.988281 134.351562 L 70.738281 134.414062 C 69.707031 134.707031 68.644531 134.867188 67.574219 134.886719 Z M 67.023438 130.851562 C 67.867188 130.9375 68.71875 130.851562 69.523438 130.601562 L 70.199219 130.261719 C 69.324219 130.261719 68.4375 130.261719 67.539062 130.398438 L 67.210938 130.398438 L 67.136719 130.550781 C 67.082031 130.644531 67.046875 130.746094 67.023438 130.851562 Z M 67.023438 130.851562 "/>
<path style=" stroke:none;fill-rule:nonzero;fill:rgb(21.568627%,20.392157%,20.784314%);fill-opacity:1;" d="M 70.273438 146.085938 C 71.441406 143.660156 73.921875 142.140625 76.613281 142.199219 C 76.863281 140.601562 76.613281 139.699219 74.5625 139.699219 C 71.652344 141.175781 69.164062 143.371094 67.335938 146.074219 C 66.289062 148.425781 65.953125 151.035156 66.375 153.574219 C 66.605469 155.3125 67.5 156.890625 68.875 157.976562 C 71.789062 159.796875 75.523438 159.644531 78.273438 157.585938 C 82.75 154.976562 87.226562 147.511719 79.363281 144.699219 C 76.179688 144.078125 72.878906 144.769531 70.210938 146.613281 C 70.085938 146.675781 70.023438 146.425781 70.210938 146.101562 Z M 70.273438 146.085938 "/>
<path style=" stroke:none;fill-rule:nonzero;fill:rgb(21.568627%,20.392157%,20.784314%);fill-opacity:1;" d="M 72.699219 161.324219 C 70.84375 161.363281 69.035156 160.730469 67.601562 159.550781 C 65.832031 158.128906 64.683594 156.074219 64.398438 153.824219 C 63.890625 150.847656 64.328125 147.789062 65.648438 145.074219 C 67.648438 142.074219 70.382812 139.628906 73.585938 137.976562 L 74.023438 137.710938 L 74.5 137.710938 C 75.742188 137.59375 76.972656 138.027344 77.863281 138.898438 C 78.628906 139.9375 78.894531 141.261719 78.585938 142.511719 C 82.0625 143.039062 84.859375 145.636719 85.636719 149.0625 C 85.492188 153.375 83.074219 157.285156 79.289062 159.351562 C 77.300781 160.574219 75.03125 161.253906 72.699219 161.324219 Z M 68.664062 148 C 68.199219 149.761719 68.097656 151.597656 68.363281 153.398438 C 68.539062 154.628906 69.1875 155.742188 70.175781 156.5 C 72.585938 158.511719 76.5 156.363281 77.261719 155.914062 C 79.703125 154.609375 81.347656 152.1875 81.664062 149.4375 C 81.550781 148.1875 80.550781 147.289062 78.699219 146.625 C 76.097656 146.234375 73.449219 146.851562 71.289062 148.351562 L 71.125 148.4375 L 69.789062 149.113281 L 68.6875 148 Z M 68.664062 148 "/>
<path style=" stroke:none;fill-rule:nonzero;fill:rgb(99.607843%,99.607843%,99.607843%);fill-opacity:1;" d="M 73.75 154.761719 C 73.777344 155.21875 73.863281 155.667969 74.011719 156.101562 C 74.078125 156.300781 74.164062 156.496094 74.273438 156.675781 C 73.535156 157.167969 72.597656 157.261719 71.773438 156.925781 C 69.011719 155.675781 69.210938 151.800781 70.625 149.699219 C 72.125 147.503906 74.578125 146.148438 77.238281 146.050781 C 78.710938 146.8125 79.164062 147.523438 78.386719 147.710938 C 77.949219 147.796875 77.527344 147.949219 77.136719 148.164062 C 76.535156 148.433594 76.082031 148.945312 75.886719 149.574219 C 76.523438 149.761719 76.851562 149.574219 77.425781 149.824219 L 77.425781 151.8125 C 76.8125 151.503906 76.109375 151.414062 75.4375 151.5625 C 74.1875 151.949219 73.699219 153.738281 73.699219 154.824219 Z M 73.75 154.761719 "/>
<path style=" stroke:none;fill-rule:nonzero;fill:rgb(21.568627%,20.392157%,20.784314%);fill-opacity:1;" d="M 79.039062 205.738281 C 86.191406 204.203125 92.433594 199.871094 96.371094 193.707031 C 100.308594 187.542969 101.617188 180.058594 100 172.925781 C 97.761719 172.878906 95.570312 172.285156 93.613281 171.199219 C 93.488281 170.375 93.425781 169.539062 93.289062 168.699219 C 98.460938 171.199219 105.789062 171.949219 104.835938 164.039062 C 105.539062 163.851562 106.625 163.789062 107.335938 163.585938 C 107.085938 169.136719 106.085938 169.648438 102.675781 172.011719 C 104.667969 184.296875 100.457031 196.773438 91.425781 205.335938 C 91.160156 207.074219 91.316406 208.847656 91.875 210.511719 C 88.558594 207.046875 83.816406 205.324219 79.050781 205.851562 Z M 79.039062 205.738281 "/>
<path style=" stroke:none;fill-rule:nonzero;fill:rgb(21.568627%,20.392157%,20.784314%);fill-opacity:1;" d="M 95.398438 217.386719 L 90.398438 211.863281 C 87.457031 208.832031 83.269531 207.351562 79.074219 207.863281 L 77.050781 207.863281 L 77.050781 204.363281 L 78.460938 203.800781 C 91.84375 201.054688 100.617188 188.167969 98.261719 174.710938 C 96.234375 174.5625 94.273438 173.929688 92.539062 172.875 L 91.761719 172.386719 L 91.625 171.5 C 91.5625 171.0625 91.5 170.625 91.449219 170.1875 C 91.398438 169.75 91.363281 169.414062 91.300781 169.011719 L 90.726562 165.261719 L 94.136719 166.914062 C 96.457031 168.402344 99.328125 168.769531 101.949219 167.914062 C 102.75 167.351562 103.050781 166.125 102.835938 164.273438 L 102.648438 162.574219 L 104.300781 162.125 C 104.789062 162.003906 105.285156 161.910156 105.789062 161.851562 C 106.125 161.808594 106.457031 161.753906 106.789062 161.675781 L 109.4375 160.949219 L 109.3125 163.6875 C 109.050781 169.386719 107.800781 170.824219 104.800781 172.960938 C 106.382812 185.28125 102.105469 197.628906 93.238281 206.324219 C 93.238281 207.390625 93.386719 208.449219 93.675781 209.476562 Z M 86.648438 204.789062 C 87.558594 205.078125 88.4375 205.453125 89.273438 205.914062 C 89.3125 205.488281 89.402344 205.066406 89.539062 204.664062 L 89.675781 204.261719 L 89.960938 203.949219 C 91.027344 202.808594 92.015625 201.664062 92.925781 200.511719 C 91.003906 202.175781 88.898438 203.609375 86.648438 204.789062 Z M 86.648438 204.789062 "/>
<path style=" stroke:none;fill-rule:nonzero;fill:rgb(50.196078%,57.647059%,81.568627%);fill-opacity:1;" d="M 276.960938 290.164062 C 276.648438 285.449219 276.074219 281.3125 275.9375 276.585938 C 275.625 265.761719 267.398438 263.398438 266.949219 274.226562 C 266.699219 279.898438 266.949219 285.25 266.949219 290.601562 C 270.285156 291.054688 273.679688 290.910156 276.960938 290.164062 Z M 276.960938 290.164062 "/>
<path style=" stroke:none;fill-rule:nonzero;fill:rgb(21.568627%,20.392157%,20.784314%);fill-opacity:1;" d="M 271.738281 291.5 C 270.488281 291.5 269.3125 291.425781 268.125 291.351562 L 266.25 291.25 L 266.25 290.625 C 266.25 288.851562 266.25 287.085938 266.25 285.3125 C 266.25 281.738281 266.136719 278.039062 266.25 274.226562 C 266.488281 268.5625 268.75 266.550781 270.761719 266.550781 C 273.425781 266.550781 276.351562 270.085938 276.550781 276.550781 C 276.625 279.4375 276.875 282.074219 277.125 284.863281 C 277.289062 286.5625 277.4375 288.289062 277.5625 290.085938 L 277.5625 290.625 L 277.050781 290.773438 C 275.320312 291.265625 273.535156 291.511719 271.738281 291.5 Z M 267.625 290 L 268.226562 290 C 270.90625 290.316406 273.621094 290.191406 276.261719 289.636719 C 276.148438 288.039062 276 286.5 275.863281 284.988281 C 275.601562 282.175781 275.363281 279.523438 275.273438 276.585938 C 275.113281 271.199219 272.773438 267.835938 270.8125 267.835938 C 269.460938 267.835938 267.824219 269.511719 267.625 274.238281 C 267.449219 277.988281 267.511719 281.738281 267.625 285.25 C 267.601562 286.851562 267.625 288.414062 267.625 290 Z M 267.625 290 "/>
<path style=" stroke:none;fill-rule:nonzero;fill:rgb(50.196078%,57.647059%,81.568627%);fill-opacity:1;" d="M 267.101562 290.710938 C 266.191406 285.273438 265.851562 279.757812 266.085938 274.25 C 266.789062 264.25 257.335938 253.710938 256.699219 272.273438 C 256.46875 277.699219 256.683594 283.136719 257.335938 288.523438 C 260.53125 289.507812 263.792969 290.238281 267.101562 290.710938 Z M 267.101562 290.710938 "/>
<path style=" stroke:none;fill-rule:nonzero;fill:rgb(21.568627%,20.392157%,20.784314%);fill-opacity:1;" d="M 267.863281 291.511719 L 267 291.375 C 263.65625 290.90625 260.355469 290.175781 257.125 289.1875 L 256.726562 289.050781 L 256.726562 288.636719 C 256.0625 283.207031 255.851562 277.730469 256.085938 272.261719 C 256.289062 266.273438 257.335938 262.726562 259.375 261.699219 C 260.324219 261.226562 261.460938 261.339844 262.300781 261.988281 C 265.613281 265.183594 267.277344 269.722656 266.8125 274.300781 C 266.53125 279.128906 266.761719 283.972656 267.5 288.75 Z M 257.9375 288.050781 C 260.6875 288.867188 263.488281 289.492188 266.324219 289.925781 L 266.199219 288.886719 C 265.425781 284.035156 265.164062 279.117188 265.414062 274.210938 C 265.839844 270.109375 264.40625 266.03125 261.5 263.101562 C 261.0625 262.726562 260.449219 262.640625 259.925781 262.875 C 259.238281 263.226562 257.613281 264.863281 257.351562 272.300781 C 257.125 277.558594 257.324219 282.824219 257.9375 288.050781 Z M 257.9375 288.050781 "/>
<path style=" stroke:none;fill-rule:nonzero;fill:rgb(50.196078%,57.647059%,81.568627%);fill-opacity:1;" d="M 257.351562 289.375 L 256.011719 268.125 C 255.050781 252.261719 248.675781 254.113281 248.164062 267.175781 C 247.914062 273.351562 248.414062 276.726562 247.835938 282.914062 C 250.835938 284.949219 253.960938 288.960938 257.351562 289.289062 Z M 257.351562 289.375 "/>
<path style=" stroke:none;fill-rule:nonzero;fill:rgb(21.568627%,20.392157%,20.784314%);fill-opacity:1;" d="M 257.289062 290 C 254.613281 289.347656 252.195312 287.90625 250.351562 285.863281 C 249.4375 285.023438 248.480469 284.238281 247.476562 283.511719 L 247.148438 283.289062 L 247.148438 282.898438 C 247.410156 279.90625 247.5 276.902344 247.414062 273.898438 C 247.414062 271.875 247.414062 269.789062 247.414062 267.199219 C 247.675781 260.539062 249.4375 256.210938 251.898438 256.1875 C 254.398438 256.1875 256.125 260.648438 256.574219 268.136719 L 257.914062 289.386719 L 257.238281 289.386719 Z M 248.539062 282.636719 C 249.4375 283.289062 250.335938 284.085938 251.226562 284.863281 C 252.753906 286.441406 254.59375 287.6875 256.625 288.523438 L 255.375 268.226562 C 254.898438 260.363281 253.113281 257.523438 252.023438 257.523438 C 250.898438 257.523438 249.113281 260.636719 248.863281 267.261719 C 248.75 269.761719 248.789062 271.898438 248.863281 273.898438 C 248.910156 276.808594 248.804688 279.714844 248.539062 282.613281 Z M 248.539062 282.636719 "/>
<path style=" stroke:none;fill-rule:nonzero;fill:rgb(50.196078%,57.647059%,81.568627%);fill-opacity:1;" d="M 148.3125 300.351562 C 148.480469 295.375 148.226562 290.394531 147.550781 285.460938 C 144.875 273.960938 141.5 272.550781 137.550781 281.050781 L 137.550781 300.148438 C 141.121094 300.640625 144.742188 300.679688 148.324219 300.273438 Z M 148.3125 300.351562 "/>
<path style=" stroke:none;fill-rule:nonzero;fill:rgb(21.568627%,20.392157%,20.784314%);fill-opacity:1;" d="M 144.273438 301.25 C 142.199219 301.25 140.125 301.0625 138.085938 300.875 L 136.835938 300.761719 L 136.835938 280.761719 C 138.75 276.648438 140.585938 274.738281 142.4375 274.9375 C 144.710938 275.175781 146.511719 278.460938 148.101562 285.300781 L 148.226562 286.386719 C 148.839844 291.019531 149.0625 295.695312 148.886719 300.363281 L 148.238281 300.363281 L 148.324219 300.9375 C 146.984375 301.148438 145.632812 301.253906 144.273438 301.25 Z M 138.199219 299.550781 C 141.339844 299.953125 144.511719 300.007812 147.664062 299.710938 C 147.785156 295.3125 147.5625 290.914062 146.988281 286.550781 L 146.875 285.539062 C 145.050781 277.699219 143.273438 276.363281 142.386719 276.273438 C 141.699219 276.273438 140.289062 276.761719 138.199219 281.210938 Z M 138.199219 299.550781 "/>
<path style=" stroke:none;fill-rule:nonzero;fill:rgb(50.196078%,57.647059%,81.568627%);fill-opacity:1;" d="M 128.75 297.199219 C 128.8125 289.875 128.875 285.023438 128.875 277.699219 C 131.550781 266.925781 134.289062 268.011719 136.960938 280.949219 C 137.023438 287.898438 137.085938 292.425781 137.085938 299.363281 C 134.160156 299.25 131.292969 298.511719 128.675781 297.199219 Z M 128.75 297.199219 "/>
<path style=" stroke:none;fill-rule:nonzero;fill:rgb(21.568627%,20.392157%,20.784314%);fill-opacity:1;" d="M 137.710938 300.113281 L 136.585938 299.988281 C 133.699219 299.847656 130.875 299.09375 128.300781 297.773438 L 126.113281 296.523438 L 128.039062 296.523438 L 128.039062 292.773438 C 128.039062 287.648438 128.125 283.414062 128.125 277.636719 L 128.125 277.476562 C 129.476562 272.050781 130.800781 269.625 132.4375 269.625 C 133.6875 269.625 135.449219 270.9375 137.4375 280.75 L 137.4375 285.074219 C 137.4375 289.886719 137.523438 293.824219 137.523438 299.3125 Z M 129.375 296.835938 C 131.578125 297.875 133.957031 298.476562 136.386719 298.613281 C 136.386719 293.539062 136.386719 289.726562 136.300781 285.136719 L 136.300781 280.949219 C 134.335938 271.539062 132.835938 271.023438 132.550781 271.023438 C 132.261719 271.023438 131.1875 271.175781 129.539062 277.773438 C 129.539062 283.511719 129.539062 287.773438 129.449219 292.851562 Z M 129.375 296.835938 "/>
<path style=" stroke:none;fill-rule:nonzero;fill:rgb(50.196078%,57.647059%,81.568627%);fill-opacity:1;" d="M 118.75 282.789062 C 119.136719 276.664062 120.414062 270.476562 120.789062 264.351562 C 118.289062 252.226562 115.5625 250.0625 112.699219 257.976562 C 112.574219 265.824219 112.511719 273.738281 112.386719 281.585938 C 114.277344 282.792969 116.554688 283.238281 118.761719 282.835938 Z M 118.75 282.789062 "/>
<path style=" stroke:none;fill-rule:nonzero;fill:rgb(21.568627%,20.392157%,20.784314%);fill-opacity:1;" d="M 117.164062 283.75 C 115.636719 283.671875 114.148438 283.242188 112.8125 282.5 L 111.761719 282.023438 L 111.761719 281.585938 C 111.828125 277.664062 111.882812 273.730469 111.925781 269.789062 C 111.964844 265.847656 112.019531 261.910156 112.085938 257.976562 L 112.085938 257.761719 C 113.335938 254.175781 114.664062 252.5625 116.164062 252.664062 C 117.664062 252.761719 119.398438 254.175781 121.460938 264.238281 L 121.460938 264.414062 C 121.273438 267.5 120.851562 270.664062 120.4375 273.675781 C 120.023438 276.6875 119.613281 279.800781 119.425781 282.824219 L 119.425781 283.398438 L 118.898438 283.511719 C 118.332031 283.652344 117.75 283.730469 117.164062 283.75 Z M 113.113281 281.25 L 113.363281 281.363281 C 114.808594 282.226562 116.5 282.585938 118.175781 282.386719 C 118.375 279.449219 118.773438 276.460938 119.175781 273.574219 C 119.574219 270.6875 119.988281 267.5 120.1875 264.488281 C 118.226562 254.949219 116.574219 254.101562 116.113281 254.0625 C 115.863281 254.0625 114.863281 254.273438 113.425781 258.1875 C 113.359375 262.070312 113.304688 265.964844 113.261719 269.875 C 113.222656 273.785156 113.171875 277.542969 113.113281 281.148438 Z M 113.113281 281.25 "/>
<path style=" stroke:none;fill-rule:nonzero;fill:rgb(50.196078%,57.647059%,81.568627%);fill-opacity:1;" d="M 237.761719 280.851562 C 238.273438 274.335938 237.574219 268.914062 237.761719 262.539062 C 237.949219 254.8125 245.585938 257.050781 245.914062 264.136719 C 246.238281 271.226562 246.613281 274.863281 247 281.9375 C 243.90625 282.460938 240.722656 282.082031 237.835938 280.851562 Z M 237.761719 280.851562 "/>
<path style=" stroke:none;fill-rule:nonzero;fill:rgb(21.568627%,20.392157%,20.784314%);fill-opacity:1;" d="M 243.289062 282.726562 C 241.332031 282.792969 239.394531 282.363281 237.648438 281.476562 L 237.101562 281.476562 L 237.101562 280.761719 C 237.324219 277.285156 237.347656 273.792969 237.175781 270.3125 C 237.101562 267.8125 237.011719 265.226562 237.101562 262.488281 C 237.199219 258.460938 239.1875 257.011719 241.011719 257 C 243.511719 257 246.351562 259.6875 246.539062 264.074219 C 246.726562 267.6875 246.914062 270.324219 247.085938 273.085938 C 247.261719 275.851562 247.4375 278.375 247.625 281.835938 L 247.625 282.511719 L 245.6875 282.585938 C 244.898438 282.6875 244.085938 282.726562 243.289062 282.726562 Z M 238.449219 280.425781 C 240.738281 281.371094 243.238281 281.683594 245.6875 281.324219 L 246.289062 281.324219 C 246.113281 278.164062 245.949219 275.6875 245.789062 273.226562 C 245.613281 270.511719 245.4375 267.8125 245.238281 264.1875 C 245.039062 260.5625 242.949219 258.375 241.039062 258.375 C 239.476562 258.375 238.539062 259.960938 238.4375 262.574219 C 238.335938 265.1875 238.4375 267.835938 238.511719 270.324219 C 238.667969 273.691406 238.644531 277.0625 238.449219 280.425781 Z M 238.449219 280.425781 "/>
<path style=" stroke:none;fill-rule:nonzero;fill:rgb(72.54902%,77.254902%,91.764706%);fill-opacity:1;" d="M 237.363281 281.085938 C 237.175781 276.3125 237.238281 270.574219 237.050781 265.800781 C 237.5 259.238281 232.976562 249.550781 231.199219 260.324219 C 230.636719 264.316406 230.296875 268.335938 230.1875 272.363281 C 232.246094 275.527344 234.652344 278.453125 237.363281 281.085938 Z M 237.363281 281.085938 "/>
<path style=" stroke:none;fill-rule:nonzero;fill:rgb(21.568627%,20.392157%,20.784314%);fill-opacity:1;" d="M 238.074219 282.4375 L 236.960938 281.636719 C 234.761719 279.699219 232.839844 277.464844 231.25 275 C 230.648438 274.164062 230.101562 273.398438 229.648438 272.824219 L 229.488281 272.625 L 229.488281 272.375 C 229.574219 271.125 229.636719 269.875 229.6875 268.875 C 229.78125 265.992188 230.058594 263.121094 230.511719 260.273438 C 230.738281 258.875 231.4375 254.625 233.675781 254.898438 C 236.175781 255.199219 237.960938 261.875 237.6875 265.898438 C 237.789062 268.226562 237.8125 270.898438 237.851562 273.488281 C 237.886719 276.074219 237.914062 278.738281 238.011719 281.113281 Z M 230.851562 272.164062 C 231.289062 272.726562 231.789062 273.414062 232.335938 274.1875 C 233.632812 276.101562 235.074219 277.910156 236.648438 279.601562 C 236.648438 277.625 236.5625 275.511719 236.539062 273.460938 C 236.539062 270.886719 236.476562 268.210938 236.375 265.835938 C 236.6875 261.1875 234.625 256.300781 233.539062 256.175781 C 233.300781 256.101562 232.4375 256.851562 231.835938 260.4375 C 231.390625 263.234375 231.117188 266.054688 231.023438 268.886719 C 230.976562 269.886719 230.925781 270.949219 230.851562 272.148438 Z M 230.851562 272.164062 "/>
<path style=" stroke:none;fill-rule:nonzero;fill:rgb(21.568627%,20.392157%,20.784314%);fill-opacity:1;" d="M 180.539062 193.238281 C 183.789062 177.738281 186.976562 162.238281 190.226562 146.675781 C 190.738281 143.039062 191.6875 139.789062 195.511719 139.460938 L 200.164062 139.460938 C 202.960938 139.460938 204.5625 141.125 204.8125 144.460938 L 203.863281 151.351562 C 203.988281 154.164062 205.710938 155.75 209.148438 156.011719 C 213.800781 156.199219 218.523438 156.460938 223.175781 156.648438 C 230.1875 157.101562 234.898438 160.101562 234.425781 168.835938 C 232.960938 176.550781 231.488281 184.273438 230.023438 191.925781 C 229.863281 195.570312 227.527344 198.765625 224.101562 200.023438 C 222 199.898438 219.636719 200.148438 217.539062 200.023438 C 213.898438 200.210938 211.800781 198.875 213.136719 194.085938 C 214.476562 188.023438 216.136719 180.4375 217.539062 174.375 C 218.050781 167.164062 215.375 166.789062 212.539062 166.273438 C 210.113281 165.949219 207.761719 166.273438 205.335938 165.949219 C 201.761719 166.460938 200.425781 169.898438 199.414062 173.738281 C 197.886719 180.175781 196.289062 186.625 194.761719 193.125 C 194.0625 196.636719 193.300781 198.925781 190.6875 200.011719 L 182.914062 200.011719 C 179.980469 199.371094 179.144531 197.074219 180.414062 193.125 Z M 180.539062 193.238281 "/>
<path style=" stroke:none;fill-rule:nonzero;fill:rgb(99.607843%,99.607843%,99.607843%);fill-opacity:1;" d="M 218.863281 201.375 C 218.398438 201.375 217.949219 201.375 217.5 201.375 C 215.59375 201.695312 213.652344 201.054688 212.3125 199.664062 C 211.1875 197.890625 211.007812 195.679688 211.824219 193.75 L 212.585938 190.273438 C 213.75 185 215.085938 179.113281 216.1875 174.199219 C 216.574219 168.386719 215.011719 168.101562 212.4375 167.625 C 210.113281 167.3125 207.875 167.625 205.375 167.324219 C 202.875 167.773438 201.738281 170.261719 200.710938 174.101562 C 200.039062 176.9375 199.335938 179.824219 198.636719 182.710938 C 197.773438 186.289062 196.914062 189.863281 196.0625 193.460938 C 195.210938 197.0625 194.523438 199.886719 191.199219 201.273438 L 190.949219 201.375 L 182.625 201.375 C 181.195312 201.140625 179.933594 200.296875 179.175781 199.0625 C 178.292969 197.074219 178.292969 194.800781 179.175781 192.8125 L 179.585938 191.5625 C 181.253906 183.488281 182.921875 175.410156 184.585938 167.324219 C 186.019531 160.410156 187.457031 153.488281 188.898438 146.5625 C 189.25 144.0625 189.988281 138.75 195.386719 138.300781 L 200.148438 138.300781 C 202.199219 138.300781 205.710938 139.101562 206.125 144.550781 L 206.125 144.6875 L 205.164062 151.585938 C 205.25 153 205.835938 154.613281 209.210938 154.863281 L 216.226562 155.175781 L 223.1875 155.488281 C 226.792969 155.148438 230.351562 156.515625 232.804688 159.183594 C 235.257812 161.847656 236.324219 165.507812 235.6875 169.074219 L 235.6875 169.25 C 234.226562 176.976562 232.75 184.6875 231.289062 192.351562 C 231.035156 196.464844 228.371094 200.035156 224.5 201.449219 L 224.25 201.539062 L 223.976562 201.539062 C 222.988281 201.539062 221.925781 201.539062 220.8125 201.539062 C 220.175781 201.351562 219.511719 201.375 218.863281 201.375 Z M 217.511719 198.675781 L 217.585938 198.675781 C 218.574219 198.675781 219.636719 198.675781 220.75 198.675781 C 221.863281 198.675781 222.851562 198.675781 223.875 198.675781 C 226.707031 197.5 228.589844 194.777344 228.6875 191.710938 C 230.152344 184.046875 231.617188 176.363281 233.074219 168.664062 C 233.460938 161.636719 230.476562 158.4375 223.074219 157.976562 L 216.125 157.664062 L 209.085938 157.335938 C 203.585938 156.925781 202.613281 153.449219 202.523438 151.414062 L 202.523438 151.25 L 203.476562 144.386719 C 203.1875 141.1875 201.550781 140.773438 200.164062 140.773438 L 195.511719 140.773438 C 193.210938 140.976562 192.136719 142.5625 191.539062 146.835938 C 190.074219 153.863281 188.636719 160.773438 187.199219 167.6875 C 185.417969 176.296875 183.625 184.894531 181.824219 193.488281 L 181.324219 195.898438 L 181.175781 195.75 C 181.082031 196.394531 181.179688 197.050781 181.460938 197.636719 C 181.824219 198.179688 182.394531 198.546875 183.039062 198.648438 L 190.375 198.648438 C 192.164062 197.800781 192.773438 196.148438 193.425781 192.824219 C 194.289062 189.175781 195.148438 185.585938 196.011719 182.011719 C 196.710938 179.128906 197.402344 176.25 198.085938 173.375 C 198.851562 170.523438 200.238281 165.273438 205.125 164.625 L 205.488281 164.625 C 207.761719 164.925781 210.136719 164.625 212.6875 164.949219 L 212.863281 164.949219 C 216.4375 165.601562 219.351562 166.761719 218.8125 174.4375 L 218.8125 174.648438 C 217.675781 179.574219 216.3125 185.5 215.199219 190.800781 L 214.414062 194.351562 C 213.914062 196.136719 213.914062 197.363281 214.414062 197.960938 C 214.914062 198.5625 216.375 198.726562 217.449219 198.675781 Z M 217.511719 198.675781 "/>
<path style=" stroke:none;fill-rule:nonzero;fill:rgb(21.568627%,20.392157%,20.784314%);fill-opacity:1;" d="M 120.300781 211.175781 C 123.488281 194.648438 126.738281 178.125 129.9375 161.664062 C 129.851562 160.148438 130.417969 158.671875 131.488281 157.601562 C 132.558594 156.53125 134.039062 155.964844 135.550781 156.050781 L 164.898438 156.050781 C 170.597656 155.882812 175.925781 158.878906 178.738281 163.835938 C 180.703125 167.394531 181.527344 171.472656 181.101562 175.511719 C 180.472656 182.453125 177.398438 188.941406 172.425781 193.824219 C 168.351562 197.261719 163.367188 199.433594 158.074219 200.074219 C 153.074219 200.199219 148.074219 200.261719 143.074219 200.398438 C 140.199219 200.148438 137.335938 200.914062 136.636719 203.210938 C 135.75 206.335938 135.113281 209.460938 134.210938 212.523438 C 133.582031 213.921875 132.371094 214.972656 130.898438 215.398438 C 128.023438 215.460938 125.101562 215.460938 122.226562 215.523438 C 119.148438 215.574219 119.789062 213.75 120.300781 211.175781 Z M 140.773438 182.851562 C 141.601562 178.511719 142.625 173.601562 143.386719 169.773438 C 144.222656 167.421875 146.507812 165.898438 149 166.023438 C 152.027344 165.808594 155.0625 166.203125 157.9375 167.175781 C 160.480469 168.203125 162.464844 170.273438 163.378906 172.859375 C 164.292969 175.445312 164.054688 178.300781 162.726562 180.699219 C 160.480469 184.917969 156.648438 188.066406 152.074219 189.449219 C 149.996094 189.992188 147.84375 190.207031 145.699219 190.085938 C 140.210938 189.511719 139.761719 188.050781 140.699219 182.8125 Z M 140.773438 182.851562 "/>
<path style=" stroke:none;fill-rule:nonzero;fill:rgb(99.607843%,99.607843%,99.607843%);fill-opacity:1;" d="M 122.074219 216.851562 C 120.996094 216.957031 119.929688 216.566406 119.175781 215.789062 C 118.226562 214.648438 118.550781 213.113281 118.886719 211.488281 L 119 210.925781 C 120.757812 201.824219 122.527344 192.726562 124.3125 183.625 C 125.746094 176.273438 127.175781 168.933594 128.601562 161.601562 C 128.492188 159.855469 129.117188 158.148438 130.324219 156.886719 C 131.699219 155.445312 133.621094 154.660156 135.613281 154.726562 L 164.898438 154.726562 C 171.097656 154.535156 176.882812 157.820312 179.898438 163.238281 C 181.972656 167.011719 182.84375 171.328125 182.398438 175.613281 C 181.75 182.867188 178.542969 189.652344 173.351562 194.761719 L 173.199219 194.898438 C 168.941406 198.484375 163.726562 200.746094 158.199219 201.414062 C 155.625 201.488281 153.113281 201.523438 150.613281 201.574219 L 143.113281 201.738281 L 142.960938 201.738281 C 140.949219 201.5625 138.414062 201.9375 137.960938 203.613281 C 137.511719 205.289062 137.148438 206.664062 136.710938 208.199219 C 136.273438 209.738281 135.9375 211.324219 135.460938 212.914062 C 134.746094 214.71875 133.246094 216.101562 131.386719 216.664062 L 131.148438 216.761719 L 130.898438 216.761719 L 126.585938 216.824219 L 122.226562 216.886719 Z M 121.238281 214.101562 C 121.546875 214.183594 121.867188 214.210938 122.1875 214.1875 L 126.585938 214.125 L 130.613281 214.125 C 131.960938 213.523438 132.738281 212.875 132.949219 212.199219 C 133.386719 210.664062 133.761719 209.136719 134.199219 207.601562 C 134.636719 206.0625 134.976562 204.476562 135.449219 202.898438 C 136.261719 200.226562 139.199219 198.789062 143.210938 199.148438 L 150.636719 198.988281 L 158.136719 198.824219 C 163.113281 198.191406 167.800781 196.132812 171.636719 192.898438 C 176.347656 188.253906 179.265625 182.089844 179.875 175.5 C 180.28125 171.695312 179.503906 167.859375 177.648438 164.511719 C 175.011719 160.019531 170.132812 157.316406 164.925781 157.460938 L 135.550781 157.460938 C 134.3125 157.414062 133.113281 157.898438 132.261719 158.800781 C 131.53125 159.550781 131.164062 160.582031 131.261719 161.625 L 131.261719 162 C 129.828125 169.390625 128.386719 176.796875 126.9375 184.210938 C 125.164062 193.304688 123.390625 202.402344 121.625 211.511719 L 121.5 212.101562 C 121.308594 212.773438 121.226562 213.472656 121.25 214.175781 Z M 146.886719 191.449219 C 146.449219 191.449219 146.011719 191.449219 145.5625 191.449219 C 143.429688 191.5 141.367188 190.695312 139.835938 189.210938 C 138.726562 187.726562 138.824219 185.75 139.398438 182.613281 L 139.851562 180.113281 L 139.9375 180.199219 C 140.375 177.960938 140.851562 175.664062 141.289062 173.5 L 142.199219 169.210938 C 143.265625 166.363281 146.0625 164.535156 149.101562 164.710938 C 152.257812 164.5 155.421875 164.925781 158.414062 165.960938 C 161.082031 166.917969 163.222656 168.957031 164.3125 171.574219 C 165.515625 174.722656 165.378906 178.226562 163.9375 181.273438 L 163.851562 181.4375 C 161.441406 185.929688 157.34375 189.28125 152.460938 190.75 C 150.632812 191.1875 148.757812 191.421875 146.875 191.449219 Z M 141.726562 185.050781 C 141.53125 185.890625 141.621094 186.769531 141.988281 187.550781 C 142.425781 188.125 143.648438 188.5 145.835938 188.738281 C 147.839844 188.835938 149.847656 188.628906 151.789062 188.125 C 155.984375 186.839844 159.496094 183.941406 161.550781 180.0625 C 162.65625 177.707031 162.769531 175.003906 161.863281 172.5625 C 161.042969 170.628906 159.453125 169.128906 157.476562 168.425781 C 154.765625 167.511719 151.902344 167.148438 149.050781 167.363281 C 147.105469 167.203125 145.300781 168.386719 144.675781 170.238281 L 143.914062 173.988281 C 143.3125 176.9375 142.664062 180.148438 142.101562 183.101562 Z M 141.726562 185.050781 "/>
<path style=" stroke:none;fill-rule:nonzero;fill:rgb(21.568627%,20.392157%,20.784314%);fill-opacity:1;" d="M 231.8125 211.175781 C 235 194.648438 238.25 178.125 241.449219 161.664062 C 241.367188 160.148438 241.929688 158.671875 243 157.601562 C 244.074219 156.53125 245.550781 155.964844 247.0625 156.050781 L 276.414062 156.050781 C 282.113281 155.882812 287.4375 158.878906 290.25 163.835938 C 292.214844 167.394531 293.039062 171.472656 292.613281 175.511719 C 291.984375 182.453125 288.910156 188.941406 283.9375 193.824219 C 279.867188 197.261719 274.878906 199.433594 269.585938 200.074219 C 264.585938 200.199219 259.585938 200.261719 254.585938 200.398438 C 251.710938 200.148438 248.851562 200.914062 248.148438 203.210938 C 247.261719 206.335938 246.625 209.460938 245.726562 212.523438 C 245.09375 213.921875 243.882812 214.972656 242.414062 215.398438 C 239.539062 215.460938 236.613281 215.460938 233.738281 215.523438 C 230.664062 215.574219 231.25 213.75 231.8125 211.175781 Z M 252.289062 182.851562 C 253.113281 178.511719 254.136719 173.601562 254.898438 169.773438 C 255.738281 167.421875 258.019531 165.898438 260.511719 166.023438 C 263.539062 165.808594 266.578125 166.203125 269.449219 167.175781 C 271.996094 168.203125 273.976562 170.273438 274.890625 172.859375 C 275.808594 175.445312 275.570312 178.300781 274.238281 180.699219 C 271.992188 184.917969 268.160156 188.066406 263.585938 189.449219 C 261.507812 189.992188 259.359375 190.207031 257.210938 190.085938 C 251.726562 189.511719 251.273438 188.050781 252.210938 182.8125 Z M 252.289062 182.851562 "/>
<path style=" stroke:none;fill-rule:nonzero;fill:rgb(99.607843%,99.607843%,99.607843%);fill-opacity:1;" d="M 233.585938 216.851562 C 232.507812 216.957031 231.441406 216.566406 230.6875 215.789062 C 229.738281 214.648438 230.0625 213.113281 230.398438 211.488281 L 230.511719 210.925781 C 232.261719 201.851562 234.023438 192.785156 235.800781 183.726562 C 237.242188 176.339844 238.679688 168.964844 240.113281 161.601562 C 240.003906 159.855469 240.628906 158.148438 241.835938 156.886719 C 243.210938 155.445312 245.136719 154.660156 247.125 154.726562 L 276.414062 154.726562 C 282.609375 154.535156 288.398438 157.820312 291.414062 163.238281 C 293.484375 167.011719 294.355469 171.328125 293.914062 175.613281 C 293.261719 182.867188 290.050781 189.652344 284.863281 194.761719 L 284.710938 194.898438 C 280.453125 198.484375 275.238281 200.746094 269.710938 201.414062 C 267.136719 201.488281 264.625 201.523438 262.125 201.574219 L 254.625 201.738281 L 254.476562 201.738281 C 252.449219 201.5625 249.925781 201.9375 249.476562 203.613281 C 249.023438 205.289062 248.664062 206.664062 248.226562 208.1875 C 247.789062 209.710938 247.449219 211.324219 246.976562 212.898438 C 246.261719 214.707031 244.757812 216.085938 242.898438 216.648438 L 242.664062 216.75 L 242.414062 216.75 L 238.101562 216.8125 L 233.738281 216.875 Z M 232.75 214.101562 C 233.058594 214.179688 233.378906 214.210938 233.699219 214.1875 L 238.101562 214.125 L 242.125 214.125 C 243.476562 213.523438 244.25 212.875 244.460938 212.199219 C 244.898438 210.664062 245.289062 209.125 245.710938 207.601562 C 246.136719 206.074219 246.488281 204.488281 246.960938 202.914062 C 247.773438 200.238281 250.710938 198.800781 254.726562 199.164062 L 262.148438 199 L 269.648438 198.835938 C 274.625 198.203125 279.316406 196.148438 283.148438 192.914062 C 287.859375 188.265625 290.777344 182.101562 291.386719 175.511719 C 291.796875 171.707031 291.019531 167.871094 289.164062 164.523438 C 286.523438 160.03125 281.648438 157.332031 276.4375 157.476562 L 247.0625 157.476562 C 245.824219 157.421875 244.625 157.910156 243.773438 158.8125 C 243.042969 159.5625 242.675781 160.59375 242.773438 161.636719 L 242.773438 162.011719 C 241.332031 169.4375 239.886719 176.875 238.4375 184.324219 C 236.671875 193.382812 234.910156 202.449219 233.148438 211.523438 L 233.023438 212.113281 C 232.835938 212.785156 232.75 213.488281 232.773438 214.1875 Z M 258.398438 191.449219 C 257.960938 191.449219 257.523438 191.449219 257.074219 191.449219 C 254.945312 191.5 252.882812 190.695312 251.351562 189.210938 C 250.238281 187.726562 250.335938 185.75 250.914062 182.613281 L 251.363281 180.113281 L 251.449219 180.199219 C 251.886719 177.949219 252.363281 175.636719 252.800781 173.460938 L 253.710938 169.199219 C 254.765625 166.339844 257.570312 164.511719 260.613281 164.699219 C 263.769531 164.492188 266.933594 164.917969 269.925781 165.949219 C 272.59375 166.90625 274.734375 168.945312 275.824219 171.5625 C 277.027344 174.710938 276.890625 178.214844 275.449219 181.261719 L 275.363281 181.425781 C 272.953125 185.917969 268.855469 189.269531 263.976562 190.738281 C 262.148438 191.175781 260.277344 191.414062 258.398438 191.449219 Z M 253.226562 185.0625 C 253.03125 185.902344 253.121094 186.78125 253.488281 187.5625 C 253.925781 188.136719 255.148438 188.511719 257.335938 188.75 C 259.339844 188.847656 261.347656 188.640625 263.289062 188.136719 C 267.484375 186.851562 270.996094 183.953125 273.050781 180.074219 C 274.15625 177.71875 274.269531 175.015625 273.363281 172.574219 C 272.542969 170.644531 270.953125 169.140625 268.976562 168.4375 C 266.265625 167.523438 263.402344 167.160156 260.550781 167.375 C 258.605469 167.21875 256.804688 168.402344 256.175781 170.25 L 255.414062 174 C 254.8125 176.960938 254.164062 180.1875 253.601562 183.136719 Z M 253.226562 185.0625 "/>
<path style=" stroke:none;fill-rule:nonzero;fill:rgb(92.156863%,93.72549%,100%);fill-opacity:1;" d="M 42.8125 286.324219 C 41.316406 284.890625 40.054688 283.234375 39.0625 281.414062 C 37.519531 278.605469 36.773438 275.425781 36.898438 272.226562 C 33.648438 216.8125 36.511719 168.351562 54.175781 128.75 C 56.335938 123.898438 56.675781 122.4375 61.1875 120.199219 C 74.972656 115.144531 89.761719 113.433594 104.335938 115.199219 C 104.789062 113.949219 105.675781 112.699219 105.289062 111.449219 C 92.097656 110.394531 78.820312 111.449219 65.960938 114.574219 C 57.210938 115.976562 48.6875 117.511719 46.585938 131.414062 C 28.9375 178.148438 30.210938 222.414062 32.050781 265.898438 C 32.035156 269.035156 32.507812 272.15625 33.449219 275.148438 C 36.886719 286.113281 40.210938 285.738281 42.824219 286.3125 Z M 42.8125 286.324219 "/>
<path style=" stroke:none;fill-rule:nonzero;fill:rgb(92.156863%,93.72549%,100%);fill-opacity:1;" d="M 110.601562 279.386719 C 110.601562 267.851562 109.648438 256.3125 109.648438 244.726562 C 109.183594 238.113281 107.746094 231.605469 105.386719 225.414062 C 102.832031 220.90625 99.902344 216.621094 96.636719 212.601562 C 106.570312 231.472656 109.660156 253.203125 105.386719 274.101562 C 107.164062 275.875 108.75 277.664062 110.601562 279.386719 Z M 110.601562 279.386719 "/>
<path style=" stroke:none;fill-rule:nonzero;fill:rgb(21.568627%,20.392157%,20.784314%);fill-opacity:1;" d="M 111.550781 281.675781 L 110.664062 281.335938 C 107.328125 279.90625 104.464844 277.554688 102.414062 274.5625 L 101.550781 273.476562 L 102.363281 273.476562 C 102.550781 269.335938 102.476562 265.550781 102.363281 261.875 C 102.289062 258 102.199219 254 102.425781 249.601562 L 102.425781 248.863281 L 103.164062 248.976562 C 107.34375 249.378906 110.804688 252.390625 111.789062 256.476562 L 111.789062 256.675781 C 111.726562 260.976562 111.675781 264.800781 111.625 268.613281 C 111.574219 272.425781 111.523438 276.386719 111.460938 280.738281 Z M 103.664062 274 C 105.378906 276.390625 107.632812 278.351562 110.238281 279.726562 C 110.238281 275.773438 110.335938 272.226562 110.386719 268.585938 C 110.386719 264.835938 110.488281 261 110.550781 256.75 C 109.757812 253.472656 107.078125 250.984375 103.75 250.4375 C 103.574219 254.488281 103.648438 258.226562 103.75 261.851562 C 103.75 265.6875 103.875 269.648438 103.664062 274 Z M 103.664062 274 "/>
<path style=" stroke:none;fill-rule:nonzero;fill:rgb(92.156863%,93.72549%,100%);fill-opacity:1;" d="M 128.148438 295.710938 C 125.542969 294.683594 123.347656 292.824219 121.898438 290.425781 C 121.449219 269.824219 121.0625 249.175781 120.648438 228.5625 L 123.789062 231.6875 C 124.488281 236.03125 124.8125 240.425781 124.75 244.824219 L 125.710938 247.324219 C 125.695312 263.484375 126.507812 279.636719 128.148438 295.710938 Z M 128.148438 295.710938 "/>
<path style=" stroke:none;fill-rule:nonzero;fill:rgb(21.568627%,20.392157%,20.784314%);fill-opacity:1;" d="M 129.1875 300.289062 L 128.3125 300 C 124.675781 298.71875 121.667969 296.101562 119.898438 292.675781 L 119.8125 292.5 L 119.8125 292.25 C 119.8125 285.386719 119.9375 278.289062 119.9375 271.335938 L 119.9375 271.164062 L 120.023438 271.011719 C 121.914062 267.574219 123.539062 265.363281 125.3125 265.710938 C 126.699219 265.988281 128.261719 267.601562 129.3125 277.398438 C 129.3125 284.6875 129.1875 292.113281 129.1875 299.375 Z M 121.148438 292.164062 C 122.625 294.9375 124.988281 297.140625 127.863281 298.414062 C 127.863281 291.449219 127.925781 284.363281 127.988281 277.488281 C 127.011719 268.375 125.613281 267.125 125.0625 267.011719 C 124.511719 266.898438 123.4375 267.601562 121.3125 271.5 C 121.25 278.375 121.25 285.386719 121.148438 292.175781 Z M 120.601562 292.273438 Z M 120.601562 292.273438 "/>
<path style=" stroke:none;fill-rule:nonzero;fill:rgb(21.568627%,20.392157%,20.784314%);fill-opacity:1;" d="M 106.25 225.710938 C 106.289062 224.652344 106.136719 223.59375 105.800781 222.585938 C 106.3125 222.710938 106.824219 222.773438 107.324219 222.914062 L 115.414062 229.488281 C 116.539062 229.011719 117.433594 228.113281 117.914062 226.988281 C 118.949219 226.972656 119.933594 227.433594 120.585938 228.238281 C 120.710938 233.476562 120.335938 238.636719 120.460938 243.863281 C 121.300781 244.578125 121.84375 245.582031 121.988281 246.675781 C 125.335938 246.808594 128.675781 247.128906 131.988281 247.636719 C 132.175781 248.460938 132.4375 248.976562 132.625 249.8125 C 128.886719 249.394531 125.113281 249.394531 121.375 249.8125 L 121.375 252.175781 C 124.308594 252.023438 127.246094 252.238281 130.125 252.8125 C 130.25 253.511719 130.3125 253.835938 130.4375 254.539062 C 127.324219 254.164062 124.175781 254.207031 121.074219 254.664062 C 121.460938 267.550781 121.585938 280.3125 121.074219 293.261719 C 120.050781 290.835938 118.085938 288.476562 117 286.050781 C 118.941406 269.550781 119.195312 252.898438 117.761719 236.351562 C 114.796875 231.964844 110.855469 228.324219 106.25 225.710938 Z M 106.25 225.710938 "/>
<path style=" stroke:none;fill-rule:nonzero;fill:rgb(21.568627%,20.392157%,20.784314%);fill-opacity:1;" d="M 119.300781 294.050781 C 118.746094 292.859375 118.097656 291.714844 117.363281 290.625 C 116.566406 289.425781 115.855469 288.175781 115.238281 286.875 L 115 286.363281 L 115.074219 285.800781 C 116.96875 269.617188 117.230469 253.285156 115.851562 237.050781 C 113.027344 233.128906 109.394531 229.859375 105.199219 227.460938 L 104.074219 226.738281 L 104.324219 225.414062 C 104.328125 224.933594 104.253906 224.453125 104.101562 224 C 104.011719 223.664062 103.9375 223.335938 103.875 223.011719 L 103.300781 219.949219 L 106.324219 220.699219 L 106.976562 220.835938 C 107.261719 220.835938 107.5625 220.949219 107.851562 221.023438 L 108.273438 221.136719 L 115.574219 227.0625 C 115.789062 226.863281 115.957031 226.621094 116.0625 226.351562 L 116.550781 225.101562 L 117.9375 225.101562 C 119.632812 225.085938 121.234375 225.878906 122.25 227.238281 L 122.585938 227.726562 L 122.585938 228.324219 C 122.648438 230.988281 122.585938 233.664062 122.523438 236.238281 C 122.523438 238.523438 122.414062 240.886719 122.449219 243.210938 C 122.882812 243.707031 123.242188 244.257812 123.523438 244.851562 C 125.601562 244.9375 127.648438 245.210938 129.648438 245.460938 L 132.226562 245.773438 L 133.625 245.9375 L 133.9375 247.3125 C 134.007812 247.617188 134.097656 247.917969 134.199219 248.210938 C 134.324219 248.601562 134.460938 249 134.574219 249.460938 L 135.1875 252.113281 L 132.476562 251.898438 L 131.988281 251.898438 L 132.898438 256.898438 L 130.261719 256.625 C 127.902344 256.355469 125.519531 256.316406 123.148438 256.511719 C 123.550781 270.761719 123.523438 282.539062 123.148438 293.4375 Z M 119.125 285.75 L 119.363281 286.199219 C 119.363281 285.300781 119.363281 284.386719 119.363281 283.460938 C 119.304688 284.230469 119.226562 284.992188 119.125 285.75 Z M 116.4375 231.25 C 117.226562 232.09375 117.960938 232.992188 118.625 233.9375 C 118.625 232.5 118.625 231.050781 118.625 229.613281 C 118 230.285156 117.257812 230.839844 116.4375 231.25 Z M 116.4375 231.25 "/>
<path style=" stroke:none;fill-rule:nonzero;fill:rgb(92.156863%,93.72549%,100%);fill-opacity:1;" d="M 114.011719 112.050781 C 119.78125 111.292969 125.335938 109.382812 130.351562 106.4375 C 140.292969 100.871094 151.382812 97.664062 162.761719 97.0625 C 158.054688 94.9375 152.757812 94.496094 147.761719 95.8125 C 135.496094 98.789062 123.996094 104.324219 114.011719 112.050781 Z M 114.011719 112.050781 "/>
<path style=" stroke:none;fill-rule:nonzero;fill:rgb(92.156863%,93.72549%,100%);fill-opacity:1;" d="M 176.425781 105.125 C 203.796875 97.246094 233 98.5625 259.550781 108.875 C 233.449219 97.40625 204.15625 95.429688 176.75 103.289062 C 176.738281 104.5625 176.425781 103.925781 176.425781 105.125 Z M 176.425781 105.125 "/>
</g>
</svg>
