<?xml version="1.0" encoding="UTF-8"?>
<svg xmlns="http://www.w3.org/2000/svg" xmlns:xlink="http://www.w3.org/1999/xlink" width="px" height="px" viewBox="0 0 109 112" version="1.1">
<g id="surface1">
<rect x="0" y="0" width="109" height="112" style="fill:rgb(13.333333%,59.607843%,74.117647%);fill-opacity:1;stroke:none;"/>
<path style=" stroke:none;fill-rule:nonzero;fill:rgb(100%,100%,100%);fill-opacity:1;" d="M 54.621094 29.632812 C 43.667969 29.632812 36.824219 35.082031 34.085938 45.988281 C 38.191406 40.535156 42.984375 38.492188 48.460938 39.855469 C 51.585938 40.632812 53.820312 42.890625 56.292969 45.386719 C 60.320312 49.457031 64.980469 54.167969 75.160156 54.167969 C 86.113281 54.167969 92.960938 48.714844 95.699219 37.808594 C 91.589844 43.261719 86.796875 45.308594 81.320312 43.945312 C 78.195312 43.167969 75.964844 40.90625 73.492188 38.410156 C 69.464844 34.339844 64.804688 29.632812 54.621094 29.632812 Z M 34.085938 54.167969 C 23.132812 54.167969 16.285156 59.621094 13.546875 70.523438 C 17.652344 65.070312 22.445312 63.027344 27.921875 64.390625 C 31.046875 65.167969 33.28125 67.425781 35.753906 69.921875 C 39.78125 73.992188 44.441406 78.703125 54.621094 78.703125 C 65.574219 78.703125 72.421875 73.25 75.160156 62.34375 C 71.050781 67.796875 66.261719 69.84375 60.785156 68.480469 C 57.660156 67.703125 55.425781 65.441406 52.953125 62.945312 C 48.925781 58.875 44.265625 54.167969 34.085938 54.167969 Z M 34.085938 54.167969 "/>
</g>
</svg>
