<?xml version="1.0" encoding="UTF-8"?>
<svg xmlns="http://www.w3.org/2000/svg" xmlns:xlink="http://www.w3.org/1999/xlink" width="px" height="px" viewBox="0 0 460 206" version="1.1">
<g id="surface1">
<path style=" stroke:none;fill-rule:nonzero;fill:rgb(90.196078%,90.196078%,90.196078%);fill-opacity:1;" d="M 218.261719 205 L 316.058594 205 C 319.917969 205 319.925781 199 316.058594 199 L 218.261719 199 C 214.402344 199 214.394531 205 218.261719 205 Z M 218.261719 205 "/>
<path style=" stroke:none;fill-rule:nonzero;fill:rgb(0.392157%,42.745098%,46.666667%);fill-opacity:1;" d="M 191.859375 74.617188 L 94.394531 74.617188 C 92.25 74.617188 90.511719 76.355469 90.507812 78.5 L 90.507812 97.863281 C 95.371094 97.976562 98.527344 101.988281 99.292969 106.859375 L 99.292969 124.410156 L 99.660156 124.410156 C 99.785156 124.410156 99.882812 124.511719 99.882812 124.632812 L 99.882812 133.972656 C 99.882812 134.09375 99.785156 134.195312 99.660156 134.195312 L 99.292969 134.195312 L 99.292969 190.648438 C 99.292969 191.890625 99.28125 194.152344 99.28125 194.152344 L 191.859375 194.152344 C 194.003906 194.152344 195.742188 192.414062 195.742188 190.269531 L 195.742188 78.5 C 195.742188 76.355469 194.003906 74.617188 191.859375 74.617188 Z M 191.859375 74.617188 "/>
<path style=" stroke:none;fill-rule:nonzero;fill:rgb(0.392157%,42.745098%,46.666667%);fill-opacity:1;" d="M 372.949219 10.90625 L 372.949219 116.855469 L 202.484375 116.855469 L 202.484375 70.207031 C 202.480469 65.796875 198.90625 62.222656 194.496094 62.21875 L 162.527344 62.21875 L 162.527344 10.90625 Z M 372.949219 10.90625 "/>
<path style=" stroke:none;fill-rule:nonzero;fill:rgb(24.705882%,23.921569%,33.72549%);fill-opacity:1;" d="M 383.476562 131.792969 L 202.675781 131.792969 L 202.675781 131.054688 L 382.738281 131.054688 L 382.738281 6.277344 C 382.734375 3.21875 380.253906 0.742188 377.199219 0.738281 L 156.070312 0.738281 C 153.011719 0.742188 150.535156 3.21875 150.53125 6.277344 L 150.53125 61.742188 L 149.792969 61.742188 L 149.792969 6.277344 C 149.796875 2.8125 152.605469 0.00390625 156.070312 0 L 377.199219 0 C 380.664062 0.00390625 383.472656 2.8125 383.476562 6.277344 Z M 383.476562 131.792969 "/>
<path style=" stroke:none;fill-rule:nonzero;fill:rgb(24.705882%,23.921569%,33.72549%);fill-opacity:1;" d="M 366.34375 154.3125 L 202.675781 154.3125 L 202.675781 153.574219 L 366.34375 153.574219 C 375.394531 153.5625 382.726562 146.230469 382.738281 137.179688 L 382.738281 131.792969 L 202.675781 131.792969 L 202.675781 131.054688 L 383.476562 131.054688 L 383.476562 137.179688 C 383.464844 146.636719 375.800781 154.300781 366.34375 154.3125 Z M 366.34375 154.3125 "/>
<path style=" stroke:none;fill-rule:nonzero;fill:rgb(24.705882%,23.921569%,33.72549%);fill-opacity:1;" d="M 317.769531 190.488281 C 308.644531 181.726562 302.644531 170.296875 300.714844 154.3125 L 233.46875 154.3125 C 232.785156 169.265625 226.820312 180.484375 216.0625 190.449219 L 214.925781 190.488281 C 226.027344 180.429688 232.140625 169.132812 232.746094 153.925781 L 232.761719 153.574219 L 301.371094 153.574219 L 301.410156 153.898438 C 303.304688 170.15625 309.429688 181.660156 318.78125 190.429688 Z M 317.769531 190.488281 "/>
<path style=" stroke:none;fill-rule:nonzero;fill:rgb(24.705882%,23.921569%,33.72549%);fill-opacity:1;" d="M 194.316406 205.761719 L 90.730469 205.761719 L 90.730469 205.023438 L 194.316406 205.023438 C 198.726562 205.019531 202.300781 201.445312 202.304688 197.035156 L 202.304688 70.378906 C 202.300781 65.96875 198.726562 62.394531 194.316406 62.390625 L 90.730469 62.390625 C 86.320312 62.394531 82.746094 65.96875 82.742188 70.378906 L 82.742188 97.710938 L 82.003906 97.710938 L 82.003906 70.378906 C 82.007812 65.558594 85.914062 61.65625 90.730469 61.652344 L 194.316406 61.652344 C 199.132812 61.65625 203.039062 65.558594 203.042969 70.378906 L 203.042969 197.035156 C 203.039062 201.851562 199.132812 205.757812 194.316406 205.761719 Z M 194.316406 205.761719 "/>
<path style=" stroke:none;fill-rule:nonzero;fill:rgb(24.705882%,23.921569%,33.72549%);fill-opacity:1;" d="M 142.523438 70.992188 C 141.140625 70.992188 140.019531 69.871094 140.019531 68.488281 C 140.019531 67.105469 141.140625 65.984375 142.523438 65.984375 C 143.90625 65.984375 145.027344 67.105469 145.027344 68.488281 C 145.027344 69.871094 143.90625 70.988281 142.523438 70.992188 Z M 142.523438 66.5625 C 141.460938 66.5625 140.597656 67.425781 140.597656 68.488281 C 140.597656 69.550781 141.460938 70.414062 142.523438 70.414062 C 143.585938 70.414062 144.449219 69.550781 144.449219 68.488281 C 144.449219 67.425781 143.585938 66.566406 142.523438 66.5625 Z M 142.523438 66.5625 "/>
<path style=" stroke:none;fill-rule:nonzero;fill:rgb(24.705882%,23.921569%,33.72549%);fill-opacity:1;" d="M 142.523438 202.933594 C 140.757812 202.933594 139.328125 201.503906 139.328125 199.738281 C 139.328125 197.972656 140.757812 196.542969 142.523438 196.542969 C 144.289062 196.542969 145.71875 197.972656 145.71875 199.738281 C 145.714844 201.5 144.289062 202.929688 142.523438 202.933594 Z M 142.523438 197.28125 C 141.167969 197.28125 140.066406 198.382812 140.066406 199.738281 C 140.066406 201.09375 141.167969 202.195312 142.523438 202.195312 C 143.878906 202.195312 144.980469 201.09375 144.980469 199.738281 C 144.976562 198.382812 143.878906 197.285156 142.523438 197.28125 Z M 142.523438 197.28125 "/>
<path style=" stroke:none;fill-rule:nonzero;fill:rgb(24.705882%,23.921569%,33.72549%);fill-opacity:1;" d="M 89.691406 205.976562 L 55.398438 205.976562 C 50.027344 205.96875 45.667969 201.613281 45.664062 196.238281 L 45.664062 107.449219 C 45.667969 102.074219 50.027344 97.71875 55.398438 97.710938 L 89.691406 97.710938 C 95.066406 97.71875 99.421875 102.074219 99.425781 107.449219 L 99.425781 123.335938 C 99.785156 123.488281 100.015625 123.835938 100.019531 124.222656 L 100.019531 134.5625 C 100.015625 134.949219 99.785156 135.300781 99.425781 135.449219 L 99.425781 196.238281 C 99.421875 201.613281 95.066406 205.96875 89.691406 205.976562 Z M 55.398438 98.449219 C 50.433594 98.453125 46.40625 102.480469 46.402344 107.449219 L 46.402344 196.238281 C 46.40625 201.207031 50.433594 205.230469 55.398438 205.238281 L 89.691406 205.238281 C 94.65625 205.230469 98.683594 201.207031 98.6875 196.238281 L 98.6875 134.785156 L 99.058594 134.785156 C 99.179688 134.785156 99.277344 134.683594 99.28125 134.5625 L 99.28125 124.222656 C 99.277344 124.101562 99.179688 124 99.058594 124 L 98.6875 124 L 98.6875 107.449219 C 98.683594 102.480469 94.65625 98.453125 89.691406 98.449219 Z M 55.398438 98.449219 "/>
<path style=" stroke:none;fill-rule:nonzero;fill:rgb(0.392157%,42.745098%,46.666667%);fill-opacity:1;" d="M 90.066406 100.515625 L 85.59375 100.515625 C 86.011719 101.542969 85.890625 102.707031 85.273438 103.625 C 84.65625 104.542969 83.621094 105.097656 82.515625 105.097656 L 62.871094 105.097656 C 61.765625 105.097656 60.730469 104.542969 60.113281 103.625 C 59.496094 102.707031 59.375 101.542969 59.792969 100.515625 L 55.613281 100.515625 C 51.75 100.515625 48.617188 103.648438 48.617188 107.511719 L 48.617188 196.175781 C 48.617188 200.039062 51.75 203.167969 55.613281 203.167969 L 90.066406 203.167969 C 93.933594 203.167969 97.0625 200.039062 97.0625 196.175781 L 97.0625 107.511719 C 97.0625 103.648438 93.933594 100.515625 90.066406 100.515625 Z M 90.066406 100.515625 "/>
<path style=" stroke:none;fill-rule:nonzero;fill:rgb(24.705882%,23.921569%,33.72549%);fill-opacity:1;" d="M 459.613281 205.832031 L 0.441406 205.832031 C 0.28125 205.832031 0.136719 205.75 0.0585938 205.613281 C -0.0195312 205.476562 -0.0195312 205.308594 0.0585938 205.171875 C 0.136719 205.035156 0.28125 204.953125 0.441406 204.953125 L 459.613281 204.953125 C 459.773438 204.953125 459.917969 205.035156 459.996094 205.171875 C 460.074219 205.308594 460.074219 205.476562 459.996094 205.613281 C 459.917969 205.75 459.773438 205.832031 459.613281 205.832031 Z M 459.613281 205.832031 "/>
<path style=" stroke:none;fill-rule:nonzero;fill:rgb(24.705882%,23.921569%,33.72549%);fill-opacity:1;" d="M 317.996094 205.625 L 215.738281 205.625 C 211.453125 205.628906 207.980469 202.15625 207.980469 197.871094 C 207.980469 193.589844 211.453125 190.117188 215.738281 190.121094 L 317.996094 190.121094 C 322.277344 190.125 325.742188 193.59375 325.742188 197.871094 C 325.742188 202.152344 322.277344 205.621094 317.996094 205.625 Z M 215.738281 190.859375 C 211.863281 190.859375 208.726562 194 208.726562 197.871094 C 208.726562 201.746094 211.863281 204.886719 215.738281 204.886719 L 317.996094 204.886719 C 321.871094 204.886719 325.011719 201.746094 325.011719 197.871094 C 325.011719 194 321.871094 190.859375 317.996094 190.859375 Z M 215.738281 190.859375 "/>
<path style=" stroke:none;fill-rule:nonzero;fill:rgb(100%,72.156863%,72.156863%);fill-opacity:1;" d="M 392.246094 146.597656 L 395.113281 152.585938 L 419.570312 144.390625 L 415.34375 135.550781 Z M 392.246094 146.597656 "/>
<path style=" stroke:none;fill-rule:nonzero;fill:rgb(18.431373%,18.039216%,25.490196%);fill-opacity:1;" d="M 395.074219 166.792969 L 386.074219 147.972656 L 393.34375 144.496094 L 399.132812 156.601562 C 400.90625 160.308594 399.339844 164.753906 395.628906 166.527344 Z M 395.074219 166.792969 "/>
<path style=" stroke:none;fill-rule:nonzero;fill:rgb(100%,72.156863%,72.156863%);fill-opacity:1;" d="M 386.480469 200.070312 L 393.117188 199.847656 L 393.394531 174.023438 L 385.617188 174.484375 Z M 386.480469 200.070312 "/>
<path style=" stroke:none;fill-rule:nonzero;fill:rgb(18.431373%,18.039216%,25.490196%);fill-opacity:1;" d="M 405.988281 205.929688 L 385.125 205.929688 L 385.125 197.867188 L 398.542969 197.867188 C 402.65625 197.867188 405.988281 201.203125 405.988281 205.3125 Z M 405.988281 205.929688 "/>
<path style=" stroke:none;fill-rule:nonzero;fill:rgb(18.431373%,18.039216%,25.490196%);fill-opacity:1;" d="M 387.027344 196.191406 C 385.882812 196.191406 384.886719 195.410156 384.613281 194.296875 C 380.980469 179.699219 367.457031 106.132812 379.414062 91.683594 L 379.519531 91.558594 L 379.675781 91.515625 C 380.515625 91.304688 396.339844 86.40625 405.625 94.050781 L 405.730469 94.140625 L 410.898438 109.097656 L 424.828125 129.777344 C 426.371094 132.066406 426.917969 134.878906 426.351562 137.578125 C 425.78125 140.277344 424.144531 142.632812 421.8125 144.105469 L 403.519531 155.644531 C 402.617188 156.191406 401.464844 156.113281 400.644531 155.445312 C 400.308594 155.164062 400.050781 154.804688 399.894531 154.398438 L 396.050781 144.789062 C 395.574219 143.582031 396.097656 142.210938 397.253906 141.625 L 405.824219 137.339844 C 406.296875 137.078125 406.632812 136.617188 406.738281 136.085938 C 406.785156 135.605469 406.59375 135.128906 406.222656 134.816406 L 396.277344 126.238281 C 395.824219 125.851562 395.183594 125.765625 394.644531 126.023438 C 394.109375 126.28125 393.773438 126.835938 393.796875 127.433594 L 396.261719 192.535156 C 396.3125 193.796875 395.40625 194.898438 394.15625 195.097656 L 387.425781 196.160156 C 387.296875 196.179688 387.160156 196.191406 387.027344 196.191406 Z M 387.027344 196.191406 "/>
<path style=" stroke:none;fill-rule:nonzero;fill:rgb(24.705882%,23.921569%,33.72549%);fill-opacity:1;" d="M 404.1875 96.707031 C 404.132812 96.707031 404.074219 96.703125 404.019531 96.699219 L 379.210938 94.863281 C 378.511719 94.8125 377.878906 94.4375 377.496094 93.851562 C 377.109375 93.269531 377.019531 92.539062 377.253906 91.878906 C 378.78125 87.476562 378.964844 82.722656 377.792969 78.21875 C 376.175781 71.847656 376.136719 60 376.257812 53.507812 C 376.316406 51.222656 378.117188 49.367188 380.398438 49.246094 L 380.398438 49.238281 L 380.898438 49.242188 C 384.941406 49.300781 392.355469 49.589844 398.425781 50.851562 C 402.636719 51.722656 405.683594 55.398438 405.753906 59.703125 C 405.894531 65.730469 405.914062 73.890625 405.230469 78.53125 C 404.652344 82.445312 405.71875 89.960938 406.40625 94.089844 C 406.511719 94.742188 406.328125 95.40625 405.902344 95.910156 C 405.476562 96.414062 404.847656 96.707031 404.1875 96.707031 Z M 404.1875 96.707031 "/>
<path style=" stroke:none;fill-rule:nonzero;fill:rgb(100%,72.156863%,72.156863%);fill-opacity:1;" d="M 413.042969 120.355469 C 411.707031 119.714844 410.722656 118.515625 410.351562 117.078125 C 409.984375 115.640625 410.273438 114.113281 411.140625 112.910156 L 399.679688 63.5 L 408.34375 63.5 L 418.457031 111.933594 C 420.425781 113.558594 420.871094 116.402344 419.488281 118.546875 C 418.109375 120.695312 415.339844 121.472656 413.042969 120.355469 Z M 413.042969 120.355469 "/>
<path style=" stroke:none;fill-rule:nonzero;fill:rgb(100%,72.156863%,72.156863%);fill-opacity:1;" d="M 358.777344 68.851562 L 372.496094 55.875 L 377.664062 63.109375 L 364.746094 74.480469 L 381.6875 87.9375 C 381.8125 87.925781 381.933594 87.917969 382.058594 87.917969 C 384.960938 87.914062 387.351562 90.199219 387.484375 93.097656 C 387.613281 96 385.4375 98.488281 382.546875 98.75 C 379.65625 99.007812 377.070312 96.941406 376.683594 94.066406 L 376.632812 94.117188 L 358.996094 78.835938 C 357.558594 77.589844 356.714844 75.792969 356.675781 73.890625 C 356.632812 71.992188 357.398438 70.160156 358.777344 68.851562 Z M 358.777344 68.851562 "/>
<path style=" stroke:none;fill-rule:nonzero;fill:rgb(24.705882%,23.921569%,33.72549%);fill-opacity:1;" d="M 400.59375 66.664062 C 399.726562 66.667969 398.9375 66.171875 398.566406 65.390625 C 397.476562 63.082031 396.722656 60.628906 396.332031 58.105469 C 395.738281 53.980469 398.605469 51.53125 401.519531 50.996094 C 404.355469 50.476562 407.808594 51.722656 408.691406 55.6875 C 408.765625 56.023438 408.824219 56.363281 408.863281 56.703125 C 409.214844 59.707031 409.546875 62.046875 409.851562 63.652344 C 409.972656 64.289062 409.808594 64.949219 409.40625 65.457031 C 409.003906 65.96875 408.402344 66.28125 407.753906 66.3125 L 400.710938 66.664062 C 400.671875 66.664062 400.632812 66.664062 400.59375 66.664062 Z M 400.59375 66.664062 "/>
<path style=" stroke:none;fill-rule:nonzero;fill:rgb(18.431373%,18.039216%,25.490196%);fill-opacity:1;" d="M 405.773438 29.992188 C 405.773438 38.273438 399.054688 44.992188 390.773438 44.992188 C 382.488281 44.992188 375.773438 38.273438 375.773438 29.992188 C 375.773438 21.707031 382.488281 14.992188 390.773438 14.992188 C 399.054688 14.992188 405.773438 21.707031 405.773438 29.992188 Z M 405.773438 29.992188 "/>
<path style=" stroke:none;fill-rule:nonzero;fill:rgb(100%,72.156863%,72.156863%);fill-opacity:1;" d="M 403.144531 33.882812 C 403.144531 40.667969 397.644531 46.164062 390.863281 46.164062 C 384.082031 46.164062 378.582031 40.667969 378.582031 33.882812 C 378.582031 27.101562 384.082031 21.605469 390.863281 21.605469 C 397.644531 21.605469 403.144531 27.101562 403.144531 33.882812 Z M 403.144531 33.882812 "/>
<path style=" stroke:none;fill-rule:nonzero;fill:rgb(24.705882%,23.921569%,33.72549%);fill-opacity:1;" d="M 369.066406 60.691406 C 368.425781 60.105469 368.179688 59.207031 368.433594 58.378906 C 369.1875 55.9375 370.292969 53.621094 371.710938 51.5 C 374.054688 48.058594 377.828125 48.1875 380.335938 49.761719 C 382.777344 51.292969 384.480469 54.546875 382.453125 58.066406 C 382.28125 58.363281 382.09375 58.652344 381.894531 58.929688 C 380.125 61.386719 378.789062 63.332031 377.929688 64.722656 C 377.585938 65.273438 377.019531 65.648438 376.378906 65.753906 C 375.738281 65.859375 375.082031 65.679688 374.582031 65.265625 L 369.152344 60.765625 C 369.125 60.742188 369.09375 60.714844 369.066406 60.691406 Z M 369.066406 60.691406 "/>
<path style=" stroke:none;fill-rule:nonzero;fill:rgb(18.431373%,18.039216%,25.490196%);fill-opacity:1;" d="M 387.859375 16.59375 C 384.839844 14.792969 384.1875 10.308594 385.984375 7.289062 C 387.78125 4.269531 391.417969 2.691406 394.929688 2.589844 C 399.949219 2.441406 404.796875 4.941406 408.308594 8.527344 C 411.820312 12.113281 414.140625 16.707031 415.90625 21.40625 C 417.671875 26.105469 418.941406 30.980469 420.679688 35.6875 C 421.574219 38.105469 422.671875 40.585938 424.71875 42.15625 C 426.761719 43.726562 430.007812 44.007812 431.753906 42.113281 C 431.75 45.144531 429.425781 47.898438 426.542969 48.835938 C 423.660156 49.777344 420.402344 49.066406 417.875 47.394531 C 413.492188 44.488281 411.378906 39.1875 410.167969 34.070312 C 408.957031 28.953125 408.363281 23.59375 405.929688 18.933594 C 404.921875 17 403.542969 15.167969 401.601562 14.179688 C 399.65625 13.195312 397.070312 13.261719 395.507812 14.777344 C 394.78125 15.480469 394.316406 16.441406 393.492188 17.027344 C 392.441406 17.683594 391.140625 17.820312 389.976562 17.390625 C 388.828125 16.960938 387.753906 16.355469 386.792969 15.597656 "/>
<path style=" stroke:none;fill-rule:nonzero;fill:rgb(18.431373%,18.039216%,25.490196%);fill-opacity:1;" d="M 378.039062 25.585938 C 380.429688 28.800781 384.03125 30.902344 388.007812 31.398438 C 391.984375 31.894531 395.988281 30.746094 399.097656 28.214844 C 400.289062 27.246094 401.398438 25.910156 401.324219 24.375 C 401.246094 22.800781 399.960938 21.566406 398.648438 20.695312 C 395.195312 18.425781 391.042969 17.472656 386.945312 18.007812 C 384.609375 18.320312 382.265625 19.171875 380.609375 20.851562 C 378.953125 22.53125 378.128906 25.144531 378.984375 27.34375 "/>
</g>
</svg>
