<?xml version="1.0" encoding="UTF-8"?>
<svg xmlns="http://www.w3.org/2000/svg" xmlns:xlink="http://www.w3.org/1999/xlink" width="px" height="px" viewBox="0 0 430 276" version="1.1">
<defs>
<filter id="alpha" filterUnits="objectBoundingBox" x="0%" y="0%" width="100%" height="100%">
  <feColorMatrix type="matrix" in="SourceGraphic" values="0 0 0 0 1 0 0 0 0 1 0 0 0 0 1 0 0 0 1 0"/>
</filter>
<mask id="mask0">
  <g filter="url(#alpha)">
<rect x="0" y="0" width="430" height="276" style="fill:rgb(0%,0%,0%);fill-opacity:0.2;stroke:none;"/>
  </g>
</mask>
<clipPath id="clip1">
  <rect x="0" y="0" width="430" height="276"/>
</clipPath>
<g id="surface5" clip-path="url(#clip1)">
<path style=" stroke:none;fill-rule:nonzero;fill:rgb(0%,0%,0%);fill-opacity:1;" d="M 330.828125 61.175781 L 330.828125 58.898438 L 292.652344 58.898438 L 292.652344 32.503906 L 290.382812 32.503906 L 290.382812 58.898438 L 246.632812 58.898438 L 246.632812 32.503906 L 244.363281 32.503906 L 244.363281 58.898438 L 215.46875 58.898438 C 215.148438 59.65625 214.835938 60.414062 214.542969 61.175781 L 244.363281 61.175781 L 244.363281 105.820312 L 207.335938 105.820312 C 207.371094 106.585938 207.425781 107.339844 207.488281 108.097656 L 244.363281 108.097656 L 244.363281 143.710938 L 216.738281 143.710938 C 217.078125 144.476562 217.433594 145.230469 217.808594 145.976562 L 244.363281 145.976562 L 244.363281 175.914062 L 246.632812 175.914062 L 246.632812 145.976562 L 290.382812 145.976562 L 290.382812 175.914062 L 292.652344 175.914062 L 292.652344 145.976562 L 330.828125 145.976562 L 330.828125 143.710938 L 292.652344 143.710938 C 292.652344 124.042969 308.597656 108.097656 328.265625 108.097656 L 330.828125 108.097656 L 330.828125 105.820312 L 292.652344 105.820312 L 292.652344 61.175781 Z M 290.382812 143.710938 L 246.632812 143.710938 L 246.632812 108.097656 L 290.382812 108.097656 Z M 290.382812 105.820312 L 246.632812 105.820312 L 246.632812 104.929688 C 246.632812 80.765625 266.21875 61.175781 290.382812 61.175781 Z M 290.382812 105.820312 "/>
</g>
<mask id="mask1">
  <g filter="url(#alpha)">
<rect x="0" y="0" width="430" height="276" style="fill:rgb(0%,0%,0%);fill-opacity:0.2;stroke:none;"/>
  </g>
</mask>
<clipPath id="clip2">
  <rect x="0" y="0" width="430" height="276"/>
</clipPath>
<g id="surface8" clip-path="url(#clip2)">
<path style=" stroke:none;fill-rule:nonzero;fill:rgb(0%,0%,0%);fill-opacity:1;" d="M 161.921875 133.988281 L 160.554688 142.515625 L 169.808594 146.332031 Z M 161.921875 133.988281 "/>
</g>
<mask id="mask2">
  <g filter="url(#alpha)">
<rect x="0" y="0" width="430" height="276" style="fill:rgb(0%,0%,0%);fill-opacity:0.2;stroke:none;"/>
  </g>
</mask>
<clipPath id="clip3">
  <rect x="0" y="0" width="430" height="276"/>
</clipPath>
<g id="surface11" clip-path="url(#clip3)">
<path style=" stroke:none;fill-rule:nonzero;fill:rgb(0%,0%,0%);fill-opacity:1;" d="M 156.066406 150.386719 C 161.023438 156.128906 169.238281 157.789062 176.035156 154.421875 L 178.007812 153.449219 Z M 156.066406 150.386719 "/>
</g>
</defs>
<g id="surface1">
<path style=" stroke:none;fill-rule:nonzero;fill:rgb(90.196078%,90.196078%,90.196078%);fill-opacity:1;" d="M 402 243.75 L 293.324219 243.75 C 285.09375 243.742188 278.421875 237.070312 278.414062 228.835938 L 278.414062 57.414062 C 278.421875 49.183594 285.09375 42.511719 293.324219 42.503906 L 402 42.503906 C 410.234375 42.511719 416.902344 49.183594 416.914062 57.414062 L 416.914062 228.835938 C 416.902344 237.070312 410.234375 243.742188 402 243.75 Z M 402 243.75 "/>
<path style=" stroke:none;fill-rule:nonzero;fill:rgb(100%,100%,100%);fill-opacity:1;" d="M 403.800781 51.402344 L 293.121094 51.402344 C 290.542969 51.40625 288.457031 53.492188 288.453125 56.070312 L 288.453125 229.726562 C 288.457031 232.304688 290.542969 234.390625 293.121094 234.394531 L 403.800781 234.394531 C 406.378906 234.390625 408.46875 232.304688 408.472656 229.726562 L 408.472656 56.070312 C 408.46875 53.492188 406.378906 51.40625 403.800781 51.402344 Z M 403.800781 51.402344 "/>
<path style=" stroke:none;fill-rule:nonzero;fill:rgb(100%,86.666667%,82.745098%);fill-opacity:1;" d="M 295.980469 42.503906 C 295.984375 41.875 296.492188 41.363281 297.125 41.363281 L 304.882812 41.363281 C 305.511719 41.363281 306.023438 41.871094 306.023438 42.503906 C 306.023438 43.132812 305.511719 43.644531 304.882812 43.644531 L 297.125 43.644531 C 296.492188 43.644531 295.984375 43.132812 295.980469 42.503906 Z M 295.980469 42.503906 "/>
<path style=" stroke:none;fill-rule:nonzero;fill:rgb(90.196078%,90.196078%,90.196078%);fill-opacity:1;" d="M 308.761719 42.503906 C 308.761719 41.875 309.269531 41.363281 309.902344 41.363281 L 317.660156 41.363281 C 318.289062 41.363281 318.800781 41.871094 318.800781 42.503906 C 318.800781 43.132812 318.289062 43.644531 317.660156 43.644531 L 309.902344 43.644531 C 309.269531 43.644531 308.761719 43.132812 308.761719 42.503906 Z M 308.761719 42.503906 "/>
<path style=" stroke:none;fill-rule:nonzero;fill:rgb(90.196078%,90.196078%,90.196078%);fill-opacity:1;" d="M 385.425781 42.503906 C 385.425781 41.875 385.9375 41.363281 386.566406 41.363281 L 394.324219 41.363281 C 394.953125 41.363281 395.464844 41.871094 395.464844 42.503906 C 395.464844 43.132812 394.953125 43.644531 394.324219 43.644531 L 386.566406 43.644531 C 385.9375 43.644531 385.425781 43.132812 385.425781 42.503906 Z M 385.425781 42.503906 "/>
<path style=" stroke:none;fill-rule:nonzero;fill:rgb(94.901961%,94.901961%,94.901961%);fill-opacity:1;" d="M 363.800781 230.816406 C 363.800781 232.015625 363.777344 233.214844 363.722656 234.394531 L 293.121094 234.394531 C 290.542969 234.390625 288.457031 232.304688 288.453125 229.726562 L 288.453125 142.320312 C 331.878906 149.335938 363.800781 186.828125 363.800781 230.816406 Z M 363.800781 230.816406 "/>
<path style=" stroke:none;fill-rule:nonzero;fill:rgb(100%,86.666667%,82.745098%);fill-opacity:1;" d="M 335.070312 96.027344 L 361.402344 96.027344 C 362.601562 96.027344 363.570312 97 363.570312 98.199219 L 363.570312 100.90625 C 363.570312 102.101562 362.601562 103.074219 361.402344 103.074219 L 335.070312 103.074219 C 333.875 103.074219 332.902344 102.101562 332.902344 100.90625 L 332.902344 98.199219 C 332.902344 97 333.875 96.027344 335.070312 96.027344 Z M 335.070312 96.027344 "/>
<path style=" stroke:none;fill-rule:nonzero;fill:rgb(90.196078%,90.196078%,90.196078%);fill-opacity:1;" d="M 318.335938 110.121094 L 378.136719 110.121094 C 379.335938 110.121094 380.304688 111.089844 380.304688 112.289062 L 380.304688 114.996094 C 380.304688 116.195312 379.335938 117.167969 378.136719 117.167969 L 318.335938 117.167969 C 317.136719 117.167969 316.167969 116.195312 316.167969 114.996094 L 316.167969 112.289062 C 316.167969 111.089844 317.136719 110.121094 318.335938 110.121094 Z M 318.335938 110.121094 "/>
<path style=" stroke:none;fill-rule:nonzero;fill:rgb(90.196078%,90.196078%,90.196078%);fill-opacity:1;" d="M 318.335938 124.210938 L 378.136719 124.210938 C 379.335938 124.210938 380.304688 125.183594 380.304688 126.382812 L 380.304688 129.089844 C 380.304688 130.289062 379.335938 131.257812 378.136719 131.257812 L 318.335938 131.257812 C 317.136719 131.257812 316.167969 130.289062 316.167969 129.089844 L 316.167969 126.382812 C 316.167969 125.183594 317.136719 124.210938 318.335938 124.210938 Z M 318.335938 124.210938 "/>
<path style=" stroke:none;fill-rule:nonzero;fill:rgb(80%,80%,80%);fill-opacity:1;" d="M 367.898438 222.527344 C 367.195312 222.558594 366.546875 222.148438 366.277344 221.5 C 366.003906 220.851562 366.167969 220.101562 366.683594 219.625 L 366.796875 219.167969 C 366.78125 219.132812 366.769531 219.097656 366.753906 219.058594 C 366.046875 217.390625 364.40625 216.3125 362.597656 216.316406 C 360.785156 216.324219 359.15625 217.417969 358.460938 219.089844 C 357.105469 222.355469 355.378906 225.628906 354.953125 229.082031 C 354.765625 230.609375 354.84375 232.15625 355.1875 233.65625 C 352 226.707031 350.347656 219.15625 350.335938 211.511719 C 350.335938 209.59375 350.441406 207.675781 350.65625 205.769531 C 350.832031 204.207031 351.074219 202.65625 351.390625 201.117188 C 353.097656 192.757812 356.761719 184.925781 362.085938 178.257812 C 364.660156 176.851562 366.746094 174.691406 368.054688 172.0625 C 368.527344 171.121094 368.863281 170.113281 369.050781 169.070312 C 368.757812 169.109375 368.464844 169.132812 368.171875 169.152344 C 368.082031 169.15625 367.988281 169.164062 367.898438 169.167969 L 367.863281 169.167969 C 367.210938 169.199219 366.601562 168.839844 366.308594 168.257812 C 366.011719 167.675781 366.089844 166.972656 366.5 166.464844 C 366.625 166.3125 366.75 166.15625 366.878906 166.003906 C 367.066406 165.765625 367.261719 165.53125 367.453125 165.292969 C 367.476562 165.269531 367.496094 165.246094 367.515625 165.222656 C 367.734375 164.949219 367.953125 164.683594 368.171875 164.414062 C 367.773438 163.792969 367.234375 163.269531 366.601562 162.890625 C 364.40625 161.605469 361.375 162.496094 359.789062 164.484375 C 358.195312 166.46875 357.898438 169.257812 358.449219 171.738281 C 358.992188 173.851562 359.890625 175.855469 361.109375 177.667969 C 360.988281 177.820312 360.863281 177.964844 360.746094 178.117188 C 358.570312 180.917969 356.671875 183.925781 355.082031 187.09375 C 355.46875 183.542969 355.003906 179.953125 353.734375 176.613281 C 352.445312 173.503906 350.027344 170.882812 347.898438 168.195312 C 345.339844 164.964844 340.097656 166.371094 339.648438 170.46875 C 339.644531 170.507812 339.640625 170.546875 339.636719 170.585938 C 339.953125 170.765625 340.261719 170.953125 340.5625 171.15625 C 341.34375 171.675781 341.722656 172.621094 341.519531 173.535156 C 341.316406 174.449219 340.574219 175.144531 339.648438 175.285156 L 339.601562 175.292969 C 339.714844 176.433594 339.914062 177.5625 340.199219 178.671875 C 341.859375 184.933594 346.058594 190.214844 351.78125 193.25 C 351.964844 193.347656 352.144531 193.441406 352.332031 193.53125 C 350.734375 198.0625 349.730469 202.777344 349.351562 207.566406 C 349.132812 210.390625 349.144531 213.230469 349.386719 216.050781 L 349.375 215.953125 C 348.761719 212.8125 347.089844 209.980469 344.632812 207.933594 C 340.984375 204.9375 335.832031 203.832031 331.894531 201.425781 C 331.042969 200.875 329.945312 200.875 329.089844 201.417969 C 328.234375 201.960938 327.769531 202.953125 327.902344 203.960938 C 327.910156 203.996094 327.914062 204.03125 327.921875 204.066406 C 328.507812 204.304688 329.078125 204.578125 329.628906 204.890625 C 329.945312 205.066406 330.257812 205.257812 330.558594 205.457031 C 331.335938 205.976562 331.714844 206.921875 331.515625 207.835938 C 331.3125 208.75 330.570312 209.445312 329.644531 209.589844 L 329.597656 209.597656 C 329.5625 209.601562 329.535156 209.605469 329.5 209.609375 C 330.503906 212.003906 331.910156 214.207031 333.660156 216.125 C 338.03125 220.8125 344.136719 223.492188 350.546875 223.53125 L 350.550781 223.53125 C 351.410156 227.273438 352.65625 230.914062 354.269531 234.394531 L 367.5625 234.394531 C 367.609375 234.246094 367.652344 234.09375 367.695312 233.945312 C 366.464844 234.023438 365.230469 233.949219 364.019531 233.726562 C 365.003906 232.519531 365.992188 231.296875 366.976562 230.089844 C 367 230.066406 367.019531 230.042969 367.039062 230.015625 C 367.539062 229.398438 368.042969 228.78125 368.546875 228.164062 C 368.570312 226.265625 368.355469 224.371094 367.898438 222.527344 Z M 352.675781 192.582031 L 352.683594 192.574219 L 352.675781 192.59375 Z M 349.730469 219.125 L 349.617188 218.867188 C 349.621094 218.683594 349.621094 218.496094 349.617188 218.304688 C 349.617188 218.253906 349.605469 218.199219 349.605469 218.148438 C 349.648438 218.476562 349.6875 218.804688 349.734375 219.136719 Z M 349.730469 219.125 "/>
<path style=" stroke:none;fill-rule:nonzero;fill:rgb(79.215686%,79.215686%,79.215686%);fill-opacity:1;" d="M 398.269531 66.734375 L 298.652344 66.734375 C 298.207031 66.722656 297.847656 66.355469 297.847656 65.910156 C 297.847656 65.460938 298.207031 65.09375 298.652344 65.085938 L 398.269531 65.085938 C 398.71875 65.09375 399.078125 65.460938 399.078125 65.910156 C 399.078125 66.355469 398.71875 66.722656 398.269531 66.734375 Z M 398.269531 66.734375 "/>
<path style=" stroke:none;fill-rule:nonzero;fill:rgb(24.705882%,23.921569%,33.72549%);fill-opacity:1;" d="M 306.390625 60.222656 C 306.390625 58.855469 305.304688 57.746094 303.96875 57.746094 C 302.628906 57.746094 301.546875 58.855469 301.546875 60.222656 C 301.546875 61.589844 302.628906 62.699219 303.96875 62.699219 C 305.304688 62.699219 306.390625 61.589844 306.390625 60.222656 Z M 306.390625 60.222656 "/>
<path style=" stroke:none;fill-rule:nonzero;fill:rgb(24.705882%,23.921569%,33.72549%);fill-opacity:1;" d="M 314.761719 60.222656 C 314.761719 58.855469 313.675781 57.746094 312.339844 57.746094 C 311 57.746094 309.914062 58.855469 309.914062 60.222656 C 309.914062 61.589844 311 62.699219 312.339844 62.699219 C 313.675781 62.699219 314.761719 61.589844 314.761719 60.222656 Z M 314.761719 60.222656 "/>
<path style=" stroke:none;fill-rule:nonzero;fill:rgb(24.705882%,23.921569%,33.72549%);fill-opacity:1;" d="M 323.132812 60.222656 C 323.132812 58.855469 322.046875 57.746094 320.710938 57.746094 C 319.371094 57.746094 318.285156 58.855469 318.285156 60.222656 C 318.285156 61.589844 319.371094 62.699219 320.710938 62.699219 C 322.046875 62.699219 323.132812 61.589844 323.132812 60.222656 Z M 323.132812 60.222656 "/>
<path style=" stroke:none;fill-rule:nonzero;fill:rgb(24.705882%,23.921569%,33.72549%);fill-opacity:1;" d="M 394.375 58.703125 L 388.953125 58.703125 C 388.730469 58.707031 388.550781 58.890625 388.550781 59.113281 C 388.550781 59.335938 388.730469 59.519531 388.953125 59.523438 L 394.375 59.523438 C 394.601562 59.519531 394.777344 59.335938 394.777344 59.113281 C 394.777344 58.890625 394.601562 58.707031 394.375 58.703125 Z M 394.375 58.703125 "/>
<path style=" stroke:none;fill-rule:nonzero;fill:rgb(24.705882%,23.921569%,33.72549%);fill-opacity:1;" d="M 394.375 60.246094 L 388.953125 60.246094 C 388.730469 60.25 388.550781 60.429688 388.550781 60.65625 C 388.550781 60.878906 388.730469 61.0625 388.953125 61.066406 L 394.375 61.066406 C 394.601562 61.0625 394.777344 60.878906 394.777344 60.65625 C 394.777344 60.429688 394.601562 60.25 394.375 60.246094 Z M 394.375 60.246094 "/>
<path style=" stroke:none;fill-rule:nonzero;fill:rgb(24.705882%,23.921569%,33.72549%);fill-opacity:1;" d="M 394.375 61.785156 L 388.953125 61.785156 C 388.730469 61.789062 388.550781 61.96875 388.550781 62.195312 C 388.550781 62.417969 388.730469 62.601562 388.953125 62.605469 L 394.375 62.605469 C 394.601562 62.601562 394.777344 62.417969 394.777344 62.195312 C 394.777344 61.96875 394.601562 61.789062 394.375 61.785156 Z M 394.375 61.785156 "/>
<path style=" stroke:none;fill-rule:nonzero;fill:rgb(90.196078%,90.196078%,90.196078%);fill-opacity:1;" d="M 232.75 142.382812 L 174.996094 142.382812 C 173.292969 142.386719 171.914062 143.765625 171.917969 145.46875 L 171.917969 236.703125 L 235.835938 236.703125 L 235.835938 145.46875 C 235.835938 144.652344 235.507812 143.867188 234.929688 143.285156 C 234.351562 142.707031 233.566406 142.382812 232.75 142.382812 Z M 204.066406 194.222656 C 200.308594 194.207031 197.261719 191.164062 197.246094 187.402344 L 197.246094 176.878906 C 197.25 173.117188 200.300781 170.066406 204.066406 170.066406 C 207.832031 170.066406 210.882812 173.117188 210.886719 176.878906 L 210.886719 187.402344 C 210.867188 191.164062 207.824219 194.207031 204.066406 194.222656 Z M 204.066406 194.222656 "/>
<path style=" stroke:none;fill-rule:nonzero;fill:rgb(80%,80%,80%);fill-opacity:1;" d="M 171.71875 233.785156 L 171.71875 242.589844 C 171.722656 243.539062 172.492188 244.308594 173.441406 244.308594 L 234.3125 244.308594 C 235.261719 244.304688 236.027344 243.539062 236.03125 242.589844 L 236.03125 233.785156 Z M 171.71875 233.785156 "/>
<path style=" stroke:none;fill-rule:nonzero;fill:rgb(90.196078%,90.196078%,90.196078%);fill-opacity:1;" d="M 328.386719 0 L 81.507812 0 C 77.089844 0.0078125 73.511719 3.585938 73.503906 8 L 73.503906 174.597656 C 73.507812 179.015625 77.089844 182.59375 81.507812 182.597656 L 328.386719 182.597656 C 332.804688 182.59375 336.382812 179.015625 336.386719 174.597656 L 336.386719 8 C 336.378906 3.585938 332.800781 0.0078125 328.386719 0 Z M 328.386719 0 "/>
<path style=" stroke:none;fill-rule:nonzero;fill:rgb(100%,100%,100%);fill-opacity:1;" d="M 326.324219 5.78125 L 83.570312 5.78125 C 81.203125 5.785156 79.289062 7.703125 79.289062 10.066406 L 79.289062 172.535156 C 79.292969 174.894531 81.207031 176.808594 83.570312 176.8125 L 326.324219 176.8125 C 328.6875 176.808594 330.601562 174.894531 330.605469 172.535156 L 330.605469 10.066406 C 330.605469 7.703125 328.691406 5.785156 326.324219 5.78125 Z M 326.324219 5.78125 "/>
<path style=" stroke:none;fill-rule:nonzero;fill:rgb(100%,86.666667%,82.745098%);fill-opacity:1;" d="M 330.605469 10.066406 L 330.605469 172.535156 C 330.601562 174.894531 328.6875 176.808594 326.324219 176.8125 L 240.722656 176.8125 C 231.253906 168.03125 223.484375 157.578125 217.808594 145.976562 C 217.433594 145.230469 217.078125 144.472656 216.738281 143.710938 C 211.566406 132.480469 208.433594 120.421875 207.488281 108.097656 C 207.425781 107.339844 207.371094 106.585938 207.335938 105.820312 C 207.21875 103.863281 207.167969 101.878906 207.167969 99.886719 C 207.148438 86.632812 209.652344 73.496094 214.542969 61.175781 C 214.835938 60.414062 215.148438 59.65625 215.46875 58.898438 C 225.308594 35.78125 243.085938 16.941406 265.597656 5.78125 L 326.324219 5.78125 C 328.691406 5.785156 330.605469 7.703125 330.605469 10.066406 Z M 330.605469 10.066406 "/>
<path style=" stroke:none;fill-rule:nonzero;fill:rgb(79.215686%,79.215686%,79.215686%);fill-opacity:1;" d="M 314.121094 28.164062 L 86.976562 28.164062 C 86.484375 28.152344 86.09375 27.75 86.09375 27.261719 C 86.09375 26.769531 86.484375 26.367188 86.976562 26.355469 L 314.121094 26.355469 C 314.613281 26.367188 315.007812 26.769531 315.007812 27.261719 C 315.007812 27.75 314.613281 28.152344 314.121094 28.164062 Z M 314.121094 28.164062 "/>
<path style=" stroke:none;fill-rule:nonzero;fill:rgb(24.705882%,23.921569%,33.72549%);fill-opacity:1;" d="M 107.730469 16.332031 C 107.730469 13.34375 105.363281 10.921875 102.4375 10.921875 C 99.515625 10.921875 97.144531 13.34375 97.144531 16.332031 C 97.144531 19.320312 99.515625 21.746094 102.4375 21.746094 C 105.363281 21.746094 107.730469 19.320312 107.730469 16.332031 Z M 107.730469 16.332031 "/>
<path style=" stroke:none;fill-rule:nonzero;fill:rgb(24.705882%,23.921569%,33.72549%);fill-opacity:1;" d="M 126.019531 16.332031 C 126.019531 13.34375 123.648438 10.921875 120.726562 10.921875 C 117.800781 10.921875 115.433594 13.34375 115.433594 16.332031 C 115.433594 19.320312 117.800781 21.746094 120.726562 21.746094 C 123.648438 21.746094 126.019531 19.320312 126.019531 16.332031 Z M 126.019531 16.332031 "/>
<path style=" stroke:none;fill-rule:nonzero;fill:rgb(24.705882%,23.921569%,33.72549%);fill-opacity:1;" d="M 144.308594 16.332031 C 144.308594 13.34375 141.9375 10.921875 139.011719 10.921875 C 136.089844 10.921875 133.71875 13.34375 133.71875 16.332031 C 133.71875 19.320312 136.089844 21.746094 139.011719 21.746094 C 141.9375 21.746094 144.308594 19.320312 144.308594 16.332031 Z M 144.308594 16.332031 "/>
<path style=" stroke:none;fill-rule:nonzero;fill:rgb(24.705882%,23.921569%,33.72549%);fill-opacity:1;" d="M 303.113281 12.261719 L 290.121094 12.261719 C 289.585938 12.273438 289.15625 12.710938 289.15625 13.246094 C 289.15625 13.78125 289.585938 14.21875 290.121094 14.230469 L 303.113281 14.230469 C 303.648438 14.21875 304.078125 13.78125 304.078125 13.246094 C 304.078125 12.710938 303.648438 12.273438 303.113281 12.261719 Z M 303.113281 12.261719 "/>
<path style=" stroke:none;fill-rule:nonzero;fill:rgb(24.705882%,23.921569%,33.72549%);fill-opacity:1;" d="M 303.113281 15.953125 L 290.121094 15.953125 C 289.585938 15.964844 289.15625 16.402344 289.15625 16.9375 C 289.15625 17.472656 289.585938 17.910156 290.121094 17.921875 L 303.113281 17.921875 C 303.648438 17.910156 304.078125 17.472656 304.078125 16.9375 C 304.078125 16.402344 303.648438 15.964844 303.113281 15.953125 Z M 303.113281 15.953125 "/>
<path style=" stroke:none;fill-rule:nonzero;fill:rgb(24.705882%,23.921569%,33.72549%);fill-opacity:1;" d="M 303.113281 19.640625 L 290.121094 19.640625 C 289.585938 19.652344 289.15625 20.089844 289.15625 20.625 C 289.15625 21.160156 289.585938 21.597656 290.121094 21.609375 L 303.113281 21.609375 C 303.648438 21.597656 304.078125 21.160156 304.078125 20.625 C 304.078125 20.089844 303.648438 19.652344 303.113281 19.640625 Z M 303.113281 19.640625 "/>
<path style=" stroke:none;fill-rule:nonzero;fill:rgb(100%,86.666667%,82.745098%);fill-opacity:1;" d="M 124.761719 80.933594 L 156.527344 80.933594 C 157.722656 80.933594 158.695312 81.90625 158.695312 83.105469 L 158.695312 86.484375 C 158.695312 87.683594 157.722656 88.65625 156.527344 88.65625 L 124.761719 88.65625 C 123.5625 88.65625 122.589844 87.683594 122.589844 86.484375 L 122.589844 83.105469 C 122.589844 81.90625 123.5625 80.933594 124.761719 80.933594 Z M 124.761719 80.933594 "/>
<path style=" stroke:none;fill-rule:nonzero;fill:rgb(90.196078%,90.196078%,90.196078%);fill-opacity:1;" d="M 106.425781 96.375 L 174.859375 96.375 C 176.058594 96.375 177.03125 97.347656 177.03125 98.546875 L 177.03125 101.925781 C 177.03125 103.125 176.058594 104.097656 174.859375 104.097656 L 106.425781 104.097656 C 105.226562 104.097656 104.257812 103.125 104.257812 101.925781 L 104.257812 98.546875 C 104.257812 97.347656 105.226562 96.375 106.425781 96.375 Z M 106.425781 96.375 "/>
<path style=" stroke:none;fill-rule:nonzero;fill:rgb(90.196078%,90.196078%,90.196078%);fill-opacity:1;" d="M 106.425781 111.816406 L 174.859375 111.816406 C 176.058594 111.816406 177.03125 112.789062 177.03125 113.984375 L 177.03125 117.367188 C 177.03125 118.566406 176.058594 119.535156 174.859375 119.535156 L 106.425781 119.535156 C 105.226562 119.535156 104.257812 118.566406 104.257812 117.367188 L 104.257812 113.984375 C 104.257812 112.789062 105.226562 111.816406 106.425781 111.816406 Z M 106.425781 111.816406 "/>
<path style=" stroke:none;fill-rule:nonzero;fill:rgb(100%,86.666667%,82.745098%);fill-opacity:1;" d="M 110.195312 167.5 C 110.203125 170.679688 109.632812 173.832031 108.523438 176.8125 L 83.570312 176.8125 C 81.207031 176.808594 79.292969 174.894531 79.289062 172.535156 L 79.289062 141.148438 C 80.683594 140.921875 82.09375 140.808594 83.507812 140.808594 C 98.246094 140.808594 110.195312 152.757812 110.195312 167.5 Z M 110.195312 167.5 "/>
<use xlink:href="#surface5" mask="url(#mask0)"/>
<path style=" stroke:none;fill-rule:nonzero;fill:rgb(18.431373%,18.039216%,25.490196%);fill-opacity:1;" d="M 300.089844 159.957031 C 299.09375 160.003906 298.171875 159.421875 297.789062 158.5 C 297.402344 157.578125 297.632812 156.515625 298.367188 155.835938 C 298.429688 155.597656 298.472656 155.429688 298.53125 155.191406 C 298.507812 155.136719 298.488281 155.085938 298.464844 155.035156 C 296.277344 149.816406 288.859375 149.851562 286.691406 155.078125 C 284.761719 159.71875 282.3125 164.363281 281.707031 169.269531 C 281.441406 171.4375 281.554688 173.632812 282.039062 175.765625 C 277.515625 165.894531 275.164062 155.171875 275.152344 144.3125 C 275.148438 141.589844 275.300781 138.867188 275.605469 136.160156 C 275.855469 133.941406 276.203125 131.738281 276.644531 129.550781 C 279.070312 117.679688 284.277344 106.554688 291.835938 97.085938 C 295.496094 95.089844 298.453125 92.019531 300.316406 88.289062 C 300.988281 86.949219 301.464844 85.515625 301.730469 84.039062 C 301.316406 84.09375 300.898438 84.128906 300.484375 84.15625 C 300.355469 84.160156 300.21875 84.167969 300.089844 84.175781 L 300.042969 84.175781 C 299.117188 84.21875 298.25 83.710938 297.832031 82.882812 C 297.417969 82.054688 297.523438 81.058594 298.109375 80.339844 C 298.285156 80.121094 298.464844 79.902344 298.644531 79.683594 C 298.914062 79.34375 299.191406 79.011719 299.460938 78.675781 C 299.492188 78.640625 299.523438 78.609375 299.550781 78.574219 C 299.863281 78.1875 300.171875 77.808594 300.484375 77.421875 C 299.914062 76.539062 299.152344 75.800781 298.25 75.265625 C 295.132812 73.4375 290.828125 74.703125 288.574219 77.523438 C 286.316406 80.34375 285.890625 84.304688 286.671875 87.828125 C 287.34375 90.847656 288.804688 93.613281 290.449219 96.246094 C 290.28125 96.460938 290.105469 96.671875 289.933594 96.890625 C 286.84375 100.867188 284.148438 105.136719 281.886719 109.636719 C 282.4375 104.59375 281.78125 99.492188 279.976562 94.75 C 278.144531 90.332031 274.710938 86.613281 271.6875 82.792969 C 268.058594 78.203125 260.609375 80.207031 259.972656 86.023438 C 259.964844 86.078125 259.960938 86.136719 259.953125 86.191406 C 260.402344 86.445312 260.84375 86.714844 261.273438 87 C 262.378906 87.738281 262.917969 89.078125 262.628906 90.378906 C 262.339844 91.675781 261.285156 92.664062 259.972656 92.867188 L 259.90625 92.875 C 260.066406 94.496094 260.347656 96.097656 260.75 97.675781 C 263.113281 106.566406 269.074219 114.070312 277.199219 118.378906 C 277.464844 118.515625 277.722656 118.648438 277.984375 118.777344 C 275.714844 125.210938 274.292969 131.910156 273.75 138.710938 C 273.441406 142.722656 273.460938 146.753906 273.804688 150.761719 L 273.785156 150.621094 C 272.917969 146.164062 270.539062 142.140625 267.050781 139.234375 C 261.871094 134.976562 254.550781 133.410156 248.960938 129.988281 C 246.269531 128.339844 242.824219 130.46875 243.292969 133.589844 C 243.300781 133.640625 243.308594 133.6875 243.316406 133.738281 C 244.148438 134.078125 244.960938 134.46875 245.746094 134.910156 C 246.191406 135.164062 246.632812 135.429688 247.0625 135.714844 C 248.167969 136.453125 248.707031 137.796875 248.417969 139.09375 C 248.132812 140.394531 247.078125 141.382812 245.761719 141.585938 L 245.695312 141.59375 C 245.648438 141.601562 245.609375 141.609375 245.5625 141.613281 C 246.984375 145.015625 248.984375 148.144531 251.46875 150.863281 C 257.671875 157.523438 266.347656 161.328125 275.449219 161.386719 L 275.457031 161.386719 C 276.675781 166.699219 278.449219 171.867188 280.738281 176.8125 L 299.617188 176.8125 C 299.683594 176.601562 299.746094 176.386719 299.808594 176.175781 C 298.058594 176.285156 296.304688 176.183594 294.582031 175.867188 C 295.984375 174.148438 297.386719 172.414062 298.785156 170.695312 C 298.816406 170.664062 298.847656 170.628906 298.875 170.59375 C 299.582031 169.714844 300.300781 168.84375 301.011719 167.960938 C 301.050781 165.265625 300.742188 162.574219 300.089844 159.957031 Z M 278.472656 117.433594 L 278.484375 117.417969 L 278.472656 117.445312 Z M 274.292969 155.128906 L 274.128906 154.761719 C 274.136719 154.496094 274.136719 154.234375 274.128906 153.964844 C 274.128906 153.890625 274.117188 153.8125 274.117188 153.738281 C 274.175781 154.207031 274.230469 154.671875 274.296875 155.140625 Z M 274.292969 155.128906 "/>
<path style=" stroke:none;fill-rule:nonzero;fill:rgb(90.196078%,90.196078%,90.196078%);fill-opacity:1;" d="M 131.988281 115.804688 L 131.988281 90.433594 C 131.988281 82.324219 125.414062 75.75 117.304688 75.75 L 63.550781 75.75 C 55.441406 75.75 48.867188 82.324219 48.867188 90.433594 L 48.867188 229.625 C 48.867188 237.734375 55.441406 244.308594 63.550781 244.308594 L 117.304688 244.308594 C 125.414062 244.308594 131.988281 237.734375 131.988281 229.625 L 131.988281 133.867188 C 132.5 133.867188 132.914062 133.453125 132.914062 132.941406 L 132.914062 116.730469 C 132.914062 116.21875 132.5 115.804688 131.988281 115.804688 Z M 131.988281 115.804688 "/>
<path style=" stroke:none;fill-rule:nonzero;fill:rgb(100%,100%,100%);fill-opacity:1;" d="M 128.863281 90.535156 L 128.863281 229.523438 C 128.863281 235.535156 124.027344 240.421875 118.019531 240.484375 C 117.976562 240.488281 117.9375 240.492188 117.898438 240.488281 L 63.882812 240.488281 C 57.828125 240.488281 52.917969 235.582031 52.917969 229.523438 L 52.917969 90.535156 C 52.917969 84.480469 57.828125 79.570312 63.882812 79.570312 L 70.4375 79.570312 C 69.785156 81.175781 69.972656 83.003906 70.941406 84.445312 C 71.90625 85.882812 73.527344 86.75 75.261719 86.75 L 106.058594 86.75 C 107.792969 86.746094 109.410156 85.878906 110.375 84.441406 C 111.34375 83 111.53125 81.175781 110.878906 79.570312 L 117.898438 79.570312 C 123.953125 79.570312 128.863281 84.480469 128.863281 90.535156 Z M 128.863281 90.535156 "/>
<path style=" stroke:none;fill-rule:nonzero;fill:rgb(94.901961%,94.901961%,94.901961%);fill-opacity:1;" d="M 118.152344 236.199219 C 118.152344 237.640625 118.109375 239.066406 118.019531 240.484375 C 117.976562 240.488281 117.9375 240.492188 117.898438 240.488281 L 63.882812 240.488281 C 57.828125 240.488281 52.917969 235.582031 52.917969 229.523438 L 52.917969 167.585938 C 89.46875 169.429688 118.15625 199.601562 118.152344 236.199219 Z M 118.152344 236.199219 "/>
<path style=" stroke:none;fill-rule:nonzero;fill:rgb(90.196078%,90.196078%,90.196078%);fill-opacity:1;" d="M 49.164062 130 C 48.472656 130 47.914062 129.441406 47.914062 128.75 L 47.914062 120.25 C 47.914062 119.558594 48.472656 119 49.164062 119 C 49.851562 119 50.414062 119.558594 50.414062 120.25 L 50.414062 128.75 C 50.414062 129.441406 49.851562 130 49.164062 130 Z M 49.164062 130 "/>
<path style=" stroke:none;fill-rule:nonzero;fill:rgb(100%,86.666667%,82.745098%);fill-opacity:1;" d="M 84.257812 123.210938 L 97.523438 123.210938 C 98.722656 123.210938 99.691406 124.183594 99.691406 125.382812 L 99.691406 128.761719 C 99.691406 129.960938 98.722656 130.933594 97.523438 130.933594 L 84.257812 130.933594 C 83.058594 130.933594 82.089844 129.960938 82.089844 128.761719 L 82.089844 125.382812 C 82.089844 124.183594 83.058594 123.210938 84.257812 123.210938 Z M 84.257812 123.210938 "/>
<path style=" stroke:none;fill-rule:nonzero;fill:rgb(90.196078%,90.196078%,90.196078%);fill-opacity:1;" d="M 65.921875 138.652344 L 115.859375 138.652344 C 117.058594 138.652344 118.027344 139.625 118.027344 140.824219 L 118.027344 144.203125 C 118.027344 145.402344 117.058594 146.375 115.859375 146.375 L 65.921875 146.375 C 64.722656 146.375 63.753906 145.402344 63.753906 144.203125 L 63.753906 140.824219 C 63.753906 139.625 64.722656 138.652344 65.921875 138.652344 Z M 65.921875 138.652344 "/>
<path style=" stroke:none;fill-rule:nonzero;fill:rgb(90.196078%,90.196078%,90.196078%);fill-opacity:1;" d="M 65.921875 154.09375 L 115.859375 154.09375 C 117.058594 154.09375 118.027344 155.066406 118.027344 156.261719 L 118.027344 159.644531 C 118.027344 160.84375 117.058594 161.8125 115.859375 161.8125 L 65.921875 161.8125 C 64.722656 161.8125 63.753906 160.84375 63.753906 159.644531 L 63.753906 156.261719 C 63.753906 155.066406 64.722656 154.09375 65.921875 154.09375 Z M 65.921875 154.09375 "/>
<path style=" stroke:none;fill-rule:nonzero;fill:rgb(80%,80%,80%);fill-opacity:1;" d="M 103.84375 232.582031 C 103.375 232.601562 102.945312 232.328125 102.761719 231.894531 C 102.582031 231.464844 102.691406 230.964844 103.035156 230.648438 L 103.109375 230.34375 C 103.101562 230.320312 103.089844 230.292969 103.082031 230.269531 C 102.609375 229.15625 101.519531 228.4375 100.3125 228.441406 C 99.105469 228.445312 98.015625 229.175781 97.554688 230.289062 C 96.652344 232.46875 95.5 234.648438 95.214844 236.949219 C 95.089844 237.96875 95.144531 239 95.371094 239.996094 C 93.25 235.367188 92.148438 230.332031 92.140625 225.238281 C 92.140625 223.960938 92.210938 222.683594 92.351562 221.414062 C 92.46875 220.371094 92.632812 219.335938 92.839844 218.3125 C 93.980469 212.742188 96.421875 207.519531 99.96875 203.078125 C 101.6875 202.140625 103.074219 200.699219 103.949219 198.949219 C 104.265625 198.320312 104.488281 197.648438 104.613281 196.953125 C 104.417969 196.980469 104.222656 196.996094 104.027344 197.007812 C 103.96875 197.011719 103.902344 197.015625 103.84375 197.019531 L 103.820312 197.019531 C 103.386719 197.039062 102.980469 196.800781 102.785156 196.414062 C 102.589844 196.023438 102.640625 195.554688 102.914062 195.21875 C 102.996094 195.117188 103.082031 195.011719 103.164062 194.910156 C 103.292969 194.75 103.421875 194.59375 103.546875 194.4375 C 103.5625 194.421875 103.578125 194.40625 103.589844 194.390625 C 103.734375 194.207031 103.882812 194.03125 104.027344 193.847656 C 103.761719 193.433594 103.402344 193.089844 102.980469 192.835938 C 101.515625 191.980469 99.496094 192.574219 98.4375 193.898438 C 97.378906 195.222656 97.179688 197.078125 97.546875 198.734375 C 97.910156 200.140625 98.507812 201.476562 99.320312 202.683594 C 99.238281 202.785156 99.15625 202.882812 99.078125 202.984375 C 97.625 204.851562 96.363281 206.855469 95.300781 208.964844 C 95.558594 206.601562 95.25 204.207031 94.402344 201.980469 C 93.542969 199.90625 91.933594 198.160156 90.515625 196.371094 C 89.746094 195.382812 88.460938 194.960938 87.257812 195.289062 C 86.054688 195.621094 85.171875 196.644531 85.015625 197.886719 C 85.015625 197.910156 85.011719 197.9375 85.007812 197.964844 C 85.21875 198.082031 85.425781 198.210938 85.625 198.34375 C 86.144531 198.691406 86.398438 199.320312 86.265625 199.929688 C 86.128906 200.539062 85.632812 201 85.015625 201.097656 L 84.984375 201.101562 C 85.0625 201.859375 85.195312 202.613281 85.382812 203.351562 C 86.492188 207.523438 89.289062 211.046875 93.101562 213.070312 C 93.226562 213.132812 93.347656 213.195312 93.46875 213.257812 C 92.40625 216.273438 91.738281 219.417969 91.484375 222.609375 C 91.339844 224.492188 91.347656 226.382812 91.507812 228.265625 L 91.5 228.199219 C 91.09375 226.105469 89.976562 224.21875 88.339844 222.855469 C 85.90625 220.859375 82.472656 220.121094 79.851562 218.515625 C 79.28125 218.152344 78.550781 218.148438 77.980469 218.511719 C 77.410156 218.875 77.101562 219.535156 77.191406 220.207031 L 77.199219 220.277344 C 77.589844 220.4375 77.972656 220.621094 78.339844 220.824219 C 78.550781 220.945312 78.757812 221.070312 78.960938 221.203125 C 79.476562 221.550781 79.730469 222.179688 79.597656 222.789062 C 79.460938 223.398438 78.964844 223.863281 78.347656 223.957031 L 78.316406 223.964844 C 78.296875 223.964844 78.277344 223.96875 78.253906 223.972656 C 78.921875 225.566406 79.859375 227.035156 81.027344 228.3125 C 83.9375 231.4375 88.007812 233.222656 92.28125 233.25 C 92.855469 235.742188 93.6875 238.167969 94.761719 240.488281 L 103.621094 240.488281 C 103.652344 240.390625 103.679688 240.289062 103.710938 240.191406 C 102.890625 240.242188 102.066406 240.195312 101.257812 240.046875 C 101.917969 239.238281 102.574219 238.425781 103.230469 237.621094 C 103.246094 237.605469 103.257812 237.589844 103.273438 237.570312 C 103.605469 237.160156 103.941406 236.75 104.273438 236.335938 L 104.277344 236.335938 C 104.292969 235.070312 104.148438 233.808594 103.84375 232.582031 Z M 93.699219 212.625 L 93.703125 212.617188 L 93.699219 212.628906 Z M 91.738281 230.3125 L 91.660156 230.140625 C 91.664062 230.019531 91.664062 229.894531 91.660156 229.765625 C 91.660156 229.730469 91.652344 229.699219 91.652344 229.664062 C 91.683594 229.882812 91.707031 230.101562 91.738281 230.320312 Z M 91.738281 230.3125 "/>
<path style=" stroke:none;fill-rule:nonzero;fill:rgb(90.196078%,90.196078%,90.196078%);fill-opacity:1;" d="M 48.914062 113.5 C 48.222656 113.5 47.664062 112.941406 47.664062 112.25 L 47.664062 103.75 C 47.664062 103.058594 48.222656 102.5 48.914062 102.5 C 49.601562 102.5 50.164062 103.058594 50.164062 103.75 L 50.164062 112.25 C 50.164062 112.941406 49.601562 113.5 48.914062 113.5 Z M 48.914062 113.5 "/>
<path style=" stroke:none;fill-rule:nonzero;fill:rgb(100%,100%,100%);fill-opacity:1;" d="M 82.164062 81 C 82.164062 80.308594 82.722656 79.75 83.414062 79.75 L 91.914062 79.75 C 92.601562 79.75 93.164062 80.308594 93.164062 81 C 93.164062 81.691406 92.601562 82.25 91.914062 82.25 L 83.414062 82.25 C 82.722656 82.25 82.164062 81.691406 82.164062 81 Z M 82.164062 81 "/>
<path style=" stroke:none;fill-rule:nonzero;fill:rgb(90.196078%,90.196078%,90.196078%);fill-opacity:1;" d="M 49.164062 144.5 C 48.472656 144.5 47.914062 143.941406 47.914062 143.25 L 47.914062 134.75 C 47.914062 134.058594 48.472656 133.5 49.164062 133.5 C 49.851562 133.5 50.414062 134.058594 50.414062 134.75 L 50.414062 143.25 C 50.414062 143.941406 49.851562 144.5 49.164062 144.5 Z M 49.164062 144.5 "/>
<path style=" stroke:none;fill-rule:nonzero;fill:rgb(100%,100%,100%);fill-opacity:1;" d="M 97.914062 81 C 97.914062 81.691406 97.351562 82.25 96.664062 82.25 C 95.972656 82.25 95.414062 81.691406 95.414062 81 C 95.414062 80.308594 95.972656 79.75 96.664062 79.75 C 97.351562 79.75 97.914062 80.308594 97.914062 81 Z M 97.914062 81 "/>
<path style=" stroke:none;fill-rule:nonzero;fill:rgb(79.215686%,79.215686%,79.215686%);fill-opacity:1;" d="M 429.46875 244.304688 L 0.59375 244.460938 C 0.265625 244.460938 0 244.191406 0 243.863281 C 0 243.535156 0.265625 243.269531 0.59375 243.269531 L 429.46875 243.117188 C 429.800781 243.117188 430.066406 243.382812 430.066406 243.710938 C 430.066406 244.039062 429.800781 244.304688 429.46875 244.304688 Z M 429.46875 244.304688 "/>
<path style=" stroke:none;fill-rule:nonzero;fill:rgb(18.431373%,18.039216%,25.490196%);fill-opacity:1;" d="M 183.386719 113.054688 L 181.128906 113.535156 C 181.117188 112.59375 181 111.652344 180.78125 110.734375 C 180.574219 111.859375 180.144531 112.929688 179.511719 113.882812 L 166.570312 116.644531 L 154.148438 103.535156 C 154.132812 96.980469 157.769531 92 164.296875 92 C 164.691406 92 165.097656 92.019531 165.511719 92.058594 C 172.839844 90.832031 179.824219 95.625 181.3125 102.90625 C 185.9375 107.460938 184.257812 110.136719 183.386719 113.054688 Z M 183.386719 113.054688 "/>
<path style=" stroke:none;fill-rule:nonzero;fill:rgb(100%,71.372549%,71.372549%);fill-opacity:1;" d="M 189.746094 266.355469 L 194.441406 266.355469 L 196.671875 248.253906 L 189.746094 248.253906 Z M 189.746094 266.355469 "/>
<path style=" stroke:none;fill-rule:nonzero;fill:rgb(18.431373%,18.039216%,25.490196%);fill-opacity:1;" d="M 188.582031 264.039062 L 196.003906 263.597656 L 196.003906 266.777344 L 203.054688 271.648438 C 203.769531 272.140625 204.082031 273.042969 203.824219 273.871094 C 203.566406 274.703125 202.796875 275.265625 201.925781 275.265625 L 193.09375 275.265625 L 191.574219 272.121094 L 190.976562 275.265625 L 187.648438 275.265625 Z M 188.582031 264.039062 "/>
<path style=" stroke:none;fill-rule:nonzero;fill:rgb(100%,71.372549%,71.372549%);fill-opacity:1;" d="M 134.765625 261.246094 L 138.847656 263.5625 L 149.722656 248.921875 L 143.699219 245.503906 Z M 134.765625 261.246094 "/>
<path style=" stroke:none;fill-rule:nonzero;fill:rgb(18.431373%,18.039216%,25.490196%);fill-opacity:1;" d="M 134.894531 258.660156 L 141.566406 261.933594 L 140 264.699219 L 143.730469 272.417969 C 144.105469 273.199219 143.933594 274.136719 143.296875 274.730469 C 142.664062 275.324219 141.71875 275.4375 140.960938 275.007812 L 133.28125 270.648438 L 133.507812 267.164062 L 131.4375 269.605469 L 128.542969 267.960938 Z M 134.894531 258.660156 "/>
<path style=" stroke:none;fill-rule:nonzero;fill:rgb(100%,71.372549%,71.372549%);fill-opacity:1;" d="M 207.09375 116.222656 C 205.878906 116.402344 204.800781 117.105469 204.152344 118.152344 C 203.507812 119.199219 203.359375 120.480469 203.746094 121.644531 L 196.5625 127.863281 L 199.277344 133.148438 L 209.292969 124.226562 C 211.257812 123.429688 212.3125 121.289062 211.75 119.25 C 211.1875 117.207031 209.1875 115.90625 207.09375 116.222656 Z M 207.09375 116.222656 "/>
<path style=" stroke:none;fill-rule:nonzero;fill:rgb(18.431373%,18.039216%,25.490196%);fill-opacity:1;" d="M 199.863281 137.601562 C 197.46875 141.226562 192.097656 144.730469 184.128906 147.839844 C 183.242188 148.195312 182.246094 148.160156 181.382812 147.75 C 178.375 146.378906 176.445312 141.292969 176.265625 140.800781 L 170.441406 132.941406 C 170.339844 132.828125 167.617188 129.738281 167.925781 126.699219 C 168.070312 125.410156 168.765625 124.246094 169.839844 123.519531 C 174.246094 120.25 184.128906 131.601562 185.410156 133.109375 L 191.859375 129.179688 L 196.558594 127.085938 L 200.351562 122.46875 L 205.691406 127.929688 L 200.886719 135.570312 C 200.628906 136.285156 200.285156 136.96875 199.863281 137.601562 Z M 199.863281 137.601562 "/>
<path style=" stroke:none;fill-rule:nonzero;fill:rgb(18.431373%,18.039216%,25.490196%);fill-opacity:1;" d="M 183.113281 151.519531 C 183.113281 151.519531 196.914062 173.5 194.414062 176 C 191.914062 178.5 188.023438 179.15625 188.023438 179.15625 L 179.414062 168 Z M 183.113281 151.519531 "/>
<path style=" stroke:none;fill-rule:nonzero;fill:rgb(18.431373%,18.039216%,25.490196%);fill-opacity:1;" d="M 170.914062 121.5 L 177.417969 125.898438 C 183.628906 130.101562 186.296875 137.914062 183.953125 145.039062 L 182.121094 150.601562 Z M 170.914062 121.5 "/>
<path style=" stroke:none;fill-rule:nonzero;fill:rgb(18.431373%,18.039216%,25.490196%);fill-opacity:1;" d="M 159.414062 181.5 L 158.542969 184.527344 L 155.578125 221.050781 L 140.753906 248.675781 L 147.828125 253.726562 L 168.042969 227.449219 L 176.035156 201.359375 L 188.59375 259.117188 L 198.023438 258.445312 L 191.472656 178.359375 L 179.042969 155.820312 Z M 159.414062 181.5 "/>
<path style=" stroke:none;fill-rule:nonzero;fill:rgb(100%,86.666667%,82.745098%);fill-opacity:1;" d="M 169.808594 122.605469 L 178.859375 130.003906 C 180.84375 131.628906 182.277344 133.832031 182.949219 136.304688 C 183.257812 137.429688 183.402344 138.589844 183.382812 139.757812 L 183.113281 155.820312 L 191.414062 178 C 191.414062 178 168.914062 186.5 165.914062 179 C 162.914062 171.5 169.808594 122.605469 169.808594 122.605469 Z M 169.808594 122.605469 "/>
<path style=" stroke:none;fill-rule:nonzero;fill:rgb(18.431373%,18.039216%,25.490196%);fill-opacity:1;" d="M 172.515625 182.894531 C 161.273438 182.894531 158.535156 182.976562 158.359375 182.941406 L 158.179688 182.90625 L 158.179688 176.144531 L 160.914062 164 C 160.59375 160.230469 159.84375 155.257812 159.914062 151 C 160.15625 135.613281 159.402344 120.582031 159.402344 120.582031 L 165.351562 115.089844 L 168.054688 116.847656 L 173.066406 121.863281 C 178.894531 136.203125 183.519531 149.703125 183.546875 150.570312 L 183.914062 165.5 L 182.414062 171.5 C 175.628906 176.289062 181.828125 182.894531 172.515625 182.894531 Z M 172.515625 182.894531 "/>
<use xlink:href="#surface8" mask="url(#mask1)"/>
<path style=" stroke:none;fill-rule:nonzero;fill:rgb(100%,71.372549%,71.372549%);fill-opacity:1;" d="M 180.296875 104.433594 C 180.296875 109.433594 176.242188 113.488281 171.242188 113.488281 C 166.238281 113.488281 162.183594 109.433594 162.183594 104.433594 C 162.183594 99.429688 166.238281 95.375 171.242188 95.375 C 176.242188 95.375 180.296875 99.429688 180.296875 104.433594 Z M 180.296875 104.433594 "/>
<use xlink:href="#surface11" mask="url(#mask2)"/>
<path style=" stroke:none;fill-rule:nonzero;fill:rgb(100%,71.372549%,71.372549%);fill-opacity:1;" d="M 187.582031 148.300781 C 186.765625 147.382812 185.582031 146.875 184.351562 146.910156 C 183.121094 146.949219 181.972656 147.527344 181.210938 148.492188 L 172.066406 145.925781 L 169.152344 151.105469 L 182.117188 154.546875 C 183.863281 155.746094 186.230469 155.445312 187.625 153.851562 C 189.019531 152.257812 189 149.875 187.582031 148.300781 Z M 187.582031 148.300781 "/>
<path style=" stroke:none;fill-rule:nonzero;fill:rgb(18.431373%,18.039216%,25.490196%);fill-opacity:1;" d="M 165.761719 154.046875 C 161.414062 154.046875 155.53125 151.496094 148.546875 146.558594 C 147.757812 146.015625 147.238281 145.164062 147.105469 144.21875 C 146.589844 140.953125 149.773438 136.542969 150.085938 136.117188 L 153.433594 126.929688 C 153.472656 126.78125 154.550781 122.804688 157.257812 121.390625 C 158.410156 120.796875 159.765625 120.742188 160.964844 121.230469 C 166.121094 123.109375 162.09375 137.609375 161.542969 139.511719 L 168.375 142.726562 L 172.710938 145.492188 L 178.652344 146.113281 L 177.042969 153.578125 L 168.019531 153.78125 C 167.277344 153.964844 166.519531 154.050781 165.761719 154.046875 Z M 165.761719 154.046875 "/>
<path style=" stroke:none;fill-rule:nonzero;fill:rgb(18.431373%,18.039216%,25.490196%);fill-opacity:1;" d="M 182.101562 98.476562 C 181.378906 99.417969 178.878906 100.253906 175.914062 100.925781 C 175.917969 100.863281 175.917969 100.800781 175.917969 100.742188 C 175.902344 99.796875 175.785156 98.859375 175.566406 97.941406 C 175.363281 99.0625 174.929688 100.132812 174.296875 101.085938 C 174.25 101.15625 174.203125 101.230469 174.148438 101.300781 C 171.605469 101.800781 168.914062 102.191406 166.804688 102.453125 C 168.253906 107.675781 173.8125 111.957031 173.210938 115.132812 L 156.921875 118.460938 C 157.023438 117.140625 156.917969 115.8125 156.609375 114.527344 C 156.296875 116.226562 155.476562 117.789062 154.25 119.003906 L 152.867188 119.289062 L 152.453125 117.257812 C 148.878906 108.675781 153.859375 99.886719 162.023438 95.34375 C 163.476562 93.160156 165.738281 91.644531 168.304688 91.125 L 170.339844 90.707031 C 175.734375 89.605469 181 93.082031 182.101562 98.476562 Z M 182.101562 98.476562 "/>
<path style=" stroke:none;fill-rule:nonzero;fill:rgb(94.901961%,94.901961%,94.901961%);fill-opacity:1;" d="M 221.011719 262.667969 L 221.253906 257.253906 C 223.765625 255.910156 226.566406 255.203125 229.414062 255.1875 C 225.496094 258.390625 225.984375 264.566406 223.328125 268.875 C 221.628906 271.582031 218.789062 273.371094 215.613281 273.738281 L 212.332031 275.746094 C 211.421875 270.667969 212.78125 265.445312 216.050781 261.457031 C 216.964844 260.359375 218.019531 259.382812 219.179688 258.550781 C 219.964844 260.621094 221.011719 262.667969 221.011719 262.667969 Z M 221.011719 262.667969 "/>
<path style=" stroke:none;fill-rule:nonzero;fill:rgb(79.215686%,79.215686%,79.215686%);fill-opacity:1;" d="M 228.964844 275.871094 L 114.773438 275.871094 C 114.445312 275.871094 114.179688 275.601562 114.179688 275.273438 C 114.179688 274.945312 114.445312 274.679688 114.773438 274.679688 L 228.964844 274.679688 C 229.175781 274.679688 229.375 274.792969 229.480469 274.976562 C 229.585938 275.160156 229.585938 275.390625 229.480469 275.574219 C 229.375 275.757812 229.175781 275.871094 228.964844 275.871094 Z M 228.964844 275.871094 "/>
</g>
</svg>
