<?xml version="1.0" encoding="UTF-8"?>
<svg xmlns="http://www.w3.org/2000/svg" xmlns:xlink="http://www.w3.org/1999/xlink" width="px" height="px" viewBox="0 0 720 160" version="1.1">
<g id="surface1">
<path style=" stroke:none;fill-rule:nonzero;fill:rgb(0.392157%,42.745098%,46.666667%);fill-opacity:1;" d="M 0 32 L 20 50.648438 C 40 69.5 80 106.5 120 128 C 160 149.5 200 154.5 240 146.648438 C 280 138.5 320 117.5 360 93.351562 C 400 69.5 440 42.5 480 26.648438 C 520 10.5 560 5.5 600 16 C 640 26.5 680 53.5 700 66.648438 L 720 80 L 720 0 L 700 0 C 680 0 640 0 600 0 C 560 0 520 0 480 0 C 440 0 400 0 360 0 C 320 0 280 0 240 0 C 200 0 160 0 120 0 C 80 0 40 0 20 0 L 0 0 Z M 0 32 "/>
</g>
</svg>
